{
.appVersion = "1056";
DisplayStrings = (
"Hnwnovoony/y.001 nxn\012HHXHOXOOHYH\012PRK\012ni.n:n;n,n\U00B7n/bullet n/ellipsis n\012n-n/endash n/emdash n_n\012n/guilsinglleft non/guilsinglright n\U00ABn\U00BBn\012H#H^H*H|H//H/backslash H!HSH?HH\U00BFnSl!\U00A1nh?\012CH&HNM\012BPR\012h(h[{ho-oh}])(p)\012JOZEFg\012HheAVH}\012HMHWH\012HXHKH",
"ABCDEFGHIJKLMNOPQRSTUVWXYZabcdefghijklmnopqrstuvwXxyz\012CGJSsaceg\012OBJEV\012Hnnopka no\012nnznozoon/idotless/jdotless \012HHZHOZOOH\012FIGHTC\012OHVINA\012MUZEUM\012WHOM\012H\U00C6H/AEacute H\U00D0H/Dcroat \012H/Hbar H\U00DEHPH/Tbar H/Eng HgJO/OE H\U00D8HOH/Oslashacute H/Schwa HOH/Germandbls H3J\012STRA/Germandbls E/Eng \012HLH/Lslash H/Uogonek H\012nn/schwa nen/oe n/tbar ontn/eogonek nen\U00F8non/oslashacute n/eng n/jdotless l/lslash ld\U00DFbnnfn\U00F0ndo./apostrophemodifier \012rock /napostrophe \012no/ldot lno/periodcentered.CAT   /periodcentered.CAT.case \012HO/Ldot LHO\012z/lslash oty\012stra\U00DFero\012straer",

glyphs = (
{
glyphname = A;
lastChange = "2017-08-30 09:00:31 +0000";
layers = (
{
anchors = (
{
name = ogonek;
position = "{705, 0}";
},
{
name = top;
position = "{365, 710}";
}
);
background = {
anchors = (
{
name = ogonek;
position = "{705, 0}";
},
{
name = top;
position = "{365, 710}";
}
);
paths = (
{
closed = 1;
nodes = (
"579 136 LINE",
"579 251 LINE",
"150 251 LINE",
"150 136 LINE"
);
},
{
closed = 1;
nodes = (
"470 710 LINE",
"263 710 LINE",
"10 0 LINE",
"165 0 LINE",
"363 599 LINE",
"369 599 LINE",
"568 0 LINE",
"723 0 LINE"
);
}
);
};
layerId = "3F6440D7-FC3E-4965-8B72-FDD88F2A8137";
paths = (
{
closed = 1;
nodes = (
"579 136 LINE",
"579 251 LINE",
"150 251 LINE",
"150 136 LINE"
);
},
{
closed = 1;
nodes = (
"470 710 LINE",
"263 710 LINE",
"10 0 LINE",
"165 0 LINE",
"363 599 LINE",
"369 599 LINE",
"568 0 LINE",
"723 0 LINE"
);
}
);
width = 733;
}
);
unicode = 0041;
userData = {
RMXScaler = {
source = A;
};
};
},
{
color = 4;
glyphname = AE;
lastChange = "2017-08-30 09:00:31 +0000";
layers = (
{
anchors = (
{
name = top;
position = "{730, 710}";
}
);
background = {
paths = (
{
closed = 1;
nodes = (
"574 136 LINE",
"574 251 LINE",
"145 251 LINE",
"145 136 LINE"
);
},
{
closed = 1;
nodes = (
"465 710 LINE",
"258 710 LINE",
"5 0 LINE",
"160 0 LINE",
"358 599 LINE",
"364 599 LINE",
"563 0 LINE",
"718 0 LINE"
);
}
);
};
layerId = "3F6440D7-FC3E-4965-8B72-FDD88F2A8137";
paths = (
{
closed = 1;
nodes = (
"574 136 LINE",
"574 251 LINE",
"195 251 LINE",
"195 136 LINE"
);
},
{
closed = 1;
nodes = (
"561 710 LINE",
"437 710 LINE",
"5 0 LINE",
"165 0 LINE",
"517 599 LINE",
"561 599 LINE"
);
},
{
closed = 1;
nodes = (
"668 0 LINE",
"668 710 LINE",
"523 710 LINE",
"523 0 LINE"
);
},
{
closed = 1;
nodes = (
"1061 585 LINE",
"1061 710 LINE",
"620 710 LINE",
"620 585 LINE"
);
},
{
closed = 1;
nodes = (
"998 297 LINE",
"998 412 LINE",
"644 412 LINE",
"644 297 LINE"
);
},
{
closed = 1;
nodes = (
"1061 0 LINE",
"1061 125 LINE",
"620 125 LINE",
"620 0 LINE"
);
}
);
width = 1121;
}
);
rightMetricsKey = E;
unicode = 00C6;
},
{
glyphname = B;
lastChange = "2017-08-30 09:00:31 +0000";
layers = (
{
background = {
paths = (
{
closed = 1;
nodes = (
"240 0 LINE",
"240 710 LINE",
"95 710 LINE",
"95 0 LINE"
);
},
{
closed = 1;
nodes = (
"562 361 LINE",
"643 382 OFFCURVE",
"680 433 OFFCURVE",
"680 529 CURVE SMOOTH",
"680 640 OFFCURVE",
"623 710 OFFCURVE",
"450 710 CURVE SMOOTH",
"222 710 LINE",
"222 593 LINE",
"422 593 LINE SMOOTH",
"496 593 OFFCURVE",
"532 574 OFFCURVE",
"532 499 CURVE SMOOTH",
"532 435 OFFCURVE",
"496 409 OFFCURVE",
"422 409 CURVE SMOOTH",
"222 409 LINE",
"222 302 LINE",
"436 302 LINE SMOOTH",
"513 302 OFFCURVE",
"551 277 OFFCURVE",
"551 211 CURVE SMOOTH",
"551 138 OFFCURVE",
"513 117 OFFCURVE",
"436 117 CURVE SMOOTH",
"222 117 LINE",
"222 0 LINE",
"456 0 LINE SMOOTH",
"630 0 OFFCURVE",
"698 72 OFFCURVE",
"698 186 CURVE SMOOTH",
"698 288 OFFCURVE",
"656 336 OFFCURVE",
"562 355 CURVE"
);
}
);
};
layerId = "3F6440D7-FC3E-4965-8B72-FDD88F2A8137";
paths = (
{
closed = 1;
nodes = (
"240 0 LINE",
"240 710 LINE",
"95 710 LINE",
"95 0 LINE"
);
},
{
closed = 1;
nodes = (
"562 361 LINE",
"643 382 OFFCURVE",
"680 433 OFFCURVE",
"680 529 CURVE SMOOTH",
"680 640 OFFCURVE",
"623 710 OFFCURVE",
"450 710 CURVE SMOOTH",
"222 710 LINE",
"222 593 LINE",
"422 593 LINE SMOOTH",
"496 593 OFFCURVE",
"532 574 OFFCURVE",
"532 499 CURVE SMOOTH",
"532 435 OFFCURVE",
"496 409 OFFCURVE",
"422 409 CURVE SMOOTH",
"222 409 LINE",
"222 302 LINE",
"436 302 LINE SMOOTH",
"513 302 OFFCURVE",
"551 277 OFFCURVE",
"551 211 CURVE SMOOTH",
"551 138 OFFCURVE",
"513 117 OFFCURVE",
"436 117 CURVE SMOOTH",
"222 117 LINE",
"222 0 LINE",
"456 0 LINE SMOOTH",
"630 0 OFFCURVE",
"698 72 OFFCURVE",
"698 186 CURVE SMOOTH",
"698 288 OFFCURVE",
"656 336 OFFCURVE",
"562 355 CURVE"
);
}
);
width = 751;
}
);
leftMetricsKey = H;
unicode = 0042;
userData = {
RMXScaler = {
source = B;
};
};
},
{
glyphname = C;
lastChange = "2017-08-30 09:00:31 +0000";
layers = (
{
anchors = (
{
name = bottom;
position = "{408, 0}";
},
{
name = top;
position = "{403, 710}";
}
);
background = {
anchors = (
{
name = bottom;
position = "{408, 0}";
},
{
name = top;
position = "{403, 710}";
}
);
paths = (
{
closed = 1;
nodes = (
"607 -15 OFFCURVE",
"711 74 OFFCURVE",
"737 244 CURVE",
"585 244 LINE",
"566 150 OFFCURVE",
"518 110 OFFCURVE",
"408 110 CURVE SMOOTH",
"278 110 OFFCURVE",
"208 195 OFFCURVE",
"208 355 CURVE SMOOTH",
"208 514 OFFCURVE",
"278 600 OFFCURVE",
"406 600 CURVE SMOOTH",
"506 600 OFFCURVE",
"563 557 OFFCURVE",
"583 466 CURVE",
"735 466 LINE",
"712 637 OFFCURVE",
"601 725 OFFCURVE",
"406 725 CURVE SMOOTH",
"185 725 OFFCURVE",
"55 588 OFFCURVE",
"55 355 CURVE SMOOTH",
"55 121 OFFCURVE",
"184 -15 OFFCURVE",
"408 -15 CURVE SMOOTH"
);
}
);
};
layerId = "3F6440D7-FC3E-4965-8B72-FDD88F2A8137";
paths = (
{
closed = 1;
nodes = (
"607 -15 OFFCURVE",
"711 74 OFFCURVE",
"737 244 CURVE",
"585 244 LINE",
"566 150 OFFCURVE",
"518 110 OFFCURVE",
"408 110 CURVE SMOOTH",
"278 110 OFFCURVE",
"208 195 OFFCURVE",
"208 355 CURVE SMOOTH",
"208 514 OFFCURVE",
"278 600 OFFCURVE",
"406 600 CURVE SMOOTH",
"506 600 OFFCURVE",
"563 557 OFFCURVE",
"583 466 CURVE",
"735 466 LINE",
"712 637 OFFCURVE",
"601 725 OFFCURVE",
"406 725 CURVE SMOOTH",
"185 725 OFFCURVE",
"55 588 OFFCURVE",
"55 355 CURVE SMOOTH",
"55 121 OFFCURVE",
"184 -15 OFFCURVE",
"408 -15 CURVE SMOOTH"
);
}
);
width = 792;
}
);
leftMetricsKey = O;
rightMetricsKey = O;
unicode = 0043;
userData = {
RMXScaler = {
source = C;
};
};
},
{
glyphname = D;
lastChange = "2017-08-30 09:00:31 +0000";
layers = (
{
anchors = (
{
name = top;
position = "{352, 710}";
}
);
background = {
anchors = (
{
name = top;
position = "{352, 710}";
}
);
paths = (
{
closed = 1;
nodes = (
"243 0 LINE",
"243 710 LINE",
"95 710 LINE",
"95 0 LINE"
);
},
{
closed = 1;
nodes = (
"208 124 LINE",
"208 0 LINE",
"378 0 LINE SMOOTH",
"609 0 OFFCURVE",
"717 116 OFFCURVE",
"717 356 CURVE SMOOTH",
"717 597 OFFCURVE",
"608 710 OFFCURVE",
"388 710 CURVE SMOOTH",
"208 710 LINE",
"208 586 LINE",
"377 586 LINE SMOOTH",
"503 586 OFFCURVE",
"564 533 OFFCURVE",
"564 356 CURVE SMOOTH",
"564 177 OFFCURVE",
"503 124 OFFCURVE",
"377 124 CURVE SMOOTH"
);
}
);
};
layerId = "3F6440D7-FC3E-4965-8B72-FDD88F2A8137";
paths = (
{
closed = 1;
nodes = (
"243 0 LINE",
"243 710 LINE",
"95 710 LINE",
"95 0 LINE"
);
},
{
closed = 1;
nodes = (
"208 124 LINE",
"208 0 LINE",
"378 0 LINE SMOOTH",
"609 0 OFFCURVE",
"717 116 OFFCURVE",
"717 356 CURVE SMOOTH",
"717 597 OFFCURVE",
"608 710 OFFCURVE",
"388 710 CURVE SMOOTH",
"208 710 LINE",
"208 586 LINE",
"377 586 LINE SMOOTH",
"503 586 OFFCURVE",
"564 533 OFFCURVE",
"564 356 CURVE SMOOTH",
"564 177 OFFCURVE",
"503 124 OFFCURVE",
"377 124 CURVE SMOOTH"
);
}
);
width = 772;
}
);
leftMetricsKey = H;
rightMetricsKey = O;
unicode = 0044;
userData = {
RMXScaler = {
source = D;
};
};
},
{
color = 4;
glyphname = Eth;
lastChange = "2017-08-30 09:00:31 +0000";
layers = (
{
background = {
paths = (
{
closed = 1;
nodes = (
"263 0 LINE",
"263 710 LINE",
"115 710 LINE",
"115 0 LINE"
);
},
{
closed = 1;
nodes = (
"228 124 LINE",
"228 0 LINE",
"398 0 LINE SMOOTH",
"629 0 OFFCURVE",
"737 116 OFFCURVE",
"737 356 CURVE SMOOTH",
"737 597 OFFCURVE",
"628 710 OFFCURVE",
"408 710 CURVE SMOOTH",
"228 710 LINE",
"228 586 LINE",
"397 586 LINE SMOOTH",
"523 586 OFFCURVE",
"584 533 OFFCURVE",
"584 356 CURVE SMOOTH",
"584 177 OFFCURVE",
"523 124 OFFCURVE",
"397 124 CURVE SMOOTH"
);
},
{
closed = 1;
nodes = (
"439 297 LINE",
"439 410 LINE",
"25 410 LINE",
"25 297 LINE"
);
}
);
};
layerId = "3F6440D7-FC3E-4965-8B72-FDD88F2A8137";
paths = (
{
closed = 1;
nodes = (
"260 0 LINE",
"260 710 LINE",
"115 710 LINE",
"115 0 LINE"
);
},
{
closed = 1;
nodes = (
"228 124 LINE",
"228 0 LINE",
"398 0 LINE SMOOTH",
"629 0 OFFCURVE",
"737 116 OFFCURVE",
"737 356 CURVE SMOOTH",
"737 597 OFFCURVE",
"628 710 OFFCURVE",
"408 710 CURVE SMOOTH",
"228 710 LINE",
"228 586 LINE",
"399 586 LINE SMOOTH",
"525 586 OFFCURVE",
"586 533 OFFCURVE",
"586 356 CURVE SMOOTH",
"586 177 OFFCURVE",
"525 124 OFFCURVE",
"399 124 CURVE SMOOTH"
);
},
{
closed = 1;
nodes = (
"439 297 LINE",
"439 409 LINE",
"25 409 LINE",
"25 297 LINE"
);
}
);
width = 792;
}
);
unicode = 00D0;
},
{
glyphname = E;
lastChange = "2017-08-30 09:00:31 +0000";
layers = (
{
anchors = (
{
name = ogonek;
position = "{615, 0}";
},
{
name = top;
position = "{372, 710}";
}
);
background = {
anchors = (
{
name = ogonek;
position = "{615, 0}";
},
{
name = top;
position = "{372, 710}";
}
);
paths = (
{
closed = 1;
nodes = (
"240 0 LINE",
"240 710 LINE",
"95 710 LINE",
"95 0 LINE"
);
},
{
closed = 1;
nodes = (
"633 585 LINE",
"633 710 LINE",
"192 710 LINE",
"192 585 LINE"
);
},
{
closed = 1;
nodes = (
"570 297 LINE",
"570 412 LINE",
"216 412 LINE",
"216 297 LINE"
);
},
{
closed = 1;
nodes = (
"633 0 LINE",
"633 125 LINE",
"192 125 LINE",
"192 0 LINE"
);
}
);
};
layerId = "3F6440D7-FC3E-4965-8B72-FDD88F2A8137";
paths = (
{
closed = 1;
nodes = (
"240 0 LINE",
"240 710 LINE",
"95 710 LINE",
"95 0 LINE"
);
},
{
closed = 1;
nodes = (
"633 585 LINE",
"633 710 LINE",
"192 710 LINE",
"192 585 LINE"
);
},
{
closed = 1;
nodes = (
"570 297 LINE",
"570 412 LINE",
"216 412 LINE",
"216 297 LINE"
);
},
{
closed = 1;
nodes = (
"633 0 LINE",
"633 125 LINE",
"192 125 LINE",
"192 0 LINE"
);
}
);
width = 693;
}
);
leftMetricsKey = "=H";
unicode = 0045;
userData = {
RMXScaler = {
source = E;
};
};
},
{
glyphname = F;
lastChange = "2017-08-30 09:00:31 +0000";
layers = (
{
background = {
paths = (
{
closed = 1;
nodes = (
"243 0 LINE",
"243 710 LINE",
"95 710 LINE",
"95 0 LINE"
);
},
{
closed = 1;
nodes = (
"609 585 LINE",
"609 710 LINE",
"195 710 LINE",
"195 585 LINE"
);
},
{
closed = 1;
nodes = (
"546 275 LINE",
"546 392 LINE",
"195 392 LINE",
"195 275 LINE"
);
}
);
};
layerId = "3F6440D7-FC3E-4965-8B72-FDD88F2A8137";
paths = (
{
closed = 1;
nodes = (
"243 0 LINE",
"243 710 LINE",
"95 710 LINE",
"95 0 LINE"
);
},
{
closed = 1;
nodes = (
"609 585 LINE",
"609 710 LINE",
"195 710 LINE",
"195 585 LINE"
);
},
{
closed = 1;
nodes = (
"546 275 LINE",
"546 392 LINE",
"195 392 LINE",
"195 275 LINE"
);
}
);
width = 634;
}
);
leftMetricsKey = H;
unicode = 0046;
userData = {
RMXScaler = {
source = F;
};
};
},
{
glyphname = G;
lastChange = "2017-08-30 09:00:31 +0000";
layers = (
{
anchors = (
{
name = bottom;
position = "{407, 0}";
},
{
name = top;
position = "{415, 710}";
}
);
background = {
anchors = (
{
name = bottom;
position = "{407, 0}";
},
{
name = top;
position = "{415, 710}";
}
);
paths = (
{
closed = 1;
nodes = (
"496 -16 OFFCURVE",
"558 25 OFFCURVE",
"602 111 CURVE",
"608 111 LINE",
"624 0 LINE",
"740 0 LINE",
"740 371 LINE",
"435 371 LINE",
"435 260 LINE",
"665 260 LINE",
"610 301 LINE",
"596 197 OFFCURVE",
"533 106 OFFCURVE",
"407 106 CURVE SMOOTH",
"286 106 OFFCURVE",
"208 185 OFFCURVE",
"208 355 CURVE SMOOTH",
"208 513 OFFCURVE",
"278 600 OFFCURVE",
"411 600 CURVE SMOOTH",
"524 600 OFFCURVE",
"573 554 OFFCURVE",
"588 487 CURVE",
"735 487 LINE",
"723 630 OFFCURVE",
"613 725 OFFCURVE",
"407 725 CURVE SMOOTH",
"185 725 OFFCURVE",
"55 590 OFFCURVE",
"55 355 CURVE SMOOTH",
"55 105 OFFCURVE",
"192 -16 OFFCURVE",
"374 -16 CURVE SMOOTH"
);
}
);
};
layerId = "3F6440D7-FC3E-4965-8B72-FDD88F2A8137";
paths = (
{
closed = 1;
nodes = (
"496 -16 OFFCURVE",
"558 25 OFFCURVE",
"602 111 CURVE",
"608 111 LINE",
"624 0 LINE",
"740 0 LINE",
"740 371 LINE",
"435 371 LINE",
"435 260 LINE",
"665 260 LINE",
"610 301 LINE",
"596 197 OFFCURVE",
"533 106 OFFCURVE",
"407 106 CURVE SMOOTH",
"286 106 OFFCURVE",
"208 185 OFFCURVE",
"208 355 CURVE SMOOTH",
"208 513 OFFCURVE",
"278 600 OFFCURVE",
"411 600 CURVE SMOOTH",
"524 600 OFFCURVE",
"573 554 OFFCURVE",
"588 487 CURVE",
"735 487 LINE",
"723 630 OFFCURVE",
"613 725 OFFCURVE",
"407 725 CURVE SMOOTH",
"185 725 OFFCURVE",
"55 590 OFFCURVE",
"55 355 CURVE SMOOTH",
"55 105 OFFCURVE",
"192 -16 OFFCURVE",
"374 -16 CURVE SMOOTH"
);
}
);
width = 815;
}
);
leftMetricsKey = O;
unicode = 0047;
userData = {
RMXScaler = {
source = G;
};
};
},
{
glyphname = H;
lastChange = "2017-08-30 09:00:31 +0000";
layers = (
{
anchors = (
{
name = top;
position = "{477, 710}";
}
);
background = {
anchors = (
{
name = top;
position = "{477, 710}";
}
);
paths = (
{
closed = 1;
nodes = (
"593 419 LINE",
"268 419 LINE",
"314 710 LINE",
"166 710 LINE",
"54 0 LINE",
"202 0 LINE",
"248 295 LINE",
"573 295 LINE",
"527 0 LINE",
"675 0 LINE",
"787 710 LINE",
"639 710 LINE"
);
}
);
};
layerId = "3F6440D7-FC3E-4965-8B72-FDD88F2A8137";
paths = (
{
closed = 1;
nodes = (
"593 419 LINE",
"268 419 LINE",
"314 710 LINE",
"166 710 LINE",
"54 0 LINE",
"202 0 LINE",
"248 295 LINE",
"573 295 LINE",
"527 0 LINE",
"675 0 LINE",
"787 710 LINE",
"639 710 LINE"
);
}
);
width = 812;
}
);
unicode = 0048;
userData = {
RMXScaler = {
source = H;
};
};
},
{
color = 4;
glyphname = Hbar;
lastChange = "2017-08-30 09:00:31 +0000";
layers = (
{
background = {
paths = (
{
closed = 1;
nodes = (
"588 419 LINE",
"263 419 LINE",
"263 710 LINE",
"115 710 LINE",
"115 0 LINE",
"263 0 LINE",
"263 295 LINE",
"588 295 LINE",
"588 0 LINE",
"736 0 LINE",
"736 710 LINE",
"588 710 LINE"
);
},
{
closed = 1;
nodes = (
"816 497 LINE",
"816 610 LINE",
"35 610 LINE",
"35 497 LINE"
);
}
);
};
layerId = "3F6440D7-FC3E-4965-8B72-FDD88F2A8137";
paths = (
{
closed = 1;
nodes = (
"588 389 LINE",
"263 389 LINE",
"263 710 LINE",
"115 710 LINE",
"115 0 LINE",
"263 0 LINE",
"263 265 LINE",
"588 265 LINE",
"588 0 LINE",
"736 0 LINE",
"736 710 LINE",
"588 710 LINE"
);
},
{
closed = 1;
nodes = (
"816 512 LINE",
"816 617 LINE",
"35 617 LINE",
"35 512 LINE"
);
}
);
width = 851;
}
);
unicode = 0126;
},
{
glyphname = I;
lastChange = "2017-08-30 09:00:31 +0000";
layers = (
{
anchors = (
{
name = ogonek;
position = "{225, 0}";
},
{
name = top;
position = "{168, 710}";
}
);
background = {
anchors = (
{
name = ogonek;
position = "{225, 0}";
},
{
name = top;
position = "{168, 710}";
}
);
paths = (
{
closed = 1;
nodes = (
"243 0 LINE",
"243 710 LINE",
"95 710 LINE",
"95 0 LINE"
);
}
);
};
layerId = "3F6440D7-FC3E-4965-8B72-FDD88F2A8137";
paths = (
{
closed = 1;
nodes = (
"243 0 LINE",
"243 710 LINE",
"95 710 LINE",
"95 0 LINE"
);
}
);
width = 338;
}
);
leftMetricsKey = "=H";
rightMetricsKey = "=H";
unicode = 0049;
userData = {
RMXScaler = {
source = I;
};
};
},
{
color = 4;
glyphname = Iogonek;
lastChange = "2017-08-30 09:00:31 +0000";
layers = (
{
anchors = (
{
name = _ogonek;
position = "{220, 0}";
},
{
name = top;
position = "{163, 710}";
}
);
background = {
components = (
{
name = I;
},
{
name = ogonekcomb;
transform = "{1, 0, 0, 1, 215, 0}";
}
);
};
layerId = "3F6440D7-FC3E-4965-8B72-FDD88F2A8137";
paths = (
{
closed = 1;
nodes = (
"238 0 LINE",
"238 710 LINE",
"90 710 LINE",
"90 0 LINE"
);
},
{
closed = 1;
nodes = (
"151 34 OFFCURVE",
"54 -24 OFFCURVE",
"54 -121 CURVE SMOOTH",
"54 -194 OFFCURVE",
"118 -225 OFFCURVE",
"182 -225 CURVE SMOOTH",
"211 -225 OFFCURVE",
"246 -220 OFFCURVE",
"268 -211 CURVE",
"268 -127 LINE",
"252 -131 OFFCURVE",
"230 -135 OFFCURVE",
"216 -135 CURVE SMOOTH",
"190 -135 OFFCURVE",
"172 -122 OFFCURVE",
"172 -96 CURVE SMOOTH",
"172 -60 OFFCURVE",
"204 -23 OFFCURVE",
"238 0 CURVE",
"190 55 LINE"
);
}
);
width = 328;
}
);
leftKerningGroup = H;
rightKerningGroup = H;
unicode = 012E;
},
{
glyphname = J;
lastChange = "2017-08-30 09:00:31 +0000";
layers = (
{
anchors = (
{
name = top;
position = "{494, 710}";
}
);
background = {
anchors = (
{
name = top;
position = "{494, 710}";
}
);
paths = (
{
closed = 1;
nodes = (
"472 -15 OFFCURVE",
"561 67 OFFCURVE",
"561 269 CURVE SMOOTH",
"561 710 LINE",
"413 710 LINE",
"413 254 LINE SMOOTH",
"413 157 OFFCURVE",
"377 110 OFFCURVE",
"295 110 CURVE SMOOTH",
"210 110 OFFCURVE",
"174 147 OFFCURVE",
"164 242 CURVE",
"15 242 LINE",
"22 72 OFFCURVE",
"118 -15 OFFCURVE",
"289 -15 CURVE SMOOTH"
);
}
);
};
layerId = "3F6440D7-FC3E-4965-8B72-FDD88F2A8137";
paths = (
{
closed = 1;
nodes = (
"472 -15 OFFCURVE",
"561 67 OFFCURVE",
"561 269 CURVE SMOOTH",
"561 710 LINE",
"413 710 LINE",
"413 254 LINE SMOOTH",
"413 157 OFFCURVE",
"377 110 OFFCURVE",
"295 110 CURVE SMOOTH",
"210 110 OFFCURVE",
"174 147 OFFCURVE",
"164 242 CURVE",
"15 242 LINE",
"22 72 OFFCURVE",
"118 -15 OFFCURVE",
"289 -15 CURVE SMOOTH"
);
}
);
width = 646;
}
);
rightMetricsKey = U;
unicode = 004A;
userData = {
RMXScaler = {
source = J;
};
};
},
{
glyphname = K;
lastChange = "2017-08-30 09:00:31 +0000";
layers = (
{
anchors = (
{
name = bottom;
position = "{379, 0}";
}
);
background = {
anchors = (
{
name = bottom;
position = "{379, 0}";
}
);
paths = (
{
closed = 1;
nodes = (
"309 304 LINE",
"702 710 LINE",
"523 710 LINE",
"249 422 LINE",
"224 422 LINE",
"224 304 LINE"
);
},
{
closed = 1;
nodes = (
"243 0 LINE",
"243 710 LINE",
"95 710 LINE",
"95 0 LINE"
);
},
{
closed = 1;
nodes = (
"708 0 LINE",
"322 422 LINE",
"208 346 LINE",
"532 0 LINE"
);
}
);
};
layerId = "3F6440D7-FC3E-4965-8B72-FDD88F2A8137";
paths = (
{
closed = 1;
nodes = (
"309 304 LINE",
"702 710 LINE",
"523 710 LINE",
"249 422 LINE",
"224 422 LINE",
"224 304 LINE"
);
},
{
closed = 1;
nodes = (
"243 0 LINE",
"243 710 LINE",
"95 710 LINE",
"95 0 LINE"
);
},
{
closed = 1;
nodes = (
"708 0 LINE",
"322 422 LINE",
"208 346 LINE",
"532 0 LINE"
);
}
);
width = 713;
}
);
leftMetricsKey = H;
unicode = 004B;
userData = {
RMXScaler = {
source = K;
};
};
},
{
glyphname = L;
lastChange = "2017-08-30 09:00:31 +0000";
layers = (
{
anchors = (
{
name = bottom;
position = "{339, 0}";
},
{
name = periodcentered;
position = "{430, 370}";
},
{
name = top;
position = "{170, 710}";
},
{
name = topright;
position = "{394, 475}";
}
);
background = {
anchors = (
{
name = bottom;
position = "{339, 0}";
},
{
name = periodcentered;
position = "{430, 370}";
},
{
name = top;
position = "{170, 710}";
},
{
name = topright;
position = "{394, 475}";
}
);
paths = (
{
closed = 1;
nodes = (
"243 0 LINE",
"243 710 LINE",
"95 710 LINE",
"95 0 LINE"
);
},
{
closed = 1;
nodes = (
"568 0 LINE",
"568 125 LINE",
"192 125 LINE",
"192 0 LINE"
);
}
);
};
layerId = "3F6440D7-FC3E-4965-8B72-FDD88F2A8137";
paths = (
{
closed = 1;
nodes = (
"243 0 LINE",
"243 710 LINE",
"95 710 LINE",
"95 0 LINE"
);
},
{
closed = 1;
nodes = (
"568 0 LINE",
"568 125 LINE",
"192 125 LINE",
"192 0 LINE"
);
}
);
width = 593;
}
);
leftMetricsKey = "=H";
unicode = 004C;
userData = {
RMXScaler = {
source = L;
};
};
},
{
color = 4;
glyphname = Lslash;
lastChange = "2017-08-30 09:00:31 +0000";
layers = (
{
layerId = "3F6440D7-FC3E-4965-8B72-FDD88F2A8137";
paths = (
{
closed = 1;
nodes = (
"263 0 LINE",
"263 710 LINE",
"115 710 LINE",
"115 0 LINE"
);
},
{
closed = 1;
nodes = (
"588 0 LINE",
"588 125 LINE",
"212 125 LINE",
"212 0 LINE"
);
},
{
closed = 1;
nodes = (
"-5 150 LINE",
"495 480 LINE",
"495 605 LINE",
"-5 275 LINE"
);
}
);
width = 613;
}
);
unicode = 0141;
},
{
glyphname = M;
lastChange = "2017-08-30 09:00:31 +0000";
layers = (
{
background = {
paths = (
{
closed = 1;
nodes = (
"684 710 LINE",
"502 175 LINE",
"494 175 LINE",
"312 710 LINE",
"95 710 LINE",
"95 0 LINE",
"231 0 LINE",
"231 557 LINE",
"239 557 LINE",
"431 0 LINE",
"565 0 LINE",
"757 557 LINE",
"765 557 LINE",
"765 0 LINE",
"901 0 LINE",
"901 710 LINE"
);
}
);
};
layerId = "3F6440D7-FC3E-4965-8B72-FDD88F2A8137";
paths = (
{
closed = 1;
nodes = (
"684 710 LINE",
"502 175 LINE",
"494 175 LINE",
"312 710 LINE",
"95 710 LINE",
"95 0 LINE",
"231 0 LINE",
"231 557 LINE",
"239 557 LINE",
"431 0 LINE",
"565 0 LINE",
"757 557 LINE",
"765 557 LINE",
"765 0 LINE",
"901 0 LINE",
"901 710 LINE"
);
}
);
width = 996;
}
);
leftMetricsKey = H;
rightMetricsKey = H;
unicode = 004D;
userData = {
RMXScaler = {
source = M;
};
};
},
{
glyphname = N;
lastChange = "2017-08-30 09:00:31 +0000";
layers = (
{
anchors = (
{
name = bottom;
position = "{410, 0}";
},
{
name = top;
position = "{417, 710}";
}
);
background = {
anchors = (
{
name = bottom;
position = "{410, 0}";
},
{
name = top;
position = "{417, 710}";
}
);
paths = (
{
closed = 1;
nodes = (
"590 218 LINE",
"250 710 LINE",
"95 710 LINE",
"95 0 LINE",
"225 0 LINE",
"225 492 LINE",
"231 492 LINE",
"570 0 LINE",
"726 0 LINE",
"726 710 LINE",
"596 710 LINE",
"596 218 LINE"
);
}
);
};
layerId = "3F6440D7-FC3E-4965-8B72-FDD88F2A8137";
paths = (
{
closed = 1;
nodes = (
"590 218 LINE",
"250 710 LINE",
"95 710 LINE",
"95 0 LINE",
"225 0 LINE",
"225 492 LINE",
"231 492 LINE",
"570 0 LINE",
"726 0 LINE",
"726 710 LINE",
"596 710 LINE",
"596 218 LINE"
);
}
);
width = 821;
}
);
leftMetricsKey = "=H";
rightMetricsKey = "=H";
unicode = 004E;
userData = {
RMXScaler = {
source = N;
};
};
},
{
color = 4;
glyphname = Eng;
lastChange = "2017-08-30 09:00:31 +0000";
layers = (
{
background = {
paths = (
{
closed = 1;
nodes = (
"95 0 LINE",
"225 0 LINE",
"225 492 LINE",
"231 492 LINE",
"625 -64 LINE",
"606 25 LINE",
"606 -62 OFFCURVE",
"589 -85 OFFCURVE",
"531 -85 CURVE SMOOTH",
"495 -85 OFFCURVE",
"472 -68 OFFCURVE",
"465 -25 CURVE",
"327 -25 LINE",
"334 -139 OFFCURVE",
"399 -200 OFFCURVE",
"528 -200 CURVE SMOOTH",
"662 -200 OFFCURVE",
"726 -142 OFFCURVE",
"726 29 CURVE SMOOTH",
"726 710 LINE",
"596 710 LINE",
"596 223 LINE",
"590 223 LINE",
"250 710 LINE",
"95 710 LINE"
);
}
);
};
layerId = "3F6440D7-FC3E-4965-8B72-FDD88F2A8137";
paths = (
{
closed = 1;
nodes = (
"601 -71 OFFCURVE",
"570 -90 OFFCURVE",
"499 -90 CURVE SMOOTH",
"476 -90 OFFCURVE",
"433 -85 OFFCURVE",
"404 -80 CURVE",
"404 -197 LINE",
"443 -205 OFFCURVE",
"485 -210 OFFCURVE",
"531 -210 CURVE SMOOTH",
"657 -210 OFFCURVE",
"726 -144 OFFCURVE",
"726 6 CURVE SMOOTH",
"726 710 LINE",
"596 710 LINE",
"596 223 LINE",
"590 223 LINE",
"250 710 LINE",
"95 710 LINE",
"95 0 LINE",
"225 0 LINE",
"225 492 LINE",
"231 492 LINE",
"625 -64 LINE",
"625 4 LINE",
"601 4 LINE"
);
}
);
width = 821;
}
);
leftMetricsKey = H;
rightMetricsKey = H;
unicode = 014A;
},
{
glyphname = O;
lastChange = "2017-08-30 09:00:31 +0000";
layers = (
{
anchors = (
{
name = bottom;
position = "{411, 0}";
},
{
name = top;
position = "{412, 710}";
}
);
background = {
anchors = (
{
name = bottom;
position = "{411, 0}";
},
{
name = top;
position = "{412, 710}";
}
);
paths = (
{
closed = 1;
nodes = (
"640 -15 OFFCURVE",
"769 119 OFFCURVE",
"769 355 CURVE SMOOTH",
"769 591 OFFCURVE",
"640 725 OFFCURVE",
"412 725 CURVE SMOOTH",
"184 725 OFFCURVE",
"55 591 OFFCURVE",
"55 355 CURVE SMOOTH",
"55 119 OFFCURVE",
"184 -15 OFFCURVE",
"412 -15 CURVE SMOOTH"
);
},
{
closed = 1;
nodes = (
"278 110 OFFCURVE",
"208 194 OFFCURVE",
"208 355 CURVE SMOOTH",
"208 516 OFFCURVE",
"278 600 OFFCURVE",
"412 600 CURVE SMOOTH",
"546 600 OFFCURVE",
"616 516 OFFCURVE",
"616 355 CURVE SMOOTH",
"616 194 OFFCURVE",
"546 110 OFFCURVE",
"412 110 CURVE SMOOTH"
);
}
);
};
layerId = "3F6440D7-FC3E-4965-8B72-FDD88F2A8137";
paths = (
{
closed = 1;
nodes = (
"640 -15 OFFCURVE",
"769 119 OFFCURVE",
"769 355 CURVE SMOOTH",
"769 591 OFFCURVE",
"640 725 OFFCURVE",
"412 725 CURVE SMOOTH",
"184 725 OFFCURVE",
"55 591 OFFCURVE",
"55 355 CURVE SMOOTH",
"55 119 OFFCURVE",
"184 -15 OFFCURVE",
"412 -15 CURVE SMOOTH"
);
},
{
closed = 1;
nodes = (
"278 110 OFFCURVE",
"208 194 OFFCURVE",
"208 355 CURVE SMOOTH",
"208 516 OFFCURVE",
"278 600 OFFCURVE",
"412 600 CURVE SMOOTH",
"546 600 OFFCURVE",
"616 516 OFFCURVE",
"616 355 CURVE SMOOTH",
"616 194 OFFCURVE",
"546 110 OFFCURVE",
"412 110 CURVE SMOOTH"
);
}
);
width = 824;
}
);
unicode = 004F;
userData = {
RMXScaler = {
source = O;
};
};
},
{
color = 4;
glyphname = Oslash;
lastChange = "2017-08-30 09:00:31 +0000";
layers = (
{
anchors = (
{
name = top;
position = "{412, 710}";
}
);
background = {
paths = (
{
closed = 1;
nodes = (
"640 -15 OFFCURVE",
"769 119 OFFCURVE",
"769 355 CURVE SMOOTH",
"769 591 OFFCURVE",
"640 725 OFFCURVE",
"412 725 CURVE SMOOTH",
"184 725 OFFCURVE",
"55 591 OFFCURVE",
"55 355 CURVE SMOOTH",
"55 119 OFFCURVE",
"184 -15 OFFCURVE",
"412 -15 CURVE SMOOTH"
);
},
{
closed = 1;
nodes = (
"278 110 OFFCURVE",
"208 194 OFFCURVE",
"208 355 CURVE SMOOTH",
"208 516 OFFCURVE",
"278 600 OFFCURVE",
"412 600 CURVE SMOOTH",
"546 600 OFFCURVE",
"616 516 OFFCURVE",
"616 355 CURVE SMOOTH",
"616 194 OFFCURVE",
"546 110 OFFCURVE",
"412 110 CURVE SMOOTH"
);
},
{
closed = 1;
nodes = (
"210 -70 LINE",
"749 780 LINE",
"614 780 LINE",
"75 -70 LINE"
);
}
);
};
layerId = "3F6440D7-FC3E-4965-8B72-FDD88F2A8137";
paths = (
{
closed = 1;
nodes = (
"640 -15 OFFCURVE",
"769 119 OFFCURVE",
"769 355 CURVE SMOOTH",
"769 591 OFFCURVE",
"640 725 OFFCURVE",
"412 725 CURVE SMOOTH",
"184 725 OFFCURVE",
"55 591 OFFCURVE",
"55 355 CURVE SMOOTH",
"55 119 OFFCURVE",
"184 -15 OFFCURVE",
"412 -15 CURVE SMOOTH"
);
},
{
closed = 1;
nodes = (
"268 107 OFFCURVE",
"198 184 OFFCURVE",
"198 355 CURVE SMOOTH",
"198 516 OFFCURVE",
"268 603 OFFCURVE",
"412 603 CURVE SMOOTH",
"556 603 OFFCURVE",
"626 526 OFFCURVE",
"626 355 CURVE SMOOTH",
"626 194 OFFCURVE",
"556 107 OFFCURVE",
"412 107 CURVE SMOOTH"
);
},
{
closed = 1;
nodes = (
"175 102 LINE",
"70 -65 LINE",
"215 -65 LINE",
"281 41 LINE"
);
},
{
closed = 1;
nodes = (
"652 613 LINE",
"754 775 LINE",
"609 775 LINE",
"543 669 LINE"
);
},
{
closed = 1;
nodes = (
"312 97 LINE",
"609 555 LINE",
"521 620 LINE",
"220 156 LINE"
);
}
);
width = 824;
}
);
unicode = 00D8;
},
{
color = 4;
glyphname = OE;
lastChange = "2017-08-30 09:00:31 +0000";
layers = (
{
background = {
paths = (
{
closed = 1;
nodes = (
"640 -15 OFFCURVE",
"769 119 OFFCURVE",
"769 355 CURVE SMOOTH",
"769 591 OFFCURVE",
"640 725 OFFCURVE",
"412 725 CURVE SMOOTH",
"184 725 OFFCURVE",
"55 591 OFFCURVE",
"55 355 CURVE SMOOTH",
"55 119 OFFCURVE",
"184 -15 OFFCURVE",
"412 -15 CURVE SMOOTH"
);
},
{
closed = 1;
nodes = (
"278 110 OFFCURVE",
"208 194 OFFCURVE",
"208 355 CURVE SMOOTH",
"208 516 OFFCURVE",
"278 600 OFFCURVE",
"412 600 CURVE SMOOTH",
"546 600 OFFCURVE",
"616 516 OFFCURVE",
"616 355 CURVE SMOOTH",
"616 194 OFFCURVE",
"546 110 OFFCURVE",
"412 110 CURVE SMOOTH"
);
},
{
closed = 1;
nodes = (
"761 0 LINE",
"761 710 LINE",
"616 710 LINE",
"616 0 LINE"
);
},
{
closed = 1;
nodes = (
"1154 585 LINE",
"1154 710 LINE",
"713 710 LINE",
"713 585 LINE"
);
},
{
closed = 1;
nodes = (
"1091 297 LINE",
"1091 412 LINE",
"737 412 LINE",
"737 297 LINE"
);
},
{
closed = 1;
nodes = (
"1154 0 LINE",
"1154 125 LINE",
"713 125 LINE",
"713 0 LINE"
);
}
);
};
layerId = "3F6440D7-FC3E-4965-8B72-FDD88F2A8137";
paths = (
{
closed = 1;
nodes = (
"630 -15 OFFCURVE",
"719 159 OFFCURVE",
"719 355 CURVE SMOOTH",
"719 551 OFFCURVE",
"630 725 OFFCURVE",
"402 725 CURVE SMOOTH",
"184 725 OFFCURVE",
"55 591 OFFCURVE",
"55 355 CURVE SMOOTH",
"55 119 OFFCURVE",
"184 -15 OFFCURVE",
"402 -15 CURVE SMOOTH"
);
},
{
closed = 1;
nodes = (
"278 110 OFFCURVE",
"208 194 OFFCURVE",
"208 355 CURVE SMOOTH",
"208 516 OFFCURVE",
"278 600 OFFCURVE",
"412 600 CURVE SMOOTH",
"546 600 OFFCURVE",
"616 516 OFFCURVE",
"616 355 CURVE SMOOTH",
"616 194 OFFCURVE",
"546 110 OFFCURVE",
"412 110 CURVE SMOOTH"
);
},
{
closed = 1;
nodes = (
"754 0 LINE",
"754 710 LINE",
"616 710 LINE",
"616 0 LINE"
);
},
{
closed = 1;
nodes = (
"1147 585 LINE",
"1147 710 LINE",
"713 710 LINE",
"713 585 LINE"
);
},
{
closed = 1;
nodes = (
"1084 297 LINE",
"1084 412 LINE",
"737 412 LINE",
"737 297 LINE"
);
},
{
closed = 1;
nodes = (
"1147 0 LINE",
"1147 125 LINE",
"713 125 LINE",
"713 0 LINE"
);
}
);
width = 1207;
}
);
leftMetricsKey = O;
rightMetricsKey = E;
unicode = 0152;
},
{
glyphname = P;
lastChange = "2017-08-30 09:00:31 +0000";
layers = (
{
background = {
paths = (
{
closed = 1;
nodes = (
"243 0 LINE",
"243 710 LINE",
"95 710 LINE",
"95 0 LINE"
);
},
{
closed = 1;
nodes = (
"224 374 LINE",
"224 253 LINE",
"418 253 LINE SMOOTH",
"608 253 OFFCURVE",
"681 341 OFFCURVE",
"681 482 CURVE SMOOTH",
"681 626 OFFCURVE",
"607 710 OFFCURVE",
"422 710 CURVE SMOOTH",
"224 710 LINE",
"224 588 LINE",
"388 588 LINE SMOOTH",
"494 588 OFFCURVE",
"538 566 OFFCURVE",
"538 483 CURVE SMOOTH",
"538 400 OFFCURVE",
"494 374 OFFCURVE",
"386 374 CURVE SMOOTH"
);
}
);
};
layerId = "3F6440D7-FC3E-4965-8B72-FDD88F2A8137";
paths = (
{
closed = 1;
nodes = (
"243 0 LINE",
"243 710 LINE",
"95 710 LINE",
"95 0 LINE"
);
},
{
closed = 1;
nodes = (
"224 374 LINE",
"224 253 LINE",
"418 253 LINE SMOOTH",
"608 253 OFFCURVE",
"681 341 OFFCURVE",
"681 482 CURVE SMOOTH",
"681 626 OFFCURVE",
"607 710 OFFCURVE",
"422 710 CURVE SMOOTH",
"224 710 LINE",
"224 588 LINE",
"388 588 LINE SMOOTH",
"494 588 OFFCURVE",
"538 566 OFFCURVE",
"538 483 CURVE SMOOTH",
"538 400 OFFCURVE",
"494 374 OFFCURVE",
"386 374 CURVE SMOOTH"
);
}
);
width = 726;
}
);
leftMetricsKey = H;
unicode = 0050;
userData = {
RMXScaler = {
source = P;
};
};
},
{
color = 4;
glyphname = Thorn;
lastChange = "2017-08-30 09:00:31 +0000";
layers = (
{
layerId = "3F6440D7-FC3E-4965-8B72-FDD88F2A8137";
paths = (
{
closed = 1;
nodes = (
"243 0 LINE",
"243 710 LINE",
"95 710 LINE",
"95 0 LINE"
);
},
{
closed = 1;
nodes = (
"224 254 LINE",
"224 133 LINE",
"418 133 LINE SMOOTH",
"608 133 OFFCURVE",
"681 221 OFFCURVE",
"681 362 CURVE SMOOTH",
"681 506 OFFCURVE",
"607 590 OFFCURVE",
"422 590 CURVE SMOOTH",
"224 590 LINE",
"224 468 LINE",
"388 468 LINE SMOOTH",
"494 468 OFFCURVE",
"538 446 OFFCURVE",
"538 363 CURVE SMOOTH",
"538 280 OFFCURVE",
"494 254 OFFCURVE",
"386 254 CURVE SMOOTH"
);
}
);
width = 726;
}
);
leftMetricsKey = H;
rightMetricsKey = P;
unicode = 00DE;
},
{
glyphname = Q;
lastChange = "2017-08-30 09:00:31 +0000";
layers = (
{
background = {
paths = (
{
closed = 1;
nodes = (
"747 -97 LINE",
"604 92 LINE",
"579 92 LINE",
"478 237 LINE",
"341 237 LINE",
"489 19 LINE",
"513 19 LINE",
"602 -97 LINE"
);
},
{
closed = 1;
nodes = (
"636 -15 OFFCURVE",
"768 116 OFFCURVE",
"768 356 CURVE SMOOTH",
"768 596 OFFCURVE",
"636 725 OFFCURVE",
"412 725 CURVE SMOOTH",
"187 725 OFFCURVE",
"55 596 OFFCURVE",
"55 356 CURVE SMOOTH",
"55 116 OFFCURVE",
"187 -15 OFFCURVE",
"412 -15 CURVE SMOOTH"
);
},
{
closed = 1;
nodes = (
"271 110 OFFCURVE",
"208 200 OFFCURVE",
"208 356 CURVE SMOOTH",
"208 510 OFFCURVE",
"271 600 OFFCURVE",
"412 600 CURVE SMOOTH",
"552 600 OFFCURVE",
"616 510 OFFCURVE",
"616 356 CURVE SMOOTH",
"616 200 OFFCURVE",
"552 110 OFFCURVE",
"412 110 CURVE SMOOTH"
);
}
);
};
layerId = "3F6440D7-FC3E-4965-8B72-FDD88F2A8137";
paths = (
{
closed = 1;
nodes = (
"747 -97 LINE",
"604 92 LINE",
"579 92 LINE",
"478 237 LINE",
"341 237 LINE",
"489 19 LINE",
"513 19 LINE",
"602 -97 LINE"
);
},
{
closed = 1;
nodes = (
"636 -15 OFFCURVE",
"768 116 OFFCURVE",
"768 356 CURVE SMOOTH",
"768 596 OFFCURVE",
"636 725 OFFCURVE",
"412 725 CURVE SMOOTH",
"187 725 OFFCURVE",
"55 596 OFFCURVE",
"55 356 CURVE SMOOTH",
"55 116 OFFCURVE",
"187 -15 OFFCURVE",
"412 -15 CURVE SMOOTH"
);
},
{
closed = 1;
nodes = (
"271 110 OFFCURVE",
"208 200 OFFCURVE",
"208 356 CURVE SMOOTH",
"208 510 OFFCURVE",
"271 600 OFFCURVE",
"412 600 CURVE SMOOTH",
"552 600 OFFCURVE",
"616 510 OFFCURVE",
"616 356 CURVE SMOOTH",
"616 200 OFFCURVE",
"552 110 OFFCURVE",
"412 110 CURVE SMOOTH"
);
}
);
width = 823;
}
);
leftMetricsKey = O;
rightMetricsKey = O;
unicode = 0051;
userData = {
RMXScaler = {
source = Q;
};
};
},
{
glyphname = R;
lastChange = "2017-08-30 09:00:31 +0000";
layers = (
{
anchors = (
{
name = bottom;
position = "{380, 0}";
},
{
name = top;
position = "{377, 710}";
}
);
background = {
anchors = (
{
name = bottom;
position = "{380, 0}";
},
{
name = top;
position = "{377, 710}";
}
);
paths = (
{
closed = 1;
nodes = (
"243 0 LINE",
"243 710 LINE",
"95 710 LINE",
"95 0 LINE"
);
},
{
closed = 1;
nodes = (
"224 385 LINE",
"224 270 LINE",
"404 270 LINE SMOOTH",
"604 270 OFFCURVE",
"687 355 OFFCURVE",
"687 488 CURVE SMOOTH",
"687 626 OFFCURVE",
"611 710 OFFCURVE",
"426 710 CURVE SMOOTH",
"224 710 LINE",
"224 588 LINE",
"393 588 LINE SMOOTH",
"499 588 OFFCURVE",
"544 566 OFFCURVE",
"544 489 CURVE SMOOTH",
"544 413 OFFCURVE",
"499 385 OFFCURVE",
"392 385 CURVE SMOOTH"
);
},
{
closed = 1;
nodes = (
"686 0 LINE",
"464 331 LINE",
"307 331 LINE",
"521 0 LINE"
);
}
);
};
layerId = "3F6440D7-FC3E-4965-8B72-FDD88F2A8137";
paths = (
{
closed = 1;
nodes = (
"243 0 LINE",
"243 710 LINE",
"95 710 LINE",
"95 0 LINE"
);
},
{
closed = 1;
nodes = (
"224 385 LINE",
"224 270 LINE",
"404 270 LINE SMOOTH",
"604 270 OFFCURVE",
"687 355 OFFCURVE",
"687 488 CURVE SMOOTH",
"687 626 OFFCURVE",
"611 710 OFFCURVE",
"426 710 CURVE SMOOTH",
"224 710 LINE",
"224 588 LINE",
"393 588 LINE SMOOTH",
"499 588 OFFCURVE",
"544 566 OFFCURVE",
"544 489 CURVE SMOOTH",
"544 413 OFFCURVE",
"499 385 OFFCURVE",
"392 385 CURVE SMOOTH"
);
},
{
closed = 1;
nodes = (
"686 0 LINE",
"464 331 LINE",
"307 331 LINE",
"521 0 LINE"
);
}
);
width = 747;
}
);
leftMetricsKey = H;
unicode = 0052;
userData = {
RMXScaler = {
source = R;
};
};
},
{
glyphname = S;
lastChange = "2017-08-30 09:00:31 +0000";
layers = (
{
anchors = (
{
name = bottom;
position = "{361, 0}";
},
{
name = top;
position = "{352, 710}";
}
);
background = {
anchors = (
{
name = bottom;
position = "{361, 0}";
},
{
name = top;
position = "{352, 710}";
}
);
paths = (
{
closed = 1;
nodes = (
"551 -15 OFFCURVE",
"654 65 OFFCURVE",
"654 198 CURVE SMOOTH",
"654 316 OFFCURVE",
"592 377 OFFCURVE",
"428 410 CURVE SMOOTH",
"343 427 LINE SMOOTH",
"252 445 OFFCURVE",
"217 469 OFFCURVE",
"217 523 CURVE SMOOTH",
"217 578 OFFCURVE",
"266 608 OFFCURVE",
"349 608 CURVE SMOOTH",
"452 608 OFFCURVE",
"491 585 OFFCURVE",
"503 508 CURVE",
"648 508 LINE",
"635 659 OFFCURVE",
"544 725 OFFCURVE",
"352 725 CURVE SMOOTH",
"173 725 OFFCURVE",
"71 642 OFFCURVE",
"71 514 CURVE SMOOTH",
"71 397 OFFCURVE",
"139 333 OFFCURVE",
"294 302 CURVE SMOOTH",
"379 285 LINE SMOOTH",
"477 265 OFFCURVE",
"508 243 OFFCURVE",
"508 189 CURVE SMOOTH",
"508 130 OFFCURVE",
"452 102 OFFCURVE",
"368 102 CURVE SMOOTH",
"255 102 OFFCURVE",
"216 134 OFFCURVE",
"201 200 CURVE",
"55 200 LINE",
"65 62 OFFCURVE",
"162 -15 OFFCURVE",
"363 -15 CURVE SMOOTH"
);
}
);
};
layerId = "3F6440D7-FC3E-4965-8B72-FDD88F2A8137";
paths = (
{
closed = 1;
nodes = (
"551 -15 OFFCURVE",
"654 65 OFFCURVE",
"654 198 CURVE SMOOTH",
"654 316 OFFCURVE",
"592 377 OFFCURVE",
"428 410 CURVE SMOOTH",
"343 427 LINE SMOOTH",
"252 445 OFFCURVE",
"217 469 OFFCURVE",
"217 523 CURVE SMOOTH",
"217 578 OFFCURVE",
"266 608 OFFCURVE",
"349 608 CURVE SMOOTH",
"452 608 OFFCURVE",
"491 585 OFFCURVE",
"503 508 CURVE",
"648 508 LINE",
"635 659 OFFCURVE",
"544 725 OFFCURVE",
"352 725 CURVE SMOOTH",
"173 725 OFFCURVE",
"71 642 OFFCURVE",
"71 514 CURVE SMOOTH",
"71 397 OFFCURVE",
"139 333 OFFCURVE",
"294 302 CURVE SMOOTH",
"379 285 LINE SMOOTH",
"477 265 OFFCURVE",
"508 243 OFFCURVE",
"508 189 CURVE SMOOTH",
"508 130 OFFCURVE",
"452 102 OFFCURVE",
"368 102 CURVE SMOOTH",
"255 102 OFFCURVE",
"216 134 OFFCURVE",
"201 200 CURVE",
"55 200 LINE",
"65 62 OFFCURVE",
"162 -15 OFFCURVE",
"363 -15 CURVE SMOOTH"
);
}
);
width = 709;
}
);
unicode = 0053;
userData = {
RMXScaler = {
source = S;
};
};
},
{
color = 4;
glyphname = Germandbls;
lastChange = "2017-08-30 09:00:31 +0000";
layers = (
{
background = {
paths = (
{
closed = 1;
nodes = (
"610 698 OFFCURVE",
"501 725 OFFCURVE",
"372 725 CURVE SMOOTH",
"185 725 OFFCURVE",
"85 636 OFFCURVE",
"85 416 CURVE SMOOTH",
"85 0 LINE",
"233 0 LINE",
"233 437 LINE SMOOTH",
"233 568 OFFCURVE",
"302 607 OFFCURVE",
"390 607 CURVE SMOOTH",
"456 607 OFFCURVE",
"497 598 OFFCURVE",
"538 586 CURVE",
"538 582 LINE",
"404 388 LINE",
"404 298 LINE",
"552 298 OFFCURVE",
"590 266 OFFCURVE",
"590 201 CURVE SMOOTH",
"590 113 OFFCURVE",
"517 100 OFFCURVE",
"464 100 CURVE SMOOTH",
"428 100 OFFCURVE",
"372 105 OFFCURVE",
"344 110 CURVE",
"344 0 LINE",
"375 -7 OFFCURVE",
"439 -15 OFFCURVE",
"474 -15 CURVE SMOOTH",
"662 -15 OFFCURVE",
"728 55 OFFCURVE",
"728 200 CURVE SMOOTH",
"728 320 OFFCURVE",
"646 375 OFFCURVE",
"547 388 CURVE",
"684 580 LINE",
"684 669 LINE"
);
}
);
};
layerId = "3F6440D7-FC3E-4965-8B72-FDD88F2A8137";
paths = (
{
closed = 1;
nodes = (
"610 703 OFFCURVE",
"511 725 OFFCURVE",
"372 725 CURVE SMOOTH",
"185 725 OFFCURVE",
"85 636 OFFCURVE",
"85 416 CURVE SMOOTH",
"85 0 LINE",
"233 0 LINE",
"233 437 LINE SMOOTH",
"233 568 OFFCURVE",
"302 607 OFFCURVE",
"390 607 CURVE SMOOTH",
"446 607 OFFCURVE",
"492 602 OFFCURVE",
"533 586 CURVE",
"533 582 LINE",
"384 388 LINE",
"384 298 LINE",
"532 298 OFFCURVE",
"590 266 OFFCURVE",
"590 201 CURVE SMOOTH",
"590 113 OFFCURVE",
"517 100 OFFCURVE",
"464 100 CURVE SMOOTH",
"418 100 OFFCURVE",
"362 105 OFFCURVE",
"334 110 CURVE",
"334 0 LINE",
"365 -7 OFFCURVE",
"429 -15 OFFCURVE",
"474 -15 CURVE SMOOTH",
"662 -15 OFFCURVE",
"728 55 OFFCURVE",
"728 200 CURVE SMOOTH",
"728 320 OFFCURVE",
"626 375 OFFCURVE",
"527 388 CURVE",
"684 585 LINE",
"684 674 LINE"
);
}
);
width = 768;
}
);
leftMetricsKey = U;
unicode = 1E9E;
},
{
color = 4;
glyphname = Schwa;
lastChange = "2017-08-30 09:00:31 +0000";
layers = (
{
background = {
paths = (
{
closed = 1;
nodes = (
"630 -15 OFFCURVE",
"759 119 OFFCURVE",
"759 355 CURVE SMOOTH",
"759 591 OFFCURVE",
"630 725 OFFCURVE",
"402 725 CURVE SMOOTH",
"174 725 OFFCURVE",
"45 591 OFFCURVE",
"45 355 CURVE SMOOTH",
"45 119 OFFCURVE",
"174 -15 OFFCURVE",
"402 -15 CURVE SMOOTH"
);
},
{
closed = 1;
nodes = (
"268 110 OFFCURVE",
"198 194 OFFCURVE",
"198 355 CURVE SMOOTH",
"198 516 OFFCURVE",
"268 600 OFFCURVE",
"402 600 CURVE SMOOTH",
"536 600 OFFCURVE",
"606 516 OFFCURVE",
"606 355 CURVE SMOOTH",
"606 194 OFFCURVE",
"536 110 OFFCURVE",
"402 110 CURVE SMOOTH"
);
}
);
};
layerId = "3F6440D7-FC3E-4965-8B72-FDD88F2A8137";
paths = (
{
closed = 1;
nodes = (
"202 725 OFFCURVE",
"99 626 OFFCURVE",
"69 488 CURVE",
"225 488 LINE",
"237 524 OFFCURVE",
"273 602 OFFCURVE",
"394 602 CURVE SMOOTH",
"530 602 OFFCURVE",
"597 532 OFFCURVE",
"597 353 CURVE SMOOTH",
"597 199 OFFCURVE",
"540 106 OFFCURVE",
"399 106 CURVE SMOOTH",
"283 106 OFFCURVE",
"214 174 OFFCURVE",
"214 299 CURVE SMOOTH",
"214 318 LINE",
"197 274 LINE",
"631 274 LINE",
"631 384 LINE",
"55 384 LINE",
"55 321 LINE SMOOTH",
"55 113 OFFCURVE",
"177 -15 OFFCURVE",
"397 -15 CURVE SMOOTH",
"614 -15 OFFCURVE",
"749 111 OFFCURVE",
"749 356 CURVE SMOOTH",
"749 582 OFFCURVE",
"634 725 OFFCURVE",
"393 725 CURVE SMOOTH"
);
}
);
width = 804;
}
);
leftMetricsKey = O;
rightMetricsKey = O;
unicode = 018F;
},
{
glyphname = T;
lastChange = "2017-08-30 09:00:31 +0000";
layers = (
{
anchors = (
{
name = bottom;
position = "{309, 0}";
},
{
name = top;
position = "{306, 710}";
}
);
background = {
anchors = (
{
name = bottom;
position = "{309, 0}";
},
{
name = top;
position = "{306, 710}";
}
);
paths = (
{
closed = 1;
nodes = (
"15 710 LINE",
"15 585 LINE",
"233 585 LINE",
"233 0 LINE",
"381 0 LINE",
"381 585 LINE",
"599 585 LINE",
"599 710 LINE"
);
}
);
};
layerId = "3F6440D7-FC3E-4965-8B72-FDD88F2A8137";
paths = (
{
closed = 1;
nodes = (
"15 710 LINE",
"15 585 LINE",
"233 585 LINE",
"233 0 LINE",
"381 0 LINE",
"381 585 LINE",
"599 585 LINE",
"599 710 LINE"
);
}
);
width = 614;
}
);
unicode = 0054;
userData = {
RMXScaler = {
source = T;
};
};
},
{
color = 4;
glyphname = Tbar;
lastChange = "2017-08-30 09:00:31 +0000";
layers = (
{
layerId = "3F6440D7-FC3E-4965-8B72-FDD88F2A8137";
paths = (
{
closed = 1;
nodes = (
"25 710 LINE",
"25 585 LINE",
"243 585 LINE",
"243 0 LINE",
"391 0 LINE",
"391 585 LINE",
"609 585 LINE",
"609 710 LINE"
);
},
{
closed = 1;
nodes = (
"534 287 LINE",
"534 400 LINE",
"100 400 LINE",
"100 287 LINE"
);
}
);
width = 634;
}
);
unicode = 0166;
},
{
glyphname = U;
lastChange = "2017-08-30 09:00:31 +0000";
layers = (
{
anchors = (
{
name = ogonek;
position = "{496, 0}";
},
{
name = top;
position = "{392, 710}";
}
);
background = {
anchors = (
{
name = ogonek;
position = "{496, 0}";
},
{
name = top;
position = "{392, 710}";
}
);
paths = (
{
closed = 1;
nodes = (
"85 710 LINE",
"85 310 LINE SMOOTH",
"85 81 OFFCURVE",
"186 -15 OFFCURVE",
"392 -15 CURVE SMOOTH",
"597 -15 OFFCURVE",
"699 81 OFFCURVE",
"699 310 CURVE SMOOTH",
"699 710 LINE",
"551 710 LINE",
"551 321 LINE SMOOTH",
"551 165 OFFCURVE",
"504 110 OFFCURVE",
"392 110 CURVE SMOOTH",
"279 110 OFFCURVE",
"233 165 OFFCURVE",
"233 321 CURVE SMOOTH",
"233 710 LINE"
);
}
);
};
layerId = "3F6440D7-FC3E-4965-8B72-FDD88F2A8137";
paths = (
{
closed = 1;
nodes = (
"85 710 LINE",
"85 310 LINE SMOOTH",
"85 81 OFFCURVE",
"186 -15 OFFCURVE",
"392 -15 CURVE SMOOTH",
"597 -15 OFFCURVE",
"699 81 OFFCURVE",
"699 310 CURVE SMOOTH",
"699 710 LINE",
"551 710 LINE",
"551 321 LINE SMOOTH",
"551 165 OFFCURVE",
"504 110 OFFCURVE",
"392 110 CURVE SMOOTH",
"279 110 OFFCURVE",
"233 165 OFFCURVE",
"233 321 CURVE SMOOTH",
"233 710 LINE"
);
}
);
width = 784;
}
);
unicode = 0055;
userData = {
RMXScaler = {
source = U;
};
};
},
{
color = 4;
glyphname = Uogonek;
lastChange = "2017-08-30 09:00:31 +0000";
layers = (
{
background = {
paths = (
{
closed = 1;
nodes = (
"551 321 LINE SMOOTH",
"551 165 OFFCURVE",
"504 110 OFFCURVE",
"392 110 CURVE SMOOTH",
"279 110 OFFCURVE",
"233 165 OFFCURVE",
"233 321 CURVE SMOOTH",
"233 710 LINE",
"85 710 LINE",
"85 310 LINE SMOOTH",
"85 89 OFFCURVE",
"179 -8 OFFCURVE",
"370 -15 CURVE",
"347 -39 OFFCURVE",
"330 -69 OFFCURVE",
"330 -106 CURVE SMOOTH",
"330 -179 OFFCURVE",
"394 -205 OFFCURVE",
"458 -205 CURVE SMOOTH",
"487 -205 OFFCURVE",
"522 -200 OFFCURVE",
"544 -191 CURVE",
"544 -107 LINE",
"528 -111 OFFCURVE",
"502 -115 OFFCURVE",
"488 -115 CURVE SMOOTH",
"462 -115 OFFCURVE",
"448 -105 OFFCURVE",
"448 -84 CURVE SMOOTH",
"448 -49 OFFCURVE",
"487 -18 OFFCURVE",
"529 5 CURVE SMOOTH",
"643 43 OFFCURVE",
"699 140 OFFCURVE",
"699 310 CURVE SMOOTH",
"699 710 LINE",
"551 710 LINE"
);
}
);
};
layerId = "3F6440D7-FC3E-4965-8B72-FDD88F2A8137";
paths = (
{
closed = 1;
nodes = (
"551 321 LINE SMOOTH",
"551 165 OFFCURVE",
"504 110 OFFCURVE",
"392 110 CURVE SMOOTH",
"279 110 OFFCURVE",
"233 165 OFFCURVE",
"233 321 CURVE SMOOTH",
"233 710 LINE",
"85 710 LINE",
"85 310 LINE SMOOTH",
"85 92 OFFCURVE",
"180 -7 OFFCURVE",
"365 -15 CURVE",
"375 -15 LINE",
"352 -39 OFFCURVE",
"325 -79 OFFCURVE",
"325 -126 CURVE SMOOTH",
"325 -199 OFFCURVE",
"394 -225 OFFCURVE",
"458 -225 CURVE SMOOTH",
"487 -225 OFFCURVE",
"522 -220 OFFCURVE",
"544 -211 CURVE",
"544 -127 LINE",
"528 -131 OFFCURVE",
"502 -135 OFFCURVE",
"488 -135 CURVE SMOOTH",
"462 -135 OFFCURVE",
"443 -125 OFFCURVE",
"443 -99 CURVE SMOOTH",
"443 -54 OFFCURVE",
"481 -24 OFFCURVE",
"529 1 CURVE SMOOTH",
"639 58 OFFCURVE",
"699 130 OFFCURVE",
"699 310 CURVE SMOOTH",
"699 710 LINE",
"551 710 LINE"
);
}
);
width = 784;
}
);
leftKerningGroup = U;
leftMetricsKey = U;
rightKerningGroup = U;
rightMetricsKey = U;
unicode = 0172;
},
{
glyphname = V;
lastChange = "2017-08-30 09:00:31 +0000";
layers = (
{
background = {
paths = (
{
closed = 1;
nodes = (
"350 123 LINE",
"342 123 LINE",
"163 710 LINE",
"5 710 LINE",
"242 0 LINE",
"447 0 LINE",
"684 710 LINE",
"528 710 LINE"
);
}
);
};
layerId = "3F6440D7-FC3E-4965-8B72-FDD88F2A8137";
paths = (
{
closed = 1;
nodes = (
"350 123 LINE",
"342 123 LINE",
"163 710 LINE",
"5 710 LINE",
"242 0 LINE",
"447 0 LINE",
"684 710 LINE",
"528 710 LINE"
);
}
);
width = 689;
}
);
unicode = 0056;
userData = {
RMXScaler = {
source = V;
};
};
},
{
glyphname = W;
lastChange = "2017-08-30 09:00:31 +0000";
layers = (
{
anchors = (
{
name = top;
position = "{518, 710}";
}
);
background = {
anchors = (
{
name = top;
position = "{518, 710}";
}
);
paths = (
{
closed = 1;
nodes = (
"741 127 LINE",
"733 127 LINE",
"600 710 LINE",
"439 710 LINE",
"308 127 LINE",
"300 127 LINE",
"168 710 LINE",
"10 710 LINE",
"191 0 LINE",
"401 0 LINE",
"516 539 LINE",
"522 539 LINE",
"638 0 LINE",
"848 0 LINE",
"1029 710 LINE",
"871 710 LINE"
);
}
);
};
layerId = "3F6440D7-FC3E-4965-8B72-FDD88F2A8137";
paths = (
{
closed = 1;
nodes = (
"741 127 LINE",
"733 127 LINE",
"600 710 LINE",
"439 710 LINE",
"308 127 LINE",
"300 127 LINE",
"168 710 LINE",
"10 710 LINE",
"191 0 LINE",
"401 0 LINE",
"516 539 LINE",
"522 539 LINE",
"638 0 LINE",
"848 0 LINE",
"1029 710 LINE",
"871 710 LINE"
);
}
);
width = 1039;
}
);
unicode = 0057;
userData = {
RMXScaler = {
source = W;
};
};
},
{
glyphname = X;
lastChange = "2017-08-30 09:00:31 +0000";
layers = (
{
background = {
paths = (
{
closed = 1;
nodes = (
"175 0 LINE",
"375 318 LINE",
"425 318 LINE",
"678 710 LINE",
"519 710 LINE",
"319 394 LINE",
"269 394 LINE",
"15 0 LINE"
);
},
{
closed = 1;
nodes = (
"678 0 LINE",
"397 445 LINE",
"347 445 LINE",
"175 710 LINE",
"15 710 LINE",
"297 267 LINE",
"348 267 LINE",
"519 0 LINE"
);
}
);
};
layerId = "3F6440D7-FC3E-4965-8B72-FDD88F2A8137";
paths = (
{
closed = 1;
nodes = (
"175 0 LINE",
"375 318 LINE",
"425 318 LINE",
"678 710 LINE",
"519 710 LINE",
"319 394 LINE",
"269 394 LINE",
"15 0 LINE"
);
},
{
closed = 1;
nodes = (
"678 0 LINE",
"397 445 LINE",
"347 445 LINE",
"175 710 LINE",
"15 710 LINE",
"297 267 LINE",
"348 267 LINE",
"519 0 LINE"
);
}
);
width = 693;
}
);
unicode = 0058;
userData = {
RMXScaler = {
source = X;
};
};
},
{
glyphname = Y;
lastChange = "2017-08-30 09:00:31 +0000";
layers = (
{
anchors = (
{
name = top;
position = "{356, 710}";
}
);
background = {
anchors = (
{
name = top;
position = "{356, 710}";
}
);
paths = (
{
closed = 1;
nodes = (
"430 0 LINE",
"430 302 LINE",
"423 245 LINE",
"709 710 LINE",
"547 710 LINE",
"360 403 LINE",
"354 403 LINE",
"165 710 LINE",
"2 710 LINE",
"288 245 LINE",
"282 302 LINE",
"282 0 LINE"
);
}
);
};
layerId = "3F6440D7-FC3E-4965-8B72-FDD88F2A8137";
paths = (
{
closed = 1;
nodes = (
"430 0 LINE",
"430 302 LINE",
"423 245 LINE",
"709 710 LINE",
"547 710 LINE",
"360 403 LINE",
"354 403 LINE",
"165 710 LINE",
"2 710 LINE",
"288 245 LINE",
"282 302 LINE",
"282 0 LINE"
);
}
);
width = 711;
}
);
unicode = 0059;
userData = {
RMXScaler = {
source = Y;
};
};
},
{
glyphname = Z;
lastChange = "2017-08-30 09:00:31 +0000";
layers = (
{
anchors = (
{
name = top;
position = "{346, 710}";
}
);
background = {
anchors = (
{
name = top;
position = "{346, 710}";
}
);
paths = (
{
closed = 1;
nodes = (
"244 131 LINE",
"616 590 LINE",
"616 710 LINE",
"76 710 LINE",
"76 586 LINE",
"437 586 LINE",
"437 580 LINE",
"65 120 LINE",
"65 0 LINE",
"616 0 LINE",
"616 125 LINE",
"244 125 LINE"
);
}
);
};
layerId = "3F6440D7-FC3E-4965-8B72-FDD88F2A8137";
paths = (
{
closed = 1;
nodes = (
"244 131 LINE",
"616 590 LINE",
"616 710 LINE",
"76 710 LINE",
"76 586 LINE",
"437 586 LINE",
"437 580 LINE",
"65 120 LINE",
"65 0 LINE",
"616 0 LINE",
"616 125 LINE",
"244 125 LINE"
);
}
);
width = 681;
}
);
unicode = 005A;
userData = {
RMXScaler = {
source = Z;
};
};
},
{
color = 4;
glyphname = J.alt;
lastChange = "2017-08-30 09:00:31 +0000";
layers = (
{
anchors = (
{
name = top;
position = "{489, 710}";
}
);
background = {
paths = (
{
closed = 1;
nodes = (
"482 -15 OFFCURVE",
"561 77 OFFCURVE",
"561 279 CURVE SMOOTH",
"561 710 LINE",
"413 710 LINE",
"413 254 LINE SMOOTH",
"413 157 OFFCURVE",
"382 110 OFFCURVE",
"295 110 CURVE SMOOTH",
"210 110 OFFCURVE",
"184 157 OFFCURVE",
"159 242 CURVE",
"10 242 LINE",
"37 82 OFFCURVE",
"123 -15 OFFCURVE",
"294 -15 CURVE SMOOTH"
);
},
{
closed = 1;
nodes = (
"488 586 LINE",
"488 710 LINE",
"173 710 LINE",
"173 586 LINE"
);
}
);
};
layerId = "3F6440D7-FC3E-4965-8B72-FDD88F2A8137";
paths = (
{
closed = 1;
nodes = (
"488 586 LINE",
"488 710 LINE",
"183 710 LINE",
"183 586 LINE"
);
},
{
closed = 1;
nodes = (
"472 -15 OFFCURVE",
"561 67 OFFCURVE",
"561 269 CURVE SMOOTH",
"561 710 LINE",
"413 710 LINE",
"413 254 LINE SMOOTH",
"413 157 OFFCURVE",
"377 110 OFFCURVE",
"295 110 CURVE SMOOTH",
"210 110 OFFCURVE",
"174 147 OFFCURVE",
"164 242 CURVE",
"15 242 LINE",
"22 72 OFFCURVE",
"118 -15 OFFCURVE",
"289 -15 CURVE SMOOTH"
);
}
);
width = 646;
}
);
rightMetricsKey = U;
userData = {
RMXScaler = {
source = J;
};
};
},
{
color = 4;
glyphname = K.alt;
lastChange = "2017-08-30 09:00:31 +0000";
layers = (
{
anchors = (
{
name = bottom;
position = "{379, 0}";
}
);
background = {
paths = (
{
closed = 1;
nodes = (
"568 419 LINE",
"243 419 LINE",
"243 710 LINE",
"95 710 LINE",
"95 0 LINE",
"243 0 LINE",
"243 295 LINE",
"568 295 LINE",
"568 0 LINE",
"716 0 LINE",
"716 710 LINE",
"568 710 LINE"
);
}
);
};
layerId = "3F6440D7-FC3E-4965-8B72-FDD88F2A8137";
paths = (
{
closed = 1;
nodes = (
"384 295 LINE",
"696 710 LINE",
"523 710 LINE",
"309 419 LINE",
"224 419 LINE",
"224 295 LINE"
);
},
{
closed = 1;
nodes = (
"243 0 LINE",
"243 710 LINE",
"95 710 LINE",
"95 0 LINE"
);
},
{
closed = 1;
nodes = (
"701 0 LINE",
"387 414 LINE",
"268 343 LINE",
"528 0 LINE"
);
}
);
width = 716;
}
);
leftMetricsKey = H;
userData = {
RMXScaler = {
source = K;
};
};
},
{
color = 4;
glyphname = a;
lastChange = "2017-08-30 09:00:31 +0000";
layers = (
{
anchors = (
{
name = ogonek;
position = "{509, 0}";
},
{
name = top;
position = "{312, 525}";
}
);
background = {
anchors = (
{
name = ogonek;
position = "{509, 0}";
},
{
name = top;
position = "{312, 525}";
}
);
paths = (
{
closed = 1;
nodes = (
"419 314 LINE",
"240 301 LINE SMOOTH",
"98 291 OFFCURVE",
"32 235 OFFCURVE",
"32 132 CURVE SMOOTH",
"32 51 OFFCURVE",
"83 -13 OFFCURVE",
"210 -13 CURVE SMOOTH",
"285 -13 OFFCURVE",
"346 23 OFFCURVE",
"369 79 CURVE",
"356 72 LINE",
"383 72 LINE",
"372 81 LINE",
"374 0 LINE",
"485 0 LINE",
"535 316 LINE SMOOTH",
"539 342 OFFCURVE",
"541 360 OFFCURVE",
"541 382 CURVE SMOOTH",
"541 496 OFFCURVE",
"463 540 OFFCURVE",
"333 540 CURVE SMOOTH",
"188 540 OFFCURVE",
"117 476 OFFCURVE",
"85 360 CURVE",
"227 360 LINE",
"243 411 OFFCURVE",
"267 432 OFFCURVE",
"332 432 CURVE SMOOTH",
"383 432 OFFCURVE",
"408 413 OFFCURVE",
"408 372 CURVE SMOOTH",
"408 361 OFFCURVE",
"406 347 OFFCURVE",
"404 334 CURVE SMOOTH",
"382 194 LINE SMOOTH",
"372 129 OFFCURVE",
"324 89 OFFCURVE",
"254 89 CURVE SMOOTH",
"201 89 OFFCURVE",
"174 109 OFFCURVE",
"174 148 CURVE SMOOTH",
"174 187 OFFCURVE",
"201 211 OFFCURVE",
"248 215 CURVE SMOOTH",
"405 228 LINE"
);
}
);
};
layerId = "3F6440D7-FC3E-4965-8B72-FDD88F2A8137";
paths = (
{
closed = 1;
nodes = (
"419 314 LINE",
"240 301 LINE SMOOTH",
"98 291 OFFCURVE",
"32 235 OFFCURVE",
"32 132 CURVE SMOOTH",
"32 51 OFFCURVE",
"83 -13 OFFCURVE",
"210 -13 CURVE SMOOTH",
"285 -13 OFFCURVE",
"346 23 OFFCURVE",
"369 79 CURVE",
"356 72 LINE",
"383 72 LINE",
"372 81 LINE",
"374 0 LINE",
"485 0 LINE",
"535 316 LINE SMOOTH",
"539 342 OFFCURVE",
"541 360 OFFCURVE",
"541 382 CURVE SMOOTH",
"541 496 OFFCURVE",
"463 540 OFFCURVE",
"333 540 CURVE SMOOTH",
"188 540 OFFCURVE",
"117 476 OFFCURVE",
"85 360 CURVE",
"227 360 LINE",
"243 411 OFFCURVE",
"267 432 OFFCURVE",
"332 432 CURVE SMOOTH",
"383 432 OFFCURVE",
"408 413 OFFCURVE",
"408 372 CURVE SMOOTH",
"408 361 OFFCURVE",
"406 347 OFFCURVE",
"404 334 CURVE SMOOTH",
"382 194 LINE SMOOTH",
"372 129 OFFCURVE",
"324 89 OFFCURVE",
"254 89 CURVE SMOOTH",
"201 89 OFFCURVE",
"174 109 OFFCURVE",
"174 148 CURVE SMOOTH",
"174 187 OFFCURVE",
"201 211 OFFCURVE",
"248 215 CURVE SMOOTH",
"405 228 LINE"
);
}
);
width = 597;
}
);
rightMetricsKey = n;
unicode = 0061;
userData = {
RMXScaler = {
source = a;
};
};
},
{
color = 4;
glyphname = ae;
lastChange = "2017-08-30 09:00:31 +0000";
layers = (
{
anchors = (
{
name = top;
position = "{476, 525}";
}
);
background = {
paths = (
{
closed = 1;
nodes = (
"414 320 LINE",
"238 300 LINE SMOOTH",
"109 285 OFFCURVE",
"53 240 OFFCURVE",
"53 142 CURVE SMOOTH",
"53 50 OFFCURVE",
"108 -13 OFFCURVE",
"235 -13 CURVE SMOOTH",
"321 -13 OFFCURVE",
"383 17 OFFCURVE",
"399 79 CURVE",
"387 72 LINE",
"414 72 LINE",
"402 81 LINE",
"417 0 LINE",
"531 0 LINE",
"531 354 LINE SMOOTH",
"531 481 OFFCURVE",
"454 540 OFFCURVE",
"314 540 CURVE SMOOTH",
"158 540 OFFCURVE",
"92 479 OFFCURVE",
"78 360 CURVE",
"220 360 LINE",
"228 411 OFFCURVE",
"248 432 OFFCURVE",
"311 432 CURVE SMOOTH",
"375 432 OFFCURVE",
"397 403 OFFCURVE",
"397 342 CURVE SMOOTH",
"397 208 LINE SMOOTH",
"397 142 OFFCURVE",
"367 89 OFFCURVE",
"280 89 CURVE SMOOTH",
"213 89 OFFCURVE",
"193 114 OFFCURVE",
"193 153 CURVE SMOOTH",
"193 186 OFFCURVE",
"213 208 OFFCURVE",
"258 214 CURVE SMOOTH",
"414 234 LINE"
);
}
);
};
layerId = "3F6440D7-FC3E-4965-8B72-FDD88F2A8137";
paths = (
{
closed = 1;
nodes = (
"399 -15 OFFCURVE",
"470 39 OFFCURVE",
"486 121 CURVE",
"526 121 LINE",
"526 354 LINE SMOOTH",
"526 461 OFFCURVE",
"448 540 OFFCURVE",
"308 540 CURVE SMOOTH",
"158 540 OFFCURVE",
"92 476 OFFCURVE",
"78 360 CURVE",
"220 360 LINE",
"227 404 OFFCURVE",
"242 432 OFFCURVE",
"311 432 CURVE SMOOTH",
"375 432 OFFCURVE",
"397 403 OFFCURVE",
"397 342 CURVE SMOOTH",
"397 208 LINE SMOOTH",
"397 142 OFFCURVE",
"367 89 OFFCURVE",
"280 89 CURVE SMOOTH",
"213 89 OFFCURVE",
"193 114 OFFCURVE",
"193 153 CURVE SMOOTH",
"193 186 OFFCURVE",
"213 209 OFFCURVE",
"258 214 CURVE SMOOTH",
"402 232 LINE SMOOTH",
"442 237 OFFCURVE",
"479 263 OFFCURVE",
"482 302 CURVE",
"482 363 LINE",
"455 363 LINE",
"453 338 OFFCURVE",
"439 322 OFFCURVE",
"402 318 CURVE SMOOTH",
"238 300 LINE SMOOTH",
"109 286 OFFCURVE",
"53 240 OFFCURVE",
"53 142 CURVE SMOOTH",
"53 30 OFFCURVE",
"146 -15 OFFCURVE",
"273 -15 CURVE SMOOTH"
);
},
{
closed = 1;
nodes = (
"792 -15 OFFCURVE",
"870 39 OFFCURVE",
"890 147 CURVE",
"749 147 LINE",
"739 115 OFFCURVE",
"713 95 OFFCURVE",
"650 95 CURVE SMOOTH",
"564 95 OFFCURVE",
"527 143 OFFCURVE",
"527 262 CURVE SMOOTH",
"527 376 OFFCURVE",
"554 429 OFFCURVE",
"645 429 CURVE SMOOTH",
"726 429 OFFCURVE",
"755 391 OFFCURVE",
"755 306 CURVE SMOOTH",
"755 287 LINE",
"772 311 LINE",
"493 311 LINE",
"493 221 LINE",
"894 221 LINE",
"894 284 LINE SMOOTH",
"894 442 OFFCURVE",
"817 540 OFFCURVE",
"647 540 CURVE SMOOTH",
"490 540 OFFCURVE",
"400 444 OFFCURVE",
"400 259 CURVE SMOOTH",
"400 93 OFFCURVE",
"470 -15 OFFCURVE",
"651 -15 CURVE SMOOTH"
);
}
);
width = 944;
}
);
leftMetricsKey = a;
rightMetricsKey = e;
unicode = 00E6;
},
{
glyphname = b;
lastChange = "2017-08-30 09:00:31 +0000";
layers = (
{
background = {
paths = (
{
closed = 1;
nodes = (
"83 750 LINE",
"83 0 LINE",
"206 0 LINE",
"221 85 LINE",
"228 85 LINE",
"259 19 OFFCURVE",
"315 -14 OFFCURVE",
"389 -14 CURVE SMOOTH",
"532 -14 OFFCURVE",
"618 90 OFFCURVE",
"618 263 CURVE SMOOTH",
"618 436 OFFCURVE",
"532 540 OFFCURVE",
"389 540 CURVE SMOOTH",
"315 540 OFFCURVE",
"259 508 OFFCURVE",
"228 446 CURVE",
"223 446 LINE",
"223 750 LINE"
);
},
{
closed = 1;
nodes = (
"266 106 OFFCURVE",
"223 161 OFFCURVE",
"223 263 CURVE SMOOTH",
"223 365 OFFCURVE",
"266 420 OFFCURVE",
"347 420 CURVE SMOOTH",
"432 420 OFFCURVE",
"473 370 OFFCURVE",
"473 263 CURVE SMOOTH",
"473 156 OFFCURVE",
"432 106 OFFCURVE",
"347 106 CURVE SMOOTH"
);
}
);
};
layerId = "3F6440D7-FC3E-4965-8B72-FDD88F2A8137";
paths = (
{
closed = 1;
nodes = (
"83 750 LINE",
"83 0 LINE",
"206 0 LINE",
"221 85 LINE",
"228 85 LINE",
"259 19 OFFCURVE",
"315 -14 OFFCURVE",
"389 -14 CURVE SMOOTH",
"532 -14 OFFCURVE",
"618 90 OFFCURVE",
"618 263 CURVE SMOOTH",
"618 436 OFFCURVE",
"532 540 OFFCURVE",
"389 540 CURVE SMOOTH",
"315 540 OFFCURVE",
"259 508 OFFCURVE",
"228 446 CURVE",
"223 446 LINE",
"223 750 LINE"
);
},
{
closed = 1;
nodes = (
"266 106 OFFCURVE",
"223 161 OFFCURVE",
"223 263 CURVE SMOOTH",
"223 365 OFFCURVE",
"266 420 OFFCURVE",
"347 420 CURVE SMOOTH",
"432 420 OFFCURVE",
"473 370 OFFCURVE",
"473 263 CURVE SMOOTH",
"473 156 OFFCURVE",
"432 106 OFFCURVE",
"347 106 CURVE SMOOTH"
);
}
);
width = 668;
}
);
leftMetricsKey = h;
rightMetricsKey = o;
unicode = 0062;
userData = {
RMXScaler = {
source = b;
};
};
},
{
glyphname = c;
lastChange = "2017-08-30 09:00:31 +0000";
layers = (
{
anchors = (
{
name = bottom;
position = "{309, 0}";
},
{
name = top;
position = "{309, 525}";
}
);
background = {
anchors = (
{
name = bottom;
position = "{309, 0}";
},
{
name = top;
position = "{309, 525}";
}
);
paths = (
{
closed = 1;
nodes = (
"473 -15 OFFCURVE",
"546 53 OFFCURVE",
"557 190 CURVE",
"414 190 LINE",
"406 124 OFFCURVE",
"377 100 OFFCURVE",
"309 100 CURVE SMOOTH",
"227 100 OFFCURVE",
"196 160 OFFCURVE",
"196 264 CURVE SMOOTH",
"196 368 OFFCURVE",
"226 425 OFFCURVE",
"309 425 CURVE SMOOTH",
"373 425 OFFCURVE",
"405 397 OFFCURVE",
"414 335 CURVE",
"557 335 LINE",
"546 470 OFFCURVE",
"470 540 OFFCURVE",
"309 540 CURVE SMOOTH",
"142 540 OFFCURVE",
"50 439 OFFCURVE",
"50 264 CURVE SMOOTH",
"50 88 OFFCURVE",
"142 -15 OFFCURVE",
"309 -15 CURVE SMOOTH"
);
}
);
};
layerId = "3F6440D7-FC3E-4965-8B72-FDD88F2A8137";
paths = (
{
closed = 1;
nodes = (
"473 -15 OFFCURVE",
"546 53 OFFCURVE",
"557 190 CURVE",
"414 190 LINE",
"406 124 OFFCURVE",
"377 100 OFFCURVE",
"309 100 CURVE SMOOTH",
"227 100 OFFCURVE",
"196 160 OFFCURVE",
"196 264 CURVE SMOOTH",
"196 368 OFFCURVE",
"226 425 OFFCURVE",
"309 425 CURVE SMOOTH",
"373 425 OFFCURVE",
"405 397 OFFCURVE",
"414 335 CURVE",
"557 335 LINE",
"546 470 OFFCURVE",
"470 540 OFFCURVE",
"309 540 CURVE SMOOTH",
"142 540 OFFCURVE",
"50 439 OFFCURVE",
"50 264 CURVE SMOOTH",
"50 88 OFFCURVE",
"142 -15 OFFCURVE",
"309 -15 CURVE SMOOTH"
);
}
);
width = 607;
}
);
leftMetricsKey = o;
rightMetricsKey = o;
unicode = 0063;
userData = {
RMXScaler = {
source = c;
};
};
},
{
color = 4;
glyphname = d;
lastChange = "2017-08-30 09:00:31 +0000";
layers = (
{
anchors = (
{
name = topright;
position = "{679, 525}";
}
);
background = {
anchors = (
{
name = topright;
position = "{679, 525}";
}
);
paths = (
{
closed = 1;
nodes = (
"310 -14 OFFCURVE",
"373 19 OFFCURVE",
"413 85 CURVE",
"420 85 LINE",
"421 0 LINE",
"542 0 LINE",
"661 750 LINE",
"521 750 LINE",
"471 441 LINE",
"466 441 LINE",
"447 507 OFFCURVE",
"393 540 OFFCURVE",
"313 540 CURVE SMOOTH",
"147 540 OFFCURVE",
"48 393 OFFCURVE",
"48 205 CURVE SMOOTH",
"48 64 OFFCURVE",
"117 -14 OFFCURVE",
"240 -14 CURVE SMOOTH"
);
},
{
closed = 1;
nodes = (
"226 106 OFFCURVE",
"190 140 OFFCURVE",
"190 218 CURVE SMOOTH",
"190 327 OFFCURVE",
"232 420 OFFCURVE",
"337 420 CURVE SMOOTH",
"410 420 OFFCURVE",
"446 386 OFFCURVE",
"446 308 CURVE SMOOTH",
"446 199 OFFCURVE",
"404 106 OFFCURVE",
"299 106 CURVE SMOOTH"
);
}
);
};
guideLines = (
{
position = "{964, 418}";
}
);
layerId = "3F6440D7-FC3E-4965-8B72-FDD88F2A8137";
paths = (
{
closed = 1;
nodes = (
"310 -14 OFFCURVE",
"373 19 OFFCURVE",
"413 85 CURVE",
"420 85 LINE",
"421 0 LINE",
"542 0 LINE",
"661 750 LINE",
"521 750 LINE",
"471 441 LINE",
"466 441 LINE",
"447 507 OFFCURVE",
"393 540 OFFCURVE",
"313 540 CURVE SMOOTH",
"147 540 OFFCURVE",
"48 393 OFFCURVE",
"48 205 CURVE SMOOTH",
"48 64 OFFCURVE",
"117 -14 OFFCURVE",
"240 -14 CURVE SMOOTH"
);
},
{
closed = 1;
nodes = (
"226 106 OFFCURVE",
"190 140 OFFCURVE",
"190 218 CURVE SMOOTH",
"190 327 OFFCURVE",
"232 420 OFFCURVE",
"337 420 CURVE SMOOTH",
"410 420 OFFCURVE",
"446 386 OFFCURVE",
"446 308 CURVE SMOOTH",
"446 199 OFFCURVE",
"404 106 OFFCURVE",
"299 106 CURVE SMOOTH"
);
}
);
width = 649;
}
);
leftMetricsKey = o;
rightMetricsKey = "=|h";
unicode = 0064;
userData = {
RMXScaler = {
source = d;
};
};
},
{
color = 4;
glyphname = eth;
lastChange = "2017-08-30 09:00:31 +0000";
layers = (
{
background = {
paths = (
{
closed = 1;
nodes = (
"534 656 LINE",
"534 741 LINE",
"173 626 LINE",
"173 541 LINE"
);
},
{
closed = 1;
nodes = (
"172 750 LINE",
"307 622 OFFCURVE",
"400 516 OFFCURVE",
"434 427 CURVE",
"429 427 LINE",
"398 473 OFFCURVE",
"354 510 OFFCURVE",
"276 510 CURVE SMOOTH",
"139 510 OFFCURVE",
"50 409 OFFCURVE",
"50 253 CURVE SMOOTH",
"50 89 OFFCURVE",
"145 -15 OFFCURVE",
"316 -15 CURVE SMOOTH",
"484 -15 OFFCURVE",
"584 81 OFFCURVE",
"584 277 CURVE SMOOTH",
"584 492 OFFCURVE",
"470 634 OFFCURVE",
"332 750 CURVE"
);
},
{
closed = 1;
nodes = (
"231 100 OFFCURVE",
"195 157 OFFCURVE",
"195 253 CURVE SMOOTH",
"195 343 OFFCURVE",
"231 400 OFFCURVE",
"317 400 CURVE SMOOTH",
"403 400 OFFCURVE",
"439 345 OFFCURVE",
"439 253 CURVE SMOOTH",
"439 157 OFFCURVE",
"403 100 OFFCURVE",
"317 100 CURVE SMOOTH"
);
}
);
};
layerId = "3F6440D7-FC3E-4965-8B72-FDD88F2A8137";
paths = (
{
closed = 1;
nodes = (
"534 656 LINE",
"534 741 LINE",
"173 626 LINE",
"173 541 LINE"
);
},
{
closed = 1;
nodes = (
"172 750 LINE",
"307 622 OFFCURVE",
"400 516 OFFCURVE",
"434 427 CURVE",
"429 427 LINE",
"398 473 OFFCURVE",
"354 510 OFFCURVE",
"276 510 CURVE SMOOTH",
"139 510 OFFCURVE",
"50 409 OFFCURVE",
"50 253 CURVE SMOOTH",
"50 89 OFFCURVE",
"145 -15 OFFCURVE",
"316 -15 CURVE SMOOTH",
"484 -15 OFFCURVE",
"584 81 OFFCURVE",
"584 277 CURVE SMOOTH",
"584 492 OFFCURVE",
"470 634 OFFCURVE",
"322 750 CURVE"
);
},
{
closed = 1;
nodes = (
"231 100 OFFCURVE",
"195 157 OFFCURVE",
"195 253 CURVE SMOOTH",
"195 343 OFFCURVE",
"231 400 OFFCURVE",
"317 400 CURVE SMOOTH",
"403 400 OFFCURVE",
"439 345 OFFCURVE",
"439 253 CURVE SMOOTH",
"439 157 OFFCURVE",
"403 100 OFFCURVE",
"317 100 CURVE SMOOTH"
);
}
);
width = 634;
}
);
leftMetricsKey = o;
rightMetricsKey = o;
unicode = 00F0;
},
{
color = 4;
glyphname = dcroat;
lastChange = "2017-08-30 09:00:31 +0000";
layers = (
{
background = {
paths = (
{
closed = 1;
nodes = (
"303 604 LINE",
"663 604 LINE",
"663 699 LINE",
"303 699 LINE"
);
},
{
closed = 1;
nodes = (
"445 446 LINE",
"440 446 LINE",
"409 508 OFFCURVE",
"353 540 OFFCURVE",
"279 540 CURVE SMOOTH",
"136 540 OFFCURVE",
"50 436 OFFCURVE",
"50 263 CURVE SMOOTH",
"50 90 OFFCURVE",
"136 -14 OFFCURVE",
"279 -14 CURVE SMOOTH",
"353 -14 OFFCURVE",
"409 19 OFFCURVE",
"440 85 CURVE",
"447 85 LINE",
"462 0 LINE",
"585 0 LINE",
"585 750 LINE",
"445 750 LINE"
);
},
{
closed = 1;
nodes = (
"236 106 OFFCURVE",
"195 156 OFFCURVE",
"195 263 CURVE SMOOTH",
"195 370 OFFCURVE",
"236 420 OFFCURVE",
"321 420 CURVE SMOOTH",
"402 420 OFFCURVE",
"445 365 OFFCURVE",
"445 263 CURVE SMOOTH",
"445 161 OFFCURVE",
"402 106 OFFCURVE",
"321 106 CURVE SMOOTH"
);
}
);
};
layerId = "3F6440D7-FC3E-4965-8B72-FDD88F2A8137";
paths = (
{
closed = 1;
nodes = (
"265 574 LINE",
"665 574 LINE",
"665 669 LINE",
"265 669 LINE"
);
},
{
closed = 1;
nodes = (
"445 436 LINE",
"440 436 LINE",
"409 488 OFFCURVE",
"353 520 OFFCURVE",
"279 520 CURVE SMOOTH",
"136 520 OFFCURVE",
"50 426 OFFCURVE",
"50 263 CURVE SMOOTH",
"50 90 OFFCURVE",
"136 -14 OFFCURVE",
"279 -14 CURVE SMOOTH",
"353 -14 OFFCURVE",
"409 19 OFFCURVE",
"440 85 CURVE",
"447 85 LINE",
"462 0 LINE",
"585 0 LINE",
"585 750 LINE",
"445 750 LINE"
);
},
{
closed = 1;
nodes = (
"236 106 OFFCURVE",
"195 156 OFFCURVE",
"195 263 CURVE SMOOTH",
"195 360 OFFCURVE",
"236 410 OFFCURVE",
"321 410 CURVE SMOOTH",
"402 410 OFFCURVE",
"445 355 OFFCURVE",
"445 263 CURVE SMOOTH",
"445 161 OFFCURVE",
"402 106 OFFCURVE",
"321 106 CURVE SMOOTH"
);
}
);
width = 665;
}
);
leftMetricsKey = d;
unicode = 0111;
},
{
color = 4;
glyphname = e;
lastChange = "2017-08-30 09:00:31 +0000";
layers = (
{
anchors = (
{
name = ogonek;
position = "{409, 0}";
},
{
name = top;
position = "{314, 525}";
}
);
background = {
anchors = (
{
name = ogonek;
position = "{409, 0}";
},
{
name = top;
position = "{314, 525}";
}
);
paths = (
{
closed = 1;
nodes = (
"436 -15 OFFCURVE",
"508 49 OFFCURVE",
"541 147 CURVE",
"400 147 LINE",
"383 111 OFFCURVE",
"353 95 OFFCURVE",
"297 95 CURVE SMOOTH",
"221 95 OFFCURVE",
"189 130 OFFCURVE",
"189 205 CURVE SMOOTH",
"189 222 OFFCURVE",
"191 241 OFFCURVE",
"197 286 CURVE SMOOTH",
"211 383 OFFCURVE",
"255 429 OFFCURVE",
"335 429 CURVE SMOOTH",
"399 429 OFFCURVE",
"430 400 OFFCURVE",
"430 339 CURVE SMOOTH",
"430 328 OFFCURVE",
"427 303 OFFCURVE",
"423 287 CURVE",
"444 311 LINE",
"168 311 LINE",
"153 221 LINE",
"551 221 LINE",
"557 254 LINE SMOOTH",
"562 284 OFFCURVE",
"566 309 OFFCURVE",
"566 334 CURVE SMOOTH",
"566 468 OFFCURVE",
"485 540 OFFCURVE",
"336 540 CURVE SMOOTH",
"137 540 OFFCURVE",
"49 395 OFFCURVE",
"49 210 CURVE SMOOTH",
"49 65 OFFCURVE",
"129 -15 OFFCURVE",
"288 -15 CURVE SMOOTH"
);
}
);
};
guideLines = (
{
angle = 91.7357;
position = "{541, 225}";
}
);
layerId = "3F6440D7-FC3E-4965-8B72-FDD88F2A8137";
paths = (
{
closed = 1;
nodes = (
"436 -15 OFFCURVE",
"508 49 OFFCURVE",
"541 147 CURVE",
"400 147 LINE",
"383 111 OFFCURVE",
"353 95 OFFCURVE",
"297 95 CURVE SMOOTH",
"221 95 OFFCURVE",
"189 130 OFFCURVE",
"189 205 CURVE SMOOTH",
"189 222 OFFCURVE",
"191 241 OFFCURVE",
"197 286 CURVE SMOOTH",
"211 383 OFFCURVE",
"255 429 OFFCURVE",
"335 429 CURVE SMOOTH",
"399 429 OFFCURVE",
"430 400 OFFCURVE",
"430 339 CURVE SMOOTH",
"430 328 OFFCURVE",
"427 303 OFFCURVE",
"423 287 CURVE",
"444 311 LINE",
"168 311 LINE",
"153 221 LINE",
"551 221 LINE",
"557 254 LINE SMOOTH",
"562 284 OFFCURVE",
"566 309 OFFCURVE",
"566 334 CURVE SMOOTH",
"566 468 OFFCURVE",
"485 540 OFFCURVE",
"336 540 CURVE SMOOTH",
"137 540 OFFCURVE",
"49 395 OFFCURVE",
"49 210 CURVE SMOOTH",
"49 65 OFFCURVE",
"129 -15 OFFCURVE",
"288 -15 CURVE SMOOTH"
);
}
);
width = 608;
}
);
leftMetricsKey = o;
rightMetricsKey = o;
unicode = 0065;
userData = {
RMXScaler = {
source = e;
};
};
},
{
color = 4;
glyphname = eogonek;
lastChange = "2017-08-30 09:00:31 +0000";
layers = (
{
background = {
paths = (
{
closed = 1;
nodes = (
"472 -15 OFFCURVE",
"535 49 OFFCURVE",
"555 147 CURVE",
"414 147 LINE",
"402 111 OFFCURVE",
"376 95 OFFCURVE",
"315 95 CURVE SMOOTH",
"229 95 OFFCURVE",
"192 143 OFFCURVE",
"192 262 CURVE SMOOTH",
"192 376 OFFCURVE",
"219 429 OFFCURVE",
"310 429 CURVE SMOOTH",
"391 429 OFFCURVE",
"420 391 OFFCURVE",
"420 306 CURVE SMOOTH",
"420 287 LINE",
"437 311 LINE",
"158 311 LINE",
"158 221 LINE",
"559 221 LINE",
"559 284 LINE SMOOTH",
"559 442 OFFCURVE",
"482 540 OFFCURVE",
"312 540 CURVE SMOOTH",
"155 540 OFFCURVE",
"50 444 OFFCURVE",
"50 259 CURVE SMOOTH",
"50 93 OFFCURVE",
"135 -15 OFFCURVE",
"316 -15 CURVE SMOOTH"
);
},
{
closed = 1;
nodes = (
"338 34 OFFCURVE",
"221 -9 OFFCURVE",
"221 -106 CURVE SMOOTH",
"221 -179 OFFCURVE",
"285 -205 OFFCURVE",
"349 -205 CURVE SMOOTH",
"378 -205 OFFCURVE",
"413 -200 OFFCURVE",
"435 -191 CURVE",
"435 -107 LINE",
"419 -111 OFFCURVE",
"393 -115 OFFCURVE",
"379 -115 CURVE SMOOTH",
"353 -115 OFFCURVE",
"339 -105 OFFCURVE",
"339 -84 CURVE SMOOTH",
"339 -48 OFFCURVE",
"381 -23 OFFCURVE",
"425 0 CURVE",
"377 55 LINE"
);
}
);
};
layerId = "3F6440D7-FC3E-4965-8B72-FDD88F2A8137";
paths = (
{
closed = 1;
nodes = (
"501 34 OFFCURVE",
"543 72 OFFCURVE",
"555 147 CURVE",
"414 147 LINE",
"402 111 OFFCURVE",
"376 95 OFFCURVE",
"315 95 CURVE SMOOTH",
"229 95 OFFCURVE",
"192 143 OFFCURVE",
"192 262 CURVE SMOOTH",
"192 376 OFFCURVE",
"219 429 OFFCURVE",
"310 429 CURVE SMOOTH",
"391 429 OFFCURVE",
"420 391 OFFCURVE",
"420 306 CURVE SMOOTH",
"420 287 LINE",
"437 311 LINE",
"158 311 LINE",
"158 221 LINE",
"559 221 LINE",
"559 284 LINE SMOOTH",
"559 442 OFFCURVE",
"482 540 OFFCURVE",
"312 540 CURVE SMOOTH",
"155 540 OFFCURVE",
"50 444 OFFCURVE",
"50 259 CURVE SMOOTH",
"50 106 OFFCURVE",
"122 2 OFFCURVE",
"290 -13 CURVE",
"290 -17 LINE",
"264 -36 OFFCURVE",
"231 -80 OFFCURVE",
"231 -126 CURVE SMOOTH",
"231 -199 OFFCURVE",
"295 -225 OFFCURVE",
"359 -225 CURVE SMOOTH",
"388 -225 OFFCURVE",
"423 -220 OFFCURVE",
"445 -211 CURVE",
"445 -127 LINE",
"429 -131 OFFCURVE",
"403 -135 OFFCURVE",
"389 -135 CURVE SMOOTH",
"363 -135 OFFCURVE",
"349 -125 OFFCURVE",
"349 -104 CURVE SMOOTH",
"349 -58 OFFCURVE",
"387 -23 OFFCURVE",
"445 6 CURVE SMOOTH"
);
}
);
width = 609;
}
);
leftKerningGroup = o;
leftMetricsKey = e;
rightKerningGroup = c;
unicode = 0119;
},
{
glyphname = f;
lastChange = "2017-08-30 09:00:31 +0000";
layers = (
{
background = {
paths = (
{
closed = 1;
nodes = (
"395 410 LINE",
"395 525 LINE",
"38 525 LINE",
"38 410 LINE"
);
},
{
closed = 1;
nodes = (
"381 761 OFFCURVE",
"344 765 OFFCURVE",
"311 765 CURVE SMOOTH",
"186 765 OFFCURVE",
"127 699 OFFCURVE",
"127 581 CURVE SMOOTH",
"127 0 LINE",
"267 0 LINE",
"267 572 LINE SMOOTH",
"267 631 OFFCURVE",
"292 648 OFFCURVE",
"342 648 CURVE SMOOTH",
"364 648 OFFCURVE",
"390 645 OFFCURVE",
"401 643 CURVE",
"401 757 LINE"
);
}
);
};
layerId = "3F6440D7-FC3E-4965-8B72-FDD88F2A8137";
paths = (
{
closed = 1;
nodes = (
"395 410 LINE",
"395 525 LINE",
"38 525 LINE",
"38 410 LINE"
);
},
{
closed = 1;
nodes = (
"381 761 OFFCURVE",
"344 765 OFFCURVE",
"311 765 CURVE SMOOTH",
"186 765 OFFCURVE",
"127 699 OFFCURVE",
"127 581 CURVE SMOOTH",
"127 0 LINE",
"267 0 LINE",
"267 572 LINE SMOOTH",
"267 631 OFFCURVE",
"292 648 OFFCURVE",
"342 648 CURVE SMOOTH",
"364 648 OFFCURVE",
"390 645 OFFCURVE",
"401 643 CURVE",
"401 757 LINE"
);
}
);
width = 414;
}
);
unicode = 0066;
userData = {
RMXScaler = {
source = f;
};
};
},
{
glyphname = g;
lastChange = "2017-08-30 09:00:31 +0000";
layers = (
{
anchors = (
{
name = top;
position = "{336, 525}";
}
);
background = {
anchors = (
{
name = top;
position = "{336, 525}";
}
);
paths = (
{
closed = 1;
nodes = (
"449 434 LINE",
"443 434 LINE",
"423 497 OFFCURVE",
"363 540 OFFCURVE",
"277 540 CURVE SMOOTH",
"123 540 OFFCURVE",
"50 424 OFFCURVE",
"50 276 CURVE SMOOTH",
"50 129 OFFCURVE",
"123 15 OFFCURVE",
"277 15 CURVE SMOOTH",
"375 15 OFFCURVE",
"420 69 OFFCURVE",
"439 103 CURVE",
"445 103 LINE",
"445 45 LINE SMOOTH",
"445 -52 OFFCURVE",
"418 -95 OFFCURVE",
"330 -95 CURVE SMOOTH",
"264 -95 OFFCURVE",
"231 -78 OFFCURVE",
"224 -35 CURVE",
"76 -35 LINE",
"83 -149 OFFCURVE",
"158 -210 OFFCURVE",
"327 -210 CURVE SMOOTH",
"511 -210 OFFCURVE",
"585 -122 OFFCURVE",
"585 49 CURVE SMOOTH",
"585 525 LINE",
"462 525 LINE"
);
},
{
closed = 1;
nodes = (
"231 127 OFFCURVE",
"195 181 OFFCURVE",
"195 276 CURVE SMOOTH",
"195 361 OFFCURVE",
"231 418 OFFCURVE",
"317 418 CURVE SMOOTH",
"401 418 OFFCURVE",
"445 361 OFFCURVE",
"445 276 CURVE SMOOTH",
"445 181 OFFCURVE",
"401 127 OFFCURVE",
"317 127 CURVE SMOOTH"
);
}
);
};
layerId = "3F6440D7-FC3E-4965-8B72-FDD88F2A8137";
paths = (
{
closed = 1;
nodes = (
"449 434 LINE",
"443 434 LINE",
"423 497 OFFCURVE",
"363 540 OFFCURVE",
"277 540 CURVE SMOOTH",
"123 540 OFFCURVE",
"50 424 OFFCURVE",
"50 276 CURVE SMOOTH",
"50 129 OFFCURVE",
"123 15 OFFCURVE",
"277 15 CURVE SMOOTH",
"375 15 OFFCURVE",
"420 69 OFFCURVE",
"439 103 CURVE",
"445 103 LINE",
"445 45 LINE SMOOTH",
"445 -52 OFFCURVE",
"418 -95 OFFCURVE",
"330 -95 CURVE SMOOTH",
"264 -95 OFFCURVE",
"231 -78 OFFCURVE",
"224 -35 CURVE",
"76 -35 LINE",
"83 -149 OFFCURVE",
"158 -210 OFFCURVE",
"327 -210 CURVE SMOOTH",
"511 -210 OFFCURVE",
"585 -122 OFFCURVE",
"585 49 CURVE SMOOTH",
"585 525 LINE",
"462 525 LINE"
);
},
{
closed = 1;
nodes = (
"231 127 OFFCURVE",
"195 181 OFFCURVE",
"195 276 CURVE SMOOTH",
"195 361 OFFCURVE",
"231 418 OFFCURVE",
"317 418 CURVE SMOOTH",
"401 418 OFFCURVE",
"445 361 OFFCURVE",
"445 276 CURVE SMOOTH",
"445 181 OFFCURVE",
"401 127 OFFCURVE",
"317 127 CURVE SMOOTH"
);
}
);
width = 668;
}
);
leftMetricsKey = o;
rightMetricsKey = jdotless;
unicode = 0067;
userData = {
RMXScaler = {
source = g;
};
};
},
{
color = 4;
glyphname = h;
lastChange = "2017-08-30 09:00:31 +0000";
layers = (
{
anchors = (
{
name = apostrophe;
position = "{182, 525}";
},
{
name = bottom;
position = "{504, 0}";
},
{
name = top;
position = "{150, 730}";
}
);
background = {
anchors = (
{
name = apostrophe;
position = "{182, 525}";
},
{
name = bottom;
position = "{504, 0}";
},
{
name = top;
position = "{150, 730}";
}
);
paths = (
{
closed = 1;
nodes = (
"282 750 LINE",
"142 750 LINE",
"24 0 LINE",
"164 0 LINE",
"212 301 LINE SMOOTH",
"223 373 OFFCURVE",
"273 415 OFFCURVE",
"347 415 CURVE SMOOTH",
"401 415 OFFCURVE",
"428 391 OFFCURVE",
"428 341 CURVE SMOOTH",
"428 329 OFFCURVE",
"427 316 OFFCURVE",
"425 302 CURVE SMOOTH",
"377 0 LINE",
"517 0 LINE",
"566 305 LINE SMOOTH",
"572 340 OFFCURVE",
"577 380 OFFCURVE",
"577 398 CURVE SMOOTH",
"577 492 OFFCURVE",
"519 540 OFFCURVE",
"420 540 CURVE SMOOTH",
"332 540 OFFCURVE",
"263 492 OFFCURVE",
"232 424 CURVE",
"250 437 LINE",
"215 437 LINE",
"232 433 LINE"
);
}
);
};
layerId = "3F6440D7-FC3E-4965-8B72-FDD88F2A8137";
paths = (
{
closed = 1;
nodes = (
"282 750 LINE",
"142 750 LINE",
"24 0 LINE",
"164 0 LINE",
"212 301 LINE SMOOTH",
"223 373 OFFCURVE",
"273 415 OFFCURVE",
"347 415 CURVE SMOOTH",
"401 415 OFFCURVE",
"428 391 OFFCURVE",
"428 341 CURVE SMOOTH",
"428 329 OFFCURVE",
"427 316 OFFCURVE",
"425 302 CURVE SMOOTH",
"377 0 LINE",
"517 0 LINE",
"566 305 LINE SMOOTH",
"572 340 OFFCURVE",
"577 380 OFFCURVE",
"577 398 CURVE SMOOTH",
"577 492 OFFCURVE",
"519 540 OFFCURVE",
"420 540 CURVE SMOOTH",
"332 540 OFFCURVE",
"263 492 OFFCURVE",
"232 424 CURVE",
"250 437 LINE",
"215 437 LINE",
"232 433 LINE"
);
}
);
width = 634;
}
);
rightMetricsKey = n;
unicode = 0068;
userData = {
RMXScaler = {
source = h;
};
};
},
{
color = 4;
glyphname = hbar;
lastChange = "2017-08-30 09:00:31 +0000";
layers = (
{
background = {
paths = (
{
closed = 1;
nodes = (
"220 0 LINE",
"220 288 LINE SMOOTH",
"220 368 OFFCURVE",
"266 415 OFFCURVE",
"339 415 CURVE SMOOTH",
"405 415 OFFCURVE",
"433 381 OFFCURVE",
"433 302 CURVE SMOOTH",
"433 0 LINE",
"573 0 LINE",
"573 350 LINE SMOOTH",
"573 471 OFFCURVE",
"516 540 OFFCURVE",
"399 540 CURVE SMOOTH",
"300 540 OFFCURVE",
"254 494 OFFCURVE",
"217 424 CURVE",
"237 437 LINE",
"202 437 LINE",
"220 433 LINE",
"220 750 LINE",
"80 750 LINE",
"80 0 LINE"
);
}
);
};
layerId = "3F6440D7-FC3E-4965-8B72-FDD88F2A8137";
paths = (
{
closed = 1;
nodes = (
"220 0 LINE",
"220 268 LINE SMOOTH",
"220 348 OFFCURVE",
"266 395 OFFCURVE",
"339 395 CURVE SMOOTH",
"405 395 OFFCURVE",
"433 361 OFFCURVE",
"433 282 CURVE SMOOTH",
"433 0 LINE",
"573 0 LINE",
"573 330 LINE SMOOTH",
"573 451 OFFCURVE",
"516 520 OFFCURVE",
"399 520 CURVE SMOOTH",
"300 520 OFFCURVE",
"254 474 OFFCURVE",
"217 404 CURVE",
"237 417 LINE",
"202 417 LINE",
"220 413 LINE",
"220 750 LINE",
"80 750 LINE",
"80 0 LINE"
);
},
{
closed = 1;
nodes = (
"0 574 LINE",
"400 574 LINE",
"400 669 LINE",
"0 669 LINE"
);
}
);
width = 651;
}
);
rightMetricsKey = n;
unicode = 0127;
},
{
color = 4;
glyphname = i;
lastChange = "2017-08-30 09:00:31 +0000";
layers = (
{
background = {
paths = (
{
closed = 1;
nodes = (
"180 0 LINE",
"263 525 LINE",
"123 525 LINE",
"40 0 LINE"
);
},
{
closed = 1;
nodes = (
"266 607 OFFCURVE",
"303 642 OFFCURVE",
"303 695 CURVE SMOOTH",
"303 738 OFFCURVE",
"274 758 OFFCURVE",
"223 758 CURVE SMOOTH",
"170 758 OFFCURVE",
"133 723 OFFCURVE",
"133 670 CURVE SMOOTH",
"133 627 OFFCURVE",
"162 607 OFFCURVE",
"213 607 CURVE SMOOTH"
);
}
);
};
layerId = "3F6440D7-FC3E-4965-8B72-FDD88F2A8137";
paths = (
{
closed = 1;
nodes = (
"180 0 LINE",
"263 525 LINE",
"123 525 LINE",
"40 0 LINE"
);
},
{
closed = 1;
nodes = (
"266 607 OFFCURVE",
"303 642 OFFCURVE",
"303 695 CURVE SMOOTH",
"303 738 OFFCURVE",
"274 758 OFFCURVE",
"223 758 CURVE SMOOTH",
"170 758 OFFCURVE",
"133 723 OFFCURVE",
"133 670 CURVE SMOOTH",
"133 627 OFFCURVE",
"162 607 OFFCURVE",
"213 607 CURVE SMOOTH"
);
}
);
width = 303;
}
);
unicode = 0069;
userData = {
RMXScaler = {
source = i;
};
};
},
{
color = 4;
glyphname = idotless;
lastChange = "2017-08-30 09:00:31 +0000";
layers = (
{
anchors = (
{
name = ogonek;
position = "{205, 0}";
},
{
name = top;
position = "{153, 525}";
}
);
layerId = "3F6440D7-FC3E-4965-8B72-FDD88F2A8137";
paths = (
{
closed = 1;
nodes = (
"223 0 LINE",
"223 525 LINE",
"83 525 LINE",
"83 0 LINE"
);
}
);
width = 306;
}
);
unicode = 0131;
},
{
color = 4;
glyphname = idotlessogonek;
lastChange = "2017-08-30 09:00:31 +0000";
layers = (
{
anchors = (
{
name = top;
position = "{150, 525}";
}
);
background = {
paths = (
{
closed = 1;
nodes = (
"80 0 LINE",
"220 0 LINE",
"220 525 LINE",
"80 525 LINE"
);
},
{
closed = 1;
nodes = (
"125 34 OFFCURVE",
"31 -9 OFFCURVE",
"31 -106 CURVE SMOOTH",
"31 -179 OFFCURVE",
"95 -205 OFFCURVE",
"159 -205 CURVE SMOOTH",
"188 -205 OFFCURVE",
"223 -200 OFFCURVE",
"245 -191 CURVE",
"245 -107 LINE",
"229 -111 OFFCURVE",
"203 -115 OFFCURVE",
"189 -115 CURVE SMOOTH",
"163 -115 OFFCURVE",
"149 -105 OFFCURVE",
"149 -84 CURVE SMOOTH",
"149 -48 OFFCURVE",
"176 -23 OFFCURVE",
"220 0 CURVE",
"172 55 LINE"
);
}
);
};
layerId = "3F6440D7-FC3E-4965-8B72-FDD88F2A8137";
paths = (
{
closed = 1;
nodes = (
"80 0 LINE",
"220 0 LINE",
"220 525 LINE",
"80 525 LINE"
);
},
{
closed = 1;
nodes = (
"125 34 OFFCURVE",
"31 -29 OFFCURVE",
"31 -126 CURVE SMOOTH",
"31 -199 OFFCURVE",
"95 -225 OFFCURVE",
"159 -225 CURVE SMOOTH",
"188 -225 OFFCURVE",
"223 -220 OFFCURVE",
"245 -211 CURVE",
"245 -127 LINE",
"229 -131 OFFCURVE",
"203 -135 OFFCURVE",
"189 -135 CURVE SMOOTH",
"163 -135 OFFCURVE",
"149 -125 OFFCURVE",
"149 -104 CURVE SMOOTH",
"149 -68 OFFCURVE",
"176 -23 OFFCURVE",
"220 0 CURVE",
"172 55 LINE"
);
}
);
width = 300;
}
);
},
{
color = 4;
glyphname = jdotless;
lastChange = "2017-08-30 09:00:31 +0000";
layers = (
{
anchors = (
{
name = top;
position = "{157, 525}";
}
);
background = {
paths = (
{
closed = 1;
nodes = (
"-33 -200 LINE",
"-17 -205 OFFCURVE",
"28 -210 OFFCURVE",
"54 -210 CURVE SMOOTH",
"180 -210 OFFCURVE",
"229 -134 OFFCURVE",
"229 -4 CURVE SMOOTH",
"229 525 LINE",
"89 525 LINE",
"89 4 LINE SMOOTH",
"89 -71 OFFCURVE",
"68 -95 OFFCURVE",
"12 -95 CURVE SMOOTH",
"-1 -95 OFFCURVE",
"-20 -94 OFFCURVE",
"-33 -93 CURVE"
);
},
{
closed = 1;
nodes = (
"210 588 OFFCURVE",
"244 610 OFFCURVE",
"244 664 CURVE SMOOTH",
"244 718 OFFCURVE",
"210 740 OFFCURVE",
"159 740 CURVE SMOOTH",
"108 740 OFFCURVE",
"74 718 OFFCURVE",
"74 664 CURVE SMOOTH",
"74 610 OFFCURVE",
"108 588 OFFCURVE",
"159 588 CURVE SMOOTH"
);
}
);
};
layerId = "3F6440D7-FC3E-4965-8B72-FDD88F2A8137";
paths = (
{
closed = 1;
nodes = (
"-33 -200 LINE",
"-17 -205 OFFCURVE",
"28 -210 OFFCURVE",
"54 -210 CURVE SMOOTH",
"180 -210 OFFCURVE",
"229 -134 OFFCURVE",
"229 -4 CURVE SMOOTH",
"229 525 LINE",
"89 525 LINE",
"89 4 LINE SMOOTH",
"89 -71 OFFCURVE",
"68 -95 OFFCURVE",
"12 -95 CURVE SMOOTH",
"-1 -95 OFFCURVE",
"-20 -94 OFFCURVE",
"-33 -93 CURVE"
);
}
);
width = 312;
}
);
leftKerningGroup = jdotless;
rightKerningGroup = jdotless;
unicode = 0237;
},
{
glyphname = k;
lastChange = "2017-08-30 09:00:31 +0000";
layers = (
{
anchors = (
{
name = bottom;
position = "{311, 0}";
}
);
background = {
anchors = (
{
name = bottom;
position = "{311, 0}";
}
);
paths = (
{
closed = 1;
nodes = (
"292 221 LINE",
"573 525 LINE",
"408 525 LINE",
"229 323 LINE",
"196 323 LINE",
"196 221 LINE"
);
},
{
closed = 1;
nodes = (
"223 0 LINE",
"223 750 LINE",
"83 750 LINE",
"83 0 LINE"
);
},
{
closed = 1;
nodes = (
"583 0 LINE",
"313 319 LINE",
"200 253 LINE",
"416 0 LINE"
);
}
);
};
layerId = "3F6440D7-FC3E-4965-8B72-FDD88F2A8137";
paths = (
{
closed = 1;
nodes = (
"292 221 LINE",
"573 525 LINE",
"408 525 LINE",
"229 323 LINE",
"196 323 LINE",
"196 221 LINE"
);
},
{
closed = 1;
nodes = (
"223 0 LINE",
"223 750 LINE",
"83 750 LINE",
"83 0 LINE"
);
},
{
closed = 1;
nodes = (
"583 0 LINE",
"313 319 LINE",
"200 253 LINE",
"416 0 LINE"
);
}
);
width = 599;
}
);
leftMetricsKey = h;
unicode = 006B;
userData = {
RMXScaler = {
source = k;
};
};
},
{
color = 4;
glyphname = l;
lastChange = "2017-08-30 09:00:31 +0000";
layers = (
{
anchors = (
{
name = bottom;
position = "{109, 0}";
},
{
name = periodcentered;
position = "{317, 370}";
},
{
name = top;
position = "{222, 730}";
},
{
name = topright;
position = "{342, 525}";
}
);
background = {
anchors = (
{
name = bottom;
position = "{109, 0}";
},
{
name = periodcentered;
position = "{317, 370}";
},
{
name = top;
position = "{222, 730}";
},
{
name = topright;
position = "{342, 525}";
}
);
paths = (
{
closed = 1;
nodes = (
"180 0 LINE",
"298 750 LINE",
"158 750 LINE",
"40 0 LINE"
);
}
);
};
layerId = "3F6440D7-FC3E-4965-8B72-FDD88F2A8137";
paths = (
{
closed = 1;
nodes = (
"180 0 LINE",
"298 750 LINE",
"158 750 LINE",
"40 0 LINE"
);
}
);
width = 303;
}
);
unicode = 006C;
userData = {
RMXScaler = {
source = l;
};
};
},
{
color = 4;
glyphname = lslash;
lastChange = "2017-08-30 09:00:31 +0000";
layers = (
{
layerId = "3F6440D7-FC3E-4965-8B72-FDD88F2A8137";
paths = (
{
closed = 1;
nodes = (
"250 0 LINE",
"250 750 LINE",
"110 750 LINE",
"110 0 LINE"
);
},
{
closed = 1;
nodes = (
"0 110 LINE",
"370 430 LINE",
"370 555 LINE",
"0 235 LINE"
);
}
);
width = 360;
}
);
unicode = 0142;
},
{
glyphname = m;
lastChange = "2017-08-30 09:00:31 +0000";
layers = (
{
background = {
paths = (
{
closed = 1;
nodes = (
"629 540 OFFCURVE",
"579 494 OFFCURVE",
"541 387 CURVE",
"599 421 LINE",
"505 421 LINE",
"556 388 LINE",
"545 486 OFFCURVE",
"494 540 OFFCURVE",
"395 540 CURVE SMOOTH",
"288 540 OFFCURVE",
"250 487 OFFCURVE",
"211 406 CURVE",
"270 434 LINE",
"174 434 LINE",
"226 390 LINE",
"204 525 LINE",
"81 525 LINE",
"81 0 LINE",
"221 0 LINE",
"221 288 LINE SMOOTH",
"221 363 OFFCURVE",
"267 415 OFFCURVE",
"330 415 CURVE SMOOTH",
"397 415 OFFCURVE",
"423 379 OFFCURVE",
"423 302 CURVE SMOOTH",
"423 0 LINE",
"563 0 LINE",
"563 288 LINE SMOOTH",
"563 363 OFFCURVE",
"609 415 OFFCURVE",
"672 415 CURVE SMOOTH",
"739 415 OFFCURVE",
"765 379 OFFCURVE",
"765 302 CURVE SMOOTH",
"765 0 LINE",
"905 0 LINE",
"905 350 LINE SMOOTH",
"905 471 OFFCURVE",
"849 540 OFFCURVE",
"737 540 CURVE SMOOTH"
);
}
);
};
layerId = "3F6440D7-FC3E-4965-8B72-FDD88F2A8137";
paths = (
{
closed = 1;
nodes = (
"629 540 OFFCURVE",
"579 494 OFFCURVE",
"541 387 CURVE",
"599 421 LINE",
"505 421 LINE",
"556 388 LINE",
"545 486 OFFCURVE",
"494 540 OFFCURVE",
"395 540 CURVE SMOOTH",
"288 540 OFFCURVE",
"250 487 OFFCURVE",
"211 406 CURVE",
"270 434 LINE",
"174 434 LINE",
"226 390 LINE",
"204 525 LINE",
"81 525 LINE",
"81 0 LINE",
"221 0 LINE",
"221 288 LINE SMOOTH",
"221 363 OFFCURVE",
"267 415 OFFCURVE",
"330 415 CURVE SMOOTH",
"397 415 OFFCURVE",
"423 379 OFFCURVE",
"423 302 CURVE SMOOTH",
"423 0 LINE",
"563 0 LINE",
"563 288 LINE SMOOTH",
"563 363 OFFCURVE",
"609 415 OFFCURVE",
"672 415 CURVE SMOOTH",
"739 415 OFFCURVE",
"765 379 OFFCURVE",
"765 302 CURVE SMOOTH",
"765 0 LINE",
"905 0 LINE",
"905 350 LINE SMOOTH",
"905 471 OFFCURVE",
"849 540 OFFCURVE",
"737 540 CURVE SMOOTH"
);
}
);
width = 983;
}
);
leftMetricsKey = n;
rightMetricsKey = n;
unicode = 006D;
userData = {
RMXScaler = {
source = m;
};
};
},
{
color = 4;
glyphname = n;
lastChange = "2017-08-30 09:00:31 +0000";
layers = (
{
anchors = (
{
name = apostrophe;
position = "{2, 525}";
},
{
name = bottom;
position = "{324, 0}";
},
{
name = top;
position = "{316, 525}";
}
);
background = {
anchors = (
{
name = apostrophe;
position = "{2, 525}";
},
{
name = bottom;
position = "{324, 0}";
},
{
name = top;
position = "{316, 525}";
}
);
paths = (
{
closed = 1;
nodes = (
"180 0 LINE",
"228 301 LINE SMOOTH",
"239 373 OFFCURVE",
"289 415 OFFCURVE",
"363 415 CURVE SMOOTH",
"417 415 OFFCURVE",
"444 391 OFFCURVE",
"444 341 CURVE SMOOTH",
"444 329 OFFCURVE",
"443 316 OFFCURVE",
"441 302 CURVE SMOOTH",
"393 0 LINE",
"533 0 LINE",
"582 305 LINE SMOOTH",
"588 340 OFFCURVE",
"593 380 OFFCURVE",
"593 398 CURVE SMOOTH",
"593 492 OFFCURVE",
"535 540 OFFCURVE",
"436 540 CURVE SMOOTH",
"346 540 OFFCURVE",
"276 492 OFFCURVE",
"244 424 CURVE",
"266 437 LINE",
"231 437 LINE",
"243 427 LINE",
"245 525 LINE",
"123 525 LINE",
"40 0 LINE"
);
}
);
};
guideLines = (
{
angle = 90;
position = "{223, 288}";
}
);
layerId = "3F6440D7-FC3E-4965-8B72-FDD88F2A8137";
paths = (
{
closed = 1;
nodes = (
"180 0 LINE",
"228 301 LINE SMOOTH",
"239 373 OFFCURVE",
"289 415 OFFCURVE",
"363 415 CURVE SMOOTH",
"417 415 OFFCURVE",
"444 391 OFFCURVE",
"444 341 CURVE SMOOTH",
"444 329 OFFCURVE",
"443 316 OFFCURVE",
"441 302 CURVE SMOOTH",
"393 0 LINE",
"533 0 LINE",
"582 305 LINE SMOOTH",
"588 340 OFFCURVE",
"593 380 OFFCURVE",
"593 398 CURVE SMOOTH",
"593 492 OFFCURVE",
"535 540 OFFCURVE",
"436 540 CURVE SMOOTH",
"346 540 OFFCURVE",
"276 492 OFFCURVE",
"244 424 CURVE",
"266 437 LINE",
"231 437 LINE",
"243 427 LINE",
"245 525 LINE",
"123 525 LINE",
"40 0 LINE"
);
}
);
width = 645;
}
);
unicode = 006E;
userData = {
RMXScaler = {
source = n;
};
};
},
{
color = 4;
glyphname = eng;
lastChange = "2017-08-30 09:00:31 +0000";
layers = (
{
background = {
paths = (
{
closed = 1;
nodes = (
"574 350 LINE SMOOTH",
"574 471 OFFCURVE",
"517 540 OFFCURVE",
"400 540 CURVE SMOOTH",
"301 540 OFFCURVE",
"255 494 OFFCURVE",
"218 424 CURVE",
"238 437 LINE",
"203 437 LINE",
"221 427 LINE",
"204 525 LINE",
"81 525 LINE",
"81 0 LINE",
"221 0 LINE",
"221 288 LINE SMOOTH",
"221 368 OFFCURVE",
"267 415 OFFCURVE",
"343 415 CURVE SMOOTH",
"406 415 OFFCURVE",
"434 381 OFFCURVE",
"434 302 CURVE SMOOTH",
"434 4 LINE SMOOTH",
"434 -71 OFFCURVE",
"413 -95 OFFCURVE",
"357 -95 CURVE SMOOTH",
"344 -95 OFFCURVE",
"325 -94 OFFCURVE",
"312 -93 CURVE",
"312 -200 LINE",
"328 -205 OFFCURVE",
"373 -210 OFFCURVE",
"399 -210 CURVE SMOOTH",
"525 -210 OFFCURVE",
"574 -134 OFFCURVE",
"574 -4 CURVE SMOOTH"
);
}
);
};
layerId = "3F6440D7-FC3E-4965-8B72-FDD88F2A8137";
paths = (
{
closed = 1;
nodes = (
"574 350 LINE SMOOTH",
"574 471 OFFCURVE",
"517 540 OFFCURVE",
"400 540 CURVE SMOOTH",
"301 540 OFFCURVE",
"255 494 OFFCURVE",
"218 424 CURVE",
"238 437 LINE",
"203 437 LINE",
"221 427 LINE",
"204 525 LINE",
"81 525 LINE",
"81 0 LINE",
"221 0 LINE",
"221 288 LINE SMOOTH",
"221 368 OFFCURVE",
"267 415 OFFCURVE",
"343 415 CURVE SMOOTH",
"406 415 OFFCURVE",
"434 381 OFFCURVE",
"434 302 CURVE SMOOTH",
"434 4 LINE SMOOTH",
"434 -71 OFFCURVE",
"413 -95 OFFCURVE",
"357 -95 CURVE SMOOTH",
"344 -95 OFFCURVE",
"325 -94 OFFCURVE",
"302 -93 CURVE",
"302 -200 LINE",
"328 -205 OFFCURVE",
"373 -210 OFFCURVE",
"399 -210 CURVE SMOOTH",
"525 -210 OFFCURVE",
"574 -134 OFFCURVE",
"574 -4 CURVE SMOOTH"
);
}
);
width = 652;
}
);
leftMetricsKey = n;
rightMetricsKey = n;
unicode = 014B;
},
{
color = 4;
glyphname = o;
lastChange = "2017-08-30 09:00:31 +0000";
layers = (
{
background = {
paths = (
{
closed = 1;
nodes = (
"475 -15 OFFCURVE",
"584 108 OFFCURVE",
"584 323 CURVE SMOOTH",
"584 459 OFFCURVE",
"497 540 OFFCURVE",
"349 540 CURVE SMOOTH",
"158 540 OFFCURVE",
"49 417 OFFCURVE",
"49 202 CURVE SMOOTH",
"49 66 OFFCURVE",
"136 -15 OFFCURVE",
"284 -15 CURVE SMOOTH"
);
},
{
closed = 1;
nodes = (
"224 100 OFFCURVE",
"191 133 OFFCURVE",
"191 205 CURVE SMOOTH",
"191 325 OFFCURVE",
"230 425 OFFCURVE",
"338 425 CURVE SMOOTH",
"409 425 OFFCURVE",
"442 392 OFFCURVE",
"442 320 CURVE SMOOTH",
"442 200 OFFCURVE",
"403 100 OFFCURVE",
"295 100 CURVE SMOOTH"
);
}
);
};
guideLines = (
{
angle = 193.4239;
position = "{316, 262}";
},
{
angle = 81.4778;
position = "{316, 262}";
}
);
layerId = "3F6440D7-FC3E-4965-8B72-FDD88F2A8137";
paths = (
{
closed = 1;
nodes = (
"475 -15 OFFCURVE",
"584 108 OFFCURVE",
"584 323 CURVE SMOOTH",
"584 459 OFFCURVE",
"497 540 OFFCURVE",
"349 540 CURVE SMOOTH",
"158 540 OFFCURVE",
"49 417 OFFCURVE",
"49 202 CURVE SMOOTH",
"49 66 OFFCURVE",
"136 -15 OFFCURVE",
"284 -15 CURVE SMOOTH"
);
},
{
closed = 1;
nodes = (
"224 100 OFFCURVE",
"191 133 OFFCURVE",
"191 205 CURVE SMOOTH",
"191 325 OFFCURVE",
"230 425 OFFCURVE",
"338 425 CURVE SMOOTH",
"409 425 OFFCURVE",
"442 392 OFFCURVE",
"442 320 CURVE SMOOTH",
"442 200 OFFCURVE",
"403 100 OFFCURVE",
"295 100 CURVE SMOOTH"
);
}
);
width = 631;
},
{
anchors = (
{
name = top;
position = "{317, 525}";
}
);
associatedMasterId = "3F6440D7-FC3E-4965-8B72-FDD88F2A8137";
background = {
paths = (
{
closed = 1;
nodes = (
"129 -13 OFFCURVE",
"45 63 OFFCURVE",
"45 201 CURVE SMOOTH",
"45 410 OFFCURVE",
"163 543 OFFCURVE",
"352 540 CURVE SMOOTH",
"499 538 OFFCURVE",
"586 462 OFFCURVE",
"586 322 CURVE SMOOTH",
"586 131 OFFCURVE",
"480 -17 OFFCURVE",
"283 -15 CURVE SMOOTH"
);
},
{
closed = 1;
nodes = (
"410 425 OFFCURVE",
"340 425 CURVE SMOOTH",
"245 425 OFFCURVE",
"190 346 OFFCURVE",
"190 211 CURVE SMOOTH",
"190 135 OFFCURVE",
"223 102 OFFCURVE",
"295 100 CURVE SMOOTH",
"385 98 OFFCURVE",
"441 185 OFFCURVE",
"441 312 CURVE SMOOTH",
"441 391 OFFCURVE"
);
}
);
};
layerId = "B1CE6365-DE6C-41E2-9E1F-657440861759";
name = "Aug 21 17, 23:08";
paths = (
{
closed = 1;
nodes = (
"586 113 OFFCURVE",
"474 -17 OFFCURVE",
"283 -17 CURVE SMOOTH",
"131 -17 OFFCURVE",
"45 62 OFFCURVE",
"45 201 CURVE SMOOTH",
"45 410 OFFCURVE",
"157 540 OFFCURVE",
"348 540 CURVE SMOOTH",
"500 540 OFFCURVE",
"586 461 OFFCURVE",
"586 322 CURVE SMOOTH"
);
},
{
closed = 1;
nodes = (
"190 132 OFFCURVE",
"221 98 OFFCURVE",
"291 98 CURVE SMOOTH",
"386 98 OFFCURVE",
"441 177 OFFCURVE",
"441 312 CURVE SMOOTH",
"441 391 OFFCURVE",
"410 425 OFFCURVE",
"340 425 CURVE SMOOTH",
"245 425 OFFCURVE",
"190 346 OFFCURVE",
"190 211 CURVE SMOOTH"
);
}
);
width = 631;
},
{
associatedMasterId = "3F6440D7-FC3E-4965-8B72-FDD88F2A8137";
background = {
paths = (
{
closed = 1;
nodes = (
"189 134 OFFCURVE",
"221 100 OFFCURVE",
"293 100 CURVE SMOOTH",
"397 100 OFFCURVE",
"442 197 OFFCURVE",
"442 316 CURVE SMOOTH",
"442 390 OFFCURVE",
"410 424 OFFCURVE",
"338 424 CURVE SMOOTH",
"234 424 OFFCURVE",
"189 327 OFFCURVE",
"189 208 CURVE SMOOTH"
);
},
{
closed = 1;
nodes = (
"586 114 OFFCURVE",
"474 -16 OFFCURVE",
"283 -16 CURVE SMOOTH",
"131 -16 OFFCURVE",
"45 63 OFFCURVE",
"45 202 CURVE SMOOTH",
"45 410 OFFCURVE",
"157 540 OFFCURVE",
"348 540 CURVE SMOOTH",
"500 540 OFFCURVE",
"586 461 OFFCURVE",
"586 322 CURVE SMOOTH"
);
}
);
};
guideLines = (
{
angle = 21.9194;
position = "{316, 262}";
},
{
angle = 81.4778;
position = "{316, 262}";
}
);
layerId = "C7828E28-AF4A-4F0B-8652-7D7D59B432A2";
name = "Aug 22 17, 12:01";
paths = (
{
closed = 1;
nodes = (
"189 134 OFFCURVE",
"221 100 OFFCURVE",
"293 100 CURVE SMOOTH",
"338 100 OFFCURVE",
"368 110 OFFCURVE",
"392 140 CURVE SMOOTH",
"423 179 OFFCURVE",
"442 245 OFFCURVE",
"442 316 CURVE SMOOTH",
"442 390 OFFCURVE",
"410 424 OFFCURVE",
"338 424 CURVE SMOOTH",
"234 424 OFFCURVE",
"189 327 OFFCURVE",
"189 208 CURVE SMOOTH"
);
},
{
closed = 1;
nodes = (
"586 114 OFFCURVE",
"474 -16 OFFCURVE",
"283 -16 CURVE SMOOTH",
"131 -16 OFFCURVE",
"45 63 OFFCURVE",
"45 202 CURVE SMOOTH",
"45 410 OFFCURVE",
"157 540 OFFCURVE",
"348 540 CURVE SMOOTH",
"500 540 OFFCURVE",
"586 461 OFFCURVE",
"586 322 CURVE SMOOTH"
);
}
);
width = 631;
},
{
associatedMasterId = "3F6440D7-FC3E-4965-8B72-FDD88F2A8137";
background = {
paths = (
{
closed = 1;
nodes = (
"189 134 OFFCURVE",
"221 100 OFFCURVE",
"293 100 CURVE SMOOTH",
"338 100 OFFCURVE",
"368 110 OFFCURVE",
"392 140 CURVE SMOOTH",
"423 179 OFFCURVE",
"442 245 OFFCURVE",
"442 316 CURVE SMOOTH",
"442 390 OFFCURVE",
"410 424 OFFCURVE",
"338 424 CURVE SMOOTH",
"234 424 OFFCURVE",
"189 327 OFFCURVE",
"189 208 CURVE SMOOTH"
);
},
{
closed = 1;
nodes = (
"586 114 OFFCURVE",
"474 -16 OFFCURVE",
"283 -16 CURVE SMOOTH",
"131 -16 OFFCURVE",
"45 63 OFFCURVE",
"45 202 CURVE SMOOTH",
"45 410 OFFCURVE",
"157 540 OFFCURVE",
"348 540 CURVE SMOOTH",
"500 540 OFFCURVE",
"586 461 OFFCURVE",
"586 322 CURVE SMOOTH"
);
}
);
};
guideLines = (
{
angle = 21.9194;
position = "{316, 262}";
},
{
angle = 81.4778;
position = "{316, 262}";
}
);
layerId = "2C8CA6D8-C375-4A77-8F8B-837271E96C4B";
name = "Aug 22 17, 12:13";
paths = (
{
closed = 1;
nodes = (
"189 134 OFFCURVE",
"221 100 OFFCURVE",
"293 100 CURVE SMOOTH",
"397 100 OFFCURVE",
"442 197 OFFCURVE",
"442 316 CURVE SMOOTH",
"442 390 OFFCURVE",
"410 424 OFFCURVE",
"338 424 CURVE SMOOTH",
"234 424 OFFCURVE",
"189 327 OFFCURVE",
"189 208 CURVE SMOOTH"
);
},
{
closed = 1;
nodes = (
"586 114 OFFCURVE",
"474 -16 OFFCURVE",
"283 -16 CURVE SMOOTH",
"131 -16 OFFCURVE",
"45 63 OFFCURVE",
"45 202 CURVE SMOOTH",
"45 410 OFFCURVE",
"157 540 OFFCURVE",
"348 540 CURVE SMOOTH",
"500 540 OFFCURVE",
"586 461 OFFCURVE",
"586 322 CURVE SMOOTH"
);
}
);
width = 631;
},
{
associatedMasterId = "3F6440D7-FC3E-4965-8B72-FDD88F2A8137";
background = {
paths = (
{
closed = 1;
nodes = (
"189 134 OFFCURVE",
"221 100 OFFCURVE",
"293 100 CURVE SMOOTH",
"397 100 OFFCURVE",
"442 197 OFFCURVE",
"442 316 CURVE SMOOTH",
"442 390 OFFCURVE",
"410 424 OFFCURVE",
"338 424 CURVE SMOOTH",
"234 424 OFFCURVE",
"189 327 OFFCURVE",
"189 208 CURVE SMOOTH"
);
},
{
closed = 1;
nodes = (
"586 114 OFFCURVE",
"474 -16 OFFCURVE",
"283 -16 CURVE SMOOTH",
"131 -16 OFFCURVE",
"45 63 OFFCURVE",
"45 202 CURVE SMOOTH",
"45 410 OFFCURVE",
"157 540 OFFCURVE",
"348 540 CURVE SMOOTH",
"500 540 OFFCURVE",
"586 461 OFFCURVE",
"586 322 CURVE SMOOTH"
);
}
);
};
guideLines = (
{
angle = 21.9194;
position = "{316, 262}";
},
{
angle = 81.4778;
position = "{316, 262}";
}
);
layerId = "CFDDB948-2C88-4D9C-B904-6378A1968497";
name = "Aug 22 17, 12:15";
paths = (
{
closed = 1;
nodes = (
"409 424 OFFCURVE",
"442 392 OFFCURVE",
"442 325 CURVE SMOOTH",
"442 199 OFFCURVE",
"404 100 OFFCURVE",
"295 100 CURVE SMOOTH",
"224 100 OFFCURVE",
"191 132 OFFCURVE",
"191 199 CURVE SMOOTH",
"191 325 OFFCURVE",
"229 424 OFFCURVE",
"338 424 CURVE SMOOTH"
);
},
{
closed = 1;
nodes = (
"483 -16 OFFCURVE",
"586 114 OFFCURVE",
"586 322 CURVE SMOOTH",
"586 461 OFFCURVE",
"489 540 OFFCURVE",
"350 540 CURVE SMOOTH",
"150 540 OFFCURVE",
"47 410 OFFCURVE",
"47 202 CURVE SMOOTH",
"47 63 OFFCURVE",
"144 -16 OFFCURVE",
"283 -16 CURVE SMOOTH"
);
}
);
width = 631;
}
);
unicode = 006F;
userData = {
RMXScaler = {
source = o;
};
};
},
{
color = 4;
glyphname = oslash;
lastChange = "2017-08-30 09:00:31 +0000";
layers = (
{
anchors = (
{
name = top;
position = "{317, 525}";
}
);
background = {
paths = (
{
closed = 1;
nodes = (
"180 -70 LINE",
"579 595 LINE",
"454 595 LINE",
"55 -70 LINE"
);
},
{
closed = 1;
nodes = (
"493 -15 OFFCURVE",
"584 86 OFFCURVE",
"584 263 CURVE SMOOTH",
"584 439 OFFCURVE",
"493 540 OFFCURVE",
"317 540 CURVE SMOOTH",
"141 540 OFFCURVE",
"50 439 OFFCURVE",
"50 263 CURVE SMOOTH",
"50 86 OFFCURVE",
"141 -15 OFFCURVE",
"317 -15 CURVE SMOOTH"
);
},
{
closed = 1;
nodes = (
"230 100 OFFCURVE",
"195 157 OFFCURVE",
"195 263 CURVE SMOOTH",
"195 368 OFFCURVE",
"230 425 OFFCURVE",
"317 425 CURVE SMOOTH",
"404 425 OFFCURVE",
"439 368 OFFCURVE",
"439 263 CURVE SMOOTH",
"439 157 OFFCURVE",
"404 100 OFFCURVE",
"317 100 CURVE SMOOTH"
);
}
);
};
layerId = "3F6440D7-FC3E-4965-8B72-FDD88F2A8137";
paths = (
{
closed = 1;
nodes = (
"140 72 LINE",
"55 -70 LINE",
"180 -70 LINE",
"237 24 LINE"
);
},
{
closed = 1;
nodes = (
"493 -15 OFFCURVE",
"584 86 OFFCURVE",
"584 263 CURVE SMOOTH",
"584 439 OFFCURVE",
"493 540 OFFCURVE",
"317 540 CURVE SMOOTH",
"141 540 OFFCURVE",
"50 439 OFFCURVE",
"50 263 CURVE SMOOTH",
"50 86 OFFCURVE",
"141 -15 OFFCURVE",
"317 -15 CURVE SMOOTH"
);
},
{
closed = 1;
nodes = (
"230 100 OFFCURVE",
"195 157 OFFCURVE",
"195 263 CURVE SMOOTH",
"195 368 OFFCURVE",
"230 425 OFFCURVE",
"317 425 CURVE SMOOTH",
"404 425 OFFCURVE",
"439 368 OFFCURVE",
"439 263 CURVE SMOOTH",
"439 157 OFFCURVE",
"404 100 OFFCURVE",
"317 100 CURVE SMOOTH"
);
},
{
closed = 1;
nodes = (
"495 454 LINE",
"579 595 LINE",
"454 595 LINE",
"402 509 LINE"
);
},
{
closed = 1;
nodes = (
"260 79 LINE",
"448 392 LINE",
"374 445 LINE",
"188 135 LINE"
);
}
);
width = 634;
}
);
unicode = 00F8;
},
{
color = 4;
glyphname = oe;
lastChange = "2017-08-30 09:00:31 +0000";
layers = (
{
background = {
paths = (
{
closed = 1;
nodes = (
"493 -15 OFFCURVE",
"584 86 OFFCURVE",
"584 263 CURVE SMOOTH",
"584 439 OFFCURVE",
"493 540 OFFCURVE",
"317 540 CURVE SMOOTH",
"141 540 OFFCURVE",
"50 439 OFFCURVE",
"50 263 CURVE SMOOTH",
"50 86 OFFCURVE",
"141 -15 OFFCURVE",
"317 -15 CURVE SMOOTH"
);
},
{
closed = 1;
nodes = (
"230 100 OFFCURVE",
"195 157 OFFCURVE",
"195 263 CURVE SMOOTH",
"195 368 OFFCURVE",
"230 425 OFFCURVE",
"317 425 CURVE SMOOTH",
"404 425 OFFCURVE",
"439 368 OFFCURVE",
"439 263 CURVE SMOOTH",
"439 157 OFFCURVE",
"404 100 OFFCURVE",
"317 100 CURVE SMOOTH"
);
},
{
closed = 1;
nodes = (
"1106 -15 OFFCURVE",
"1169 49 OFFCURVE",
"1189 147 CURVE",
"1048 147 LINE",
"1036 111 OFFCURVE",
"1010 95 OFFCURVE",
"949 95 CURVE SMOOTH",
"863 95 OFFCURVE",
"826 143 OFFCURVE",
"826 262 CURVE SMOOTH",
"826 376 OFFCURVE",
"853 429 OFFCURVE",
"944 429 CURVE SMOOTH",
"1025 429 OFFCURVE",
"1054 391 OFFCURVE",
"1054 306 CURVE SMOOTH",
"1054 287 LINE",
"1071 311 LINE",
"792 311 LINE",
"792 221 LINE",
"1193 221 LINE",
"1193 284 LINE SMOOTH",
"1193 442 OFFCURVE",
"1116 540 OFFCURVE",
"946 540 CURVE SMOOTH",
"789 540 OFFCURVE",
"684 444 OFFCURVE",
"684 259 CURVE SMOOTH",
"684 93 OFFCURVE",
"769 -15 OFFCURVE",
"950 -15 CURVE SMOOTH"
);
}
);
};
layerId = "3F6440D7-FC3E-4965-8B72-FDD88F2A8137";
paths = (
{
closed = 1;
nodes = (
"493 -15 OFFCURVE",
"564 86 OFFCURVE",
"564 263 CURVE SMOOTH",
"564 439 OFFCURVE",
"493 540 OFFCURVE",
"317 540 CURVE SMOOTH",
"141 540 OFFCURVE",
"50 439 OFFCURVE",
"50 263 CURVE SMOOTH",
"50 86 OFFCURVE",
"141 -15 OFFCURVE",
"317 -15 CURVE SMOOTH"
);
},
{
closed = 1;
nodes = (
"230 100 OFFCURVE",
"195 157 OFFCURVE",
"195 263 CURVE SMOOTH",
"195 368 OFFCURVE",
"230 425 OFFCURVE",
"317 425 CURVE SMOOTH",
"404 425 OFFCURVE",
"439 368 OFFCURVE",
"439 263 CURVE SMOOTH",
"439 157 OFFCURVE",
"404 100 OFFCURVE",
"317 100 CURVE SMOOTH"
);
},
{
closed = 1;
nodes = (
"856 -15 OFFCURVE",
"919 49 OFFCURVE",
"939 147 CURVE",
"798 147 LINE",
"786 111 OFFCURVE",
"760 95 OFFCURVE",
"699 95 CURVE SMOOTH",
"613 95 OFFCURVE",
"576 143 OFFCURVE",
"576 262 CURVE SMOOTH",
"576 376 OFFCURVE",
"603 429 OFFCURVE",
"694 429 CURVE SMOOTH",
"775 429 OFFCURVE",
"804 391 OFFCURVE",
"804 306 CURVE SMOOTH",
"804 287 LINE",
"821 311 LINE",
"542 311 LINE",
"542 221 LINE",
"943 221 LINE",
"943 284 LINE SMOOTH",
"943 442 OFFCURVE",
"866 540 OFFCURVE",
"696 540 CURVE SMOOTH",
"539 540 OFFCURVE",
"444 444 OFFCURVE",
"444 259 CURVE SMOOTH",
"444 93 OFFCURVE",
"519 -15 OFFCURVE",
"700 -15 CURVE SMOOTH"
);
}
);
width = 993;
}
);
leftMetricsKey = o;
rightMetricsKey = e;
unicode = 0153;
},
{
glyphname = p;
lastChange = "2017-08-30 09:00:31 +0000";
layers = (
{
background = {
paths = (
{
closed = 1;
nodes = (
"221 -195 LINE",
"221 79 LINE",
"226 79 LINE",
"257 17 OFFCURVE",
"313 -15 OFFCURVE",
"387 -15 CURVE SMOOTH",
"530 -15 OFFCURVE",
"616 89 OFFCURVE",
"616 262 CURVE SMOOTH",
"616 435 OFFCURVE",
"530 540 OFFCURVE",
"387 540 CURVE SMOOTH",
"313 540 OFFCURVE",
"257 506 OFFCURVE",
"226 440 CURVE",
"219 440 LINE",
"204 525 LINE",
"81 525 LINE",
"81 -195 LINE"
);
},
{
closed = 1;
nodes = (
"264 105 OFFCURVE",
"221 160 OFFCURVE",
"221 262 CURVE SMOOTH",
"221 364 OFFCURVE",
"264 420 OFFCURVE",
"345 420 CURVE SMOOTH",
"430 420 OFFCURVE",
"471 369 OFFCURVE",
"471 262 CURVE SMOOTH",
"471 155 OFFCURVE",
"430 105 OFFCURVE",
"345 105 CURVE SMOOTH"
);
}
);
};
layerId = "3F6440D7-FC3E-4965-8B72-FDD88F2A8137";
paths = (
{
closed = 1;
nodes = (
"221 -195 LINE",
"221 79 LINE",
"226 79 LINE",
"257 17 OFFCURVE",
"313 -15 OFFCURVE",
"387 -15 CURVE SMOOTH",
"530 -15 OFFCURVE",
"616 89 OFFCURVE",
"616 262 CURVE SMOOTH",
"616 435 OFFCURVE",
"530 540 OFFCURVE",
"387 540 CURVE SMOOTH",
"313 540 OFFCURVE",
"257 506 OFFCURVE",
"226 440 CURVE",
"219 440 LINE",
"204 525 LINE",
"81 525 LINE",
"81 -195 LINE"
);
},
{
closed = 1;
nodes = (
"264 105 OFFCURVE",
"221 160 OFFCURVE",
"221 262 CURVE SMOOTH",
"221 364 OFFCURVE",
"264 420 OFFCURVE",
"345 420 CURVE SMOOTH",
"430 420 OFFCURVE",
"471 369 OFFCURVE",
"471 262 CURVE SMOOTH",
"471 155 OFFCURVE",
"430 105 OFFCURVE",
"345 105 CURVE SMOOTH"
);
}
);
width = 666;
}
);
leftMetricsKey = n;
rightMetricsKey = o;
unicode = 0070;
userData = {
RMXScaler = {
source = p;
};
};
},
{
color = 4;
glyphname = thorn;
lastChange = "2017-08-30 09:00:31 +0000";
layers = (
{
background = {
paths = (
{
closed = 1;
nodes = (
"83 750 LINE",
"83 0 LINE",
"206 0 LINE",
"221 85 LINE",
"228 85 LINE",
"259 19 OFFCURVE",
"315 -14 OFFCURVE",
"389 -14 CURVE SMOOTH",
"532 -14 OFFCURVE",
"618 90 OFFCURVE",
"618 263 CURVE SMOOTH",
"618 436 OFFCURVE",
"532 540 OFFCURVE",
"389 540 CURVE SMOOTH",
"315 540 OFFCURVE",
"259 508 OFFCURVE",
"228 446 CURVE",
"223 446 LINE",
"223 750 LINE"
);
},
{
closed = 1;
nodes = (
"266 106 OFFCURVE",
"223 161 OFFCURVE",
"223 263 CURVE SMOOTH",
"223 365 OFFCURVE",
"266 420 OFFCURVE",
"347 420 CURVE SMOOTH",
"432 420 OFFCURVE",
"473 370 OFFCURVE",
"473 263 CURVE SMOOTH",
"473 156 OFFCURVE",
"432 106 OFFCURVE",
"347 106 CURVE SMOOTH"
);
}
);
};
layerId = "3F6440D7-FC3E-4965-8B72-FDD88F2A8137";
paths = (
{
closed = 1;
nodes = (
"83 750 LINE",
"83 -195 LINE",
"223 -195 LINE",
"223 85 LINE",
"228 85 LINE",
"259 19 OFFCURVE",
"315 -14 OFFCURVE",
"389 -14 CURVE SMOOTH",
"532 -14 OFFCURVE",
"618 90 OFFCURVE",
"618 263 CURVE SMOOTH",
"618 436 OFFCURVE",
"532 540 OFFCURVE",
"389 540 CURVE SMOOTH",
"315 540 OFFCURVE",
"259 508 OFFCURVE",
"228 446 CURVE",
"223 446 LINE",
"223 750 LINE"
);
},
{
closed = 1;
nodes = (
"266 106 OFFCURVE",
"223 161 OFFCURVE",
"223 263 CURVE SMOOTH",
"223 365 OFFCURVE",
"266 420 OFFCURVE",
"347 420 CURVE SMOOTH",
"432 420 OFFCURVE",
"473 370 OFFCURVE",
"473 263 CURVE SMOOTH",
"473 156 OFFCURVE",
"432 106 OFFCURVE",
"347 106 CURVE SMOOTH"
);
}
);
width = 668;
}
);
leftMetricsKey = h;
rightMetricsKey = o;
unicode = 00FE;
},
{
glyphname = q;
lastChange = "2017-08-30 09:00:31 +0000";
layers = (
{
background = {
paths = (
{
closed = 1;
nodes = (
"585 -195 LINE",
"585 525 LINE",
"462 525 LINE",
"447 440 LINE",
"440 440 LINE",
"409 506 OFFCURVE",
"353 540 OFFCURVE",
"279 540 CURVE SMOOTH",
"136 540 OFFCURVE",
"50 435 OFFCURVE",
"50 262 CURVE SMOOTH",
"50 89 OFFCURVE",
"136 -15 OFFCURVE",
"279 -15 CURVE SMOOTH",
"353 -15 OFFCURVE",
"409 17 OFFCURVE",
"440 79 CURVE",
"445 79 LINE",
"445 -195 LINE"
);
},
{
closed = 1;
nodes = (
"236 105 OFFCURVE",
"195 155 OFFCURVE",
"195 262 CURVE SMOOTH",
"195 369 OFFCURVE",
"236 420 OFFCURVE",
"321 420 CURVE SMOOTH",
"402 420 OFFCURVE",
"445 364 OFFCURVE",
"445 262 CURVE SMOOTH",
"445 160 OFFCURVE",
"402 105 OFFCURVE",
"321 105 CURVE SMOOTH"
);
}
);
};
layerId = "3F6440D7-FC3E-4965-8B72-FDD88F2A8137";
paths = (
{
closed = 1;
nodes = (
"585 -195 LINE",
"585 525 LINE",
"462 525 LINE",
"447 440 LINE",
"440 440 LINE",
"409 506 OFFCURVE",
"353 540 OFFCURVE",
"279 540 CURVE SMOOTH",
"136 540 OFFCURVE",
"50 435 OFFCURVE",
"50 262 CURVE SMOOTH",
"50 89 OFFCURVE",
"136 -15 OFFCURVE",
"279 -15 CURVE SMOOTH",
"353 -15 OFFCURVE",
"409 17 OFFCURVE",
"440 79 CURVE",
"445 79 LINE",
"445 -195 LINE"
);
},
{
closed = 1;
nodes = (
"236 105 OFFCURVE",
"195 155 OFFCURVE",
"195 262 CURVE SMOOTH",
"195 369 OFFCURVE",
"236 420 OFFCURVE",
"321 420 CURVE SMOOTH",
"402 420 OFFCURVE",
"445 364 OFFCURVE",
"445 262 CURVE SMOOTH",
"445 160 OFFCURVE",
"402 105 OFFCURVE",
"321 105 CURVE SMOOTH"
);
}
);
width = 668;
}
);
leftMetricsKey = o;
rightMetricsKey = idotless;
unicode = 0071;
userData = {
RMXScaler = {
source = q;
};
};
},
{
glyphname = r;
lastChange = "2017-08-30 09:00:31 +0000";
layers = (
{
anchors = (
{
name = bottom;
position = "{149, 0}";
},
{
name = top;
position = "{264, 525}";
}
);
background = {
anchors = (
{
name = bottom;
position = "{149, 0}";
},
{
name = top;
position = "{264, 525}";
}
);
paths = (
{
closed = 1;
nodes = (
"241 431 LINE",
"220 431 LINE",
"204 525 LINE",
"81 525 LINE",
"81 0 LINE",
"221 0 LINE",
"221 291 LINE SMOOTH",
"221 366 OFFCURVE",
"281 405 OFFCURVE",
"357 405 CURVE SMOOTH",
"379 405 OFFCURVE",
"398 403 OFFCURVE",
"414 400 CURVE",
"414 535 LINE",
"401 538 OFFCURVE",
"384 540 OFFCURVE",
"365 540 CURVE SMOOTH",
"281 540 OFFCURVE",
"230 486 OFFCURVE",
"207 354 CURVE"
);
}
);
};
layerId = "3F6440D7-FC3E-4965-8B72-FDD88F2A8137";
paths = (
{
closed = 1;
nodes = (
"241 431 LINE",
"220 431 LINE",
"204 525 LINE",
"81 525 LINE",
"81 0 LINE",
"221 0 LINE",
"221 291 LINE SMOOTH",
"221 366 OFFCURVE",
"281 405 OFFCURVE",
"357 405 CURVE SMOOTH",
"379 405 OFFCURVE",
"398 403 OFFCURVE",
"414 400 CURVE",
"414 535 LINE",
"401 538 OFFCURVE",
"384 540 OFFCURVE",
"365 540 CURVE SMOOTH",
"281 540 OFFCURVE",
"230 486 OFFCURVE",
"207 354 CURVE"
);
}
);
width = 424;
}
);
leftMetricsKey = n;
unicode = 0072;
userData = {
RMXScaler = {
source = r;
};
};
},
{
color = 4;
glyphname = s;
lastChange = "2017-08-30 09:00:31 +0000";
layers = (
{
anchors = (
{
name = bottom;
position = "{284, 0}";
},
{
name = top;
position = "{277, 525}";
}
);
background = {
anchors = (
{
name = bottom;
position = "{284, 0}";
},
{
name = top;
position = "{277, 525}";
}
);
paths = (
{
closed = 1;
nodes = (
"403 -15 OFFCURVE",
"506 51 OFFCURVE",
"506 171 CURVE SMOOTH",
"506 252 OFFCURVE",
"450 293 OFFCURVE",
"345 312 CURVE SMOOTH",
"272 325 LINE SMOOTH",
"229 333 OFFCURVE",
"211 350 OFFCURVE",
"211 376 CURVE SMOOTH",
"211 414 OFFCURVE",
"242 435 OFFCURVE",
"299 435 CURVE SMOOTH",
"362 435 OFFCURVE",
"384 418 OFFCURVE",
"384 373 CURVE",
"520 373 LINE",
"524 481 OFFCURVE",
"461 540 OFFCURVE",
"304 540 CURVE SMOOTH",
"164 540 OFFCURVE",
"75 482 OFFCURVE",
"75 361 CURVE SMOOTH",
"75 276 OFFCURVE",
"132 233 OFFCURVE",
"224 217 CURVE SMOOTH",
"297 204 LINE SMOOTH",
"353 194 OFFCURVE",
"370 178 OFFCURVE",
"370 151 CURVE SMOOTH",
"370 109 OFFCURVE",
"329 90 OFFCURVE",
"271 90 CURVE SMOOTH",
"202 90 OFFCURVE",
"169 109 OFFCURVE",
"169 157 CURVE",
"33 157 LINE",
"33 39 OFFCURVE",
"108 -15 OFFCURVE",
"269 -15 CURVE SMOOTH"
);
}
);
};
guideLines = (
{
angle = 259.996;
position = "{272, 249}";
showMeasurement = 1;
},
{
angle = -10.0975;
position = "{224, 217}";
}
);
layerId = "3F6440D7-FC3E-4965-8B72-FDD88F2A8137";
paths = (
{
closed = 1;
nodes = (
"403 -15 OFFCURVE",
"506 51 OFFCURVE",
"506 171 CURVE SMOOTH",
"506 252 OFFCURVE",
"450 293 OFFCURVE",
"345 312 CURVE SMOOTH",
"272 325 LINE SMOOTH",
"229 333 OFFCURVE",
"211 350 OFFCURVE",
"211 376 CURVE SMOOTH",
"211 414 OFFCURVE",
"242 435 OFFCURVE",
"299 435 CURVE SMOOTH",
"362 435 OFFCURVE",
"384 418 OFFCURVE",
"384 373 CURVE",
"520 373 LINE",
"524 481 OFFCURVE",
"461 540 OFFCURVE",
"304 540 CURVE SMOOTH",
"164 540 OFFCURVE",
"75 482 OFFCURVE",
"75 361 CURVE SMOOTH",
"75 276 OFFCURVE",
"132 233 OFFCURVE",
"224 217 CURVE SMOOTH",
"297 204 LINE SMOOTH",
"353 194 OFFCURVE",
"370 178 OFFCURVE",
"370 151 CURVE SMOOTH",
"370 109 OFFCURVE",
"329 90 OFFCURVE",
"271 90 CURVE SMOOTH",
"202 90 OFFCURVE",
"169 109 OFFCURVE",
"169 157 CURVE",
"33 157 LINE",
"33 39 OFFCURVE",
"108 -15 OFFCURVE",
"269 -15 CURVE SMOOTH"
);
}
);
width = 573;
}
);
unicode = 0073;
userData = {
RMXScaler = {
source = s;
};
};
},
{
color = 4;
glyphname = germandbls;
lastChange = "2017-08-30 09:00:31 +0000";
layers = (
{
background = {
paths = (
{
closed = 1;
nodes = (
"591 691 OFFCURVE",
"509 765 OFFCURVE",
"343 765 CURVE SMOOTH",
"166 765 OFFCURVE",
"84 676 OFFCURVE",
"84 456 CURVE SMOOTH",
"84 0 LINE",
"224 0 LINE",
"224 477 LINE SMOOTH",
"224 598 OFFCURVE",
"256 648 OFFCURVE",
"341 648 CURVE SMOOTH",
"417 648 OFFCURVE",
"459 611 OFFCURVE",
"459 536 CURVE SMOOTH",
"459 465 OFFCURVE",
"425 428 OFFCURVE",
"335 428 CURVE SMOOTH",
"325 428 LINE",
"325 313 LINE",
"345 313 LINE SMOOTH",
"445 313 OFFCURVE",
"511 282 OFFCURVE",
"511 206 CURVE SMOOTH",
"511 128 OFFCURVE",
"468 102 OFFCURVE",
"395 102 CURVE SMOOTH",
"359 102 OFFCURVE",
"330 105 OFFCURVE",
"295 110 CURVE",
"295 0 LINE",
"335 -8 OFFCURVE",
"380 -15 OFFCURVE",
"425 -15 CURVE SMOOTH",
"583 -15 OFFCURVE",
"646 55 OFFCURVE",
"646 190 CURVE SMOOTH",
"646 310 OFFCURVE",
"567 375 OFFCURVE",
"463 378 CURVE",
"463 386 LINE",
"537 394 OFFCURVE",
"591 466 OFFCURVE",
"591 556 CURVE SMOOTH"
);
}
);
};
layerId = "3F6440D7-FC3E-4965-8B72-FDD88F2A8137";
paths = (
{
closed = 1;
nodes = (
"591 681 OFFCURVE",
"509 765 OFFCURVE",
"343 765 CURVE SMOOTH",
"166 765 OFFCURVE",
"84 686 OFFCURVE",
"84 466 CURVE SMOOTH",
"84 0 LINE",
"224 0 LINE",
"224 480 LINE SMOOTH",
"224 601 OFFCURVE",
"256 648 OFFCURVE",
"341 648 CURVE SMOOTH",
"417 648 OFFCURVE",
"459 616 OFFCURVE",
"459 546 CURVE SMOOTH",
"459 480 OFFCURVE",
"415 433 OFFCURVE",
"335 433 CURVE SMOOTH",
"325 433 LINE",
"325 328 LINE",
"345 328 LINE SMOOTH",
"445 328 OFFCURVE",
"511 302 OFFCURVE",
"511 216 CURVE SMOOTH",
"511 133 OFFCURVE",
"468 102 OFFCURVE",
"395 102 CURVE SMOOTH",
"359 102 OFFCURVE",
"330 105 OFFCURVE",
"295 110 CURVE",
"295 0 LINE",
"335 -8 OFFCURVE",
"380 -15 OFFCURVE",
"425 -15 CURVE SMOOTH",
"583 -15 OFFCURVE",
"646 55 OFFCURVE",
"646 190 CURVE SMOOTH",
"646 315 OFFCURVE",
"567 380 OFFCURVE",
"463 383 CURVE",
"463 391 LINE",
"537 399 OFFCURVE",
"591 476 OFFCURVE",
"591 561 CURVE SMOOTH"
);
}
);
width = 691;
}
);
unicode = 00DF;
},
{
glyphname = t;
lastChange = "2017-08-30 09:00:31 +0000";
layers = (
{
anchors = (
{
name = bottom;
position = "{265, 0}";
},
{
name = topright;
position = "{349, 525}";
}
);
background = {
anchors = (
{
name = bottom;
position = "{265, 0}";
},
{
name = topright;
position = "{349, 525}";
}
);
paths = (
{
closed = 1;
nodes = (
"20 410 LINE",
"403 410 LINE",
"403 525 LINE",
"20 525 LINE"
);
},
{
closed = 1;
nodes = (
"398 105 LINE",
"388 103 OFFCURVE",
"350 100 OFFCURVE",
"330 100 CURVE SMOOTH",
"280 100 OFFCURVE",
"255 122 OFFCURVE",
"255 184 CURVE SMOOTH",
"255 670 LINE",
"139 670 LINE",
"115 525 LINE",
"115 161 LINE SMOOTH",
"115 41 OFFCURVE",
"174 -15 OFFCURVE",
"299 -15 CURVE SMOOTH",
"340 -15 OFFCURVE",
"379 -9 OFFCURVE",
"398 -5 CURVE"
);
}
);
};
layerId = "3F6440D7-FC3E-4965-8B72-FDD88F2A8137";
paths = (
{
closed = 1;
nodes = (
"20 410 LINE",
"403 410 LINE",
"403 525 LINE",
"20 525 LINE"
);
},
{
closed = 1;
nodes = (
"398 105 LINE",
"388 103 OFFCURVE",
"350 100 OFFCURVE",
"330 100 CURVE SMOOTH",
"280 100 OFFCURVE",
"255 122 OFFCURVE",
"255 184 CURVE SMOOTH",
"255 670 LINE",
"139 670 LINE",
"115 525 LINE",
"115 161 LINE SMOOTH",
"115 41 OFFCURVE",
"174 -15 OFFCURVE",
"299 -15 CURVE SMOOTH",
"340 -15 OFFCURVE",
"379 -9 OFFCURVE",
"398 -5 CURVE"
);
}
);
width = 441;
}
);
unicode = 0074;
userData = {
RMXScaler = {
source = t;
};
};
},
{
color = 4;
glyphname = tbar;
lastChange = "2017-08-30 09:00:31 +0000";
layers = (
{
background = {
paths = (
{
closed = 1;
nodes = (
"20 410 LINE",
"403 410 LINE",
"403 525 LINE",
"20 525 LINE"
);
},
{
closed = 1;
nodes = (
"398 105 LINE",
"388 103 OFFCURVE",
"350 100 OFFCURVE",
"330 100 CURVE SMOOTH",
"280 100 OFFCURVE",
"255 122 OFFCURVE",
"255 184 CURVE SMOOTH",
"255 670 LINE",
"139 670 LINE",
"115 525 LINE",
"115 161 LINE SMOOTH",
"115 41 OFFCURVE",
"174 -15 OFFCURVE",
"299 -15 CURVE SMOOTH",
"340 -15 OFFCURVE",
"379 -9 OFFCURVE",
"398 -5 CURVE"
);
},
{
closed = 1;
nodes = (
"30 210 LINE",
"373 210 LINE",
"373 315 LINE",
"30 315 LINE"
);
}
);
};
layerId = "3F6440D7-FC3E-4965-8B72-FDD88F2A8137";
paths = (
{
closed = 1;
nodes = (
"20 410 LINE",
"403 410 LINE",
"403 525 LINE",
"20 525 LINE"
);
},
{
closed = 1;
nodes = (
"398 105 LINE",
"388 103 OFFCURVE",
"350 100 OFFCURVE",
"330 100 CURVE SMOOTH",
"275 100 OFFCURVE",
"250 122 OFFCURVE",
"250 184 CURVE SMOOTH",
"250 670 LINE",
"139 670 LINE",
"115 525 LINE",
"115 161 LINE SMOOTH",
"115 41 OFFCURVE",
"174 -15 OFFCURVE",
"299 -15 CURVE SMOOTH",
"340 -15 OFFCURVE",
"379 -9 OFFCURVE",
"398 -5 CURVE"
);
},
{
closed = 1;
nodes = (
"30 210 LINE",
"383 210 LINE",
"383 315 LINE",
"30 315 LINE"
);
}
);
width = 441;
}
);
unicode = 0167;
},
{
glyphname = u;
lastChange = "2017-08-30 09:00:31 +0000";
layers = (
{
anchors = (
{
name = ogonek;
position = "{538, 0}";
},
{
name = top;
position = "{313, 525}";
}
);
background = {
anchors = (
{
name = ogonek;
position = "{538, 0}";
},
{
name = top;
position = "{313, 525}";
}
);
paths = (
{
closed = 1;
nodes = (
"416 525 LINE",
"416 237 LINE SMOOTH",
"416 157 OFFCURVE",
"370 110 OFFCURVE",
"304 110 CURVE SMOOTH",
"246 110 OFFCURVE",
"218 144 OFFCURVE",
"218 223 CURVE SMOOTH",
"218 525 LINE",
"78 525 LINE",
"78 175 LINE SMOOTH",
"78 54 OFFCURVE",
"135 -15 OFFCURVE",
"247 -15 CURVE SMOOTH",
"336 -15 OFFCURVE",
"382 31 OFFCURVE",
"419 101 CURVE",
"399 88 LINE",
"434 88 LINE",
"416 98 LINE",
"433 0 LINE",
"556 0 LINE",
"556 525 LINE"
);
}
);
};
layerId = "3F6440D7-FC3E-4965-8B72-FDD88F2A8137";
paths = (
{
closed = 1;
nodes = (
"416 525 LINE",
"416 237 LINE SMOOTH",
"416 157 OFFCURVE",
"370 110 OFFCURVE",
"304 110 CURVE SMOOTH",
"246 110 OFFCURVE",
"218 144 OFFCURVE",
"218 223 CURVE SMOOTH",
"218 525 LINE",
"78 525 LINE",
"78 175 LINE SMOOTH",
"78 54 OFFCURVE",
"135 -15 OFFCURVE",
"247 -15 CURVE SMOOTH",
"336 -15 OFFCURVE",
"382 31 OFFCURVE",
"419 101 CURVE",
"399 88 LINE",
"434 88 LINE",
"416 98 LINE",
"433 0 LINE",
"556 0 LINE",
"556 525 LINE"
);
}
);
width = 639;
}
);
rightMetricsKey = idotless;
unicode = 0075;
userData = {
RMXScaler = {
source = u;
};
};
},
{
glyphname = uogonek;
lastChange = "2017-08-30 09:00:31 +0000";
layers = (
{
background = {
paths = (
{
closed = 1;
nodes = (
"227 -13 OFFCURVE",
"263 26 OFFCURVE",
"288 57 CURVE",
"301 -7 LINE",
"383 0 LINE",
"371 141 LINE",
"371 553 LINE",
"276 553 LINE",
"276 141 LINE",
"261 117 OFFCURVE",
"227 73 OFFCURVE",
"190 73 CURVE SMOOTH",
"150 73 OFFCURVE",
"139 99 OFFCURVE",
"139 156 CURVE SMOOTH",
"139 553 LINE",
"44 553 LINE",
"44 154 LINE SMOOTH",
"44 39 OFFCURVE",
"82 -13 OFFCURVE",
"167 -13 CURVE SMOOTH"
);
},
{
closed = 1;
nodes = (
"276 -6 OFFCURVE",
"219 -44 OFFCURVE",
"219 -111 CURVE SMOOTH",
"219 -169 OFFCURVE",
"263 -200 OFFCURVE",
"317 -200 CURVE SMOOTH",
"350 -200 OFFCURVE",
"376 -192 OFFCURVE",
"398 -179 CURVE",
"380 -111 LINE",
"364 -116 OFFCURVE",
"351 -119 OFFCURVE",
"337 -119 CURVE SMOOTH",
"321 -119 OFFCURVE",
"306 -112 OFFCURVE",
"306 -91 CURVE SMOOTH",
"306 -55 OFFCURVE",
"349 -23 OFFCURVE",
"383 0 CURVE",
"315 25 LINE"
);
}
);
};
components = (
{
name = u;
},
{
name = ogonekcomb;
transform = "{1, 0, 0, 1, 533, 0}";
}
);
layerId = "3F6440D7-FC3E-4965-8B72-FDD88F2A8137";
width = 639;
}
);
leftKerningGroup = u;
leftMetricsKey = u;
rightKerningGroup = a;
unicode = 0173;
},
{
glyphname = v;
lastChange = "2017-08-30 09:00:31 +0000";
layers = (
{
background = {
paths = (
{
closed = 1;
nodes = (
"288 120 LINE",
"282 120 LINE",
"155 525 LINE",
"5 525 LINE",
"190 0 LINE",
"376 0 LINE",
"561 525 LINE",
"414 525 LINE"
);
}
);
};
layerId = "3F6440D7-FC3E-4965-8B72-FDD88F2A8137";
paths = (
{
closed = 1;
nodes = (
"288 120 LINE",
"282 120 LINE",
"155 525 LINE",
"5 525 LINE",
"190 0 LINE",
"376 0 LINE",
"561 525 LINE",
"414 525 LINE"
);
}
);
width = 566;
}
);
unicode = 0076;
userData = {
RMXScaler = {
source = v;
};
};
},
{
glyphname = w;
lastChange = "2017-08-30 09:00:31 +0000";
layers = (
{
anchors = (
{
name = top;
position = "{432, 525}";
}
);
background = {
anchors = (
{
name = top;
position = "{432, 525}";
}
);
paths = (
{
closed = 1;
nodes = (
"619 130 LINE",
"613 130 LINE",
"517 525 LINE",
"354 525 LINE",
"261 130 LINE",
"255 130 LINE",
"155 525 LINE",
"5 525 LINE",
"160 0 LINE",
"343 0 LINE",
"432 385 LINE",
"436 385 LINE",
"523 0 LINE",
"706 0 LINE",
"861 525 LINE",
"716 525 LINE"
);
}
);
};
layerId = "3F6440D7-FC3E-4965-8B72-FDD88F2A8137";
paths = (
{
closed = 1;
nodes = (
"619 130 LINE",
"613 130 LINE",
"517 525 LINE",
"354 525 LINE",
"261 130 LINE",
"255 130 LINE",
"155 525 LINE",
"5 525 LINE",
"160 0 LINE",
"343 0 LINE",
"432 385 LINE",
"436 385 LINE",
"523 0 LINE",
"706 0 LINE",
"861 525 LINE",
"716 525 LINE"
);
}
);
width = 866;
}
);
unicode = 0077;
userData = {
RMXScaler = {
source = w;
};
};
},
{
glyphname = x;
lastChange = "2017-08-30 09:00:31 +0000";
layers = (
{
background = {
paths = (
{
closed = 1;
nodes = (
"175 0 LINE",
"301 224 LINE",
"356 224 LINE",
"543 525 LINE",
"388 525 LINE",
"262 306 LINE",
"207 306 LINE",
"20 0 LINE"
);
},
{
closed = 1;
nodes = (
"543 0 LINE",
"335 341 LINE",
"280 341 LINE",
"175 525 LINE",
"20 525 LINE",
"225 183 LINE",
"280 183 LINE",
"388 0 LINE"
);
}
);
};
layerId = "3F6440D7-FC3E-4965-8B72-FDD88F2A8137";
paths = (
{
closed = 1;
nodes = (
"175 0 LINE",
"301 224 LINE",
"356 224 LINE",
"543 525 LINE",
"388 525 LINE",
"262 306 LINE",
"207 306 LINE",
"20 0 LINE"
);
},
{
closed = 1;
nodes = (
"543 0 LINE",
"335 341 LINE",
"280 341 LINE",
"175 525 LINE",
"20 525 LINE",
"225 183 LINE",
"280 183 LINE",
"388 0 LINE"
);
}
);
width = 563;
}
);
unicode = 0078;
userData = {
RMXScaler = {
source = x;
};
};
},
{
glyphname = y;
lastChange = "2017-08-30 09:00:31 +0000";
layers = (
{
anchors = (
{
name = top;
position = "{283, 525}";
}
);
background = {
anchors = (
{
name = top;
position = "{283, 525}";
}
);
paths = (
{
closed = 1;
nodes = (
"297 124 LINE",
"291 124 LINE",
"155 525 LINE",
"5 525 LINE",
"200 0 LINE",
"305 0 LINE",
"276 43 LINE",
"240 -59 OFFCURVE",
"209 -95 OFFCURVE",
"137 -95 CURVE SMOOTH",
"113 -95 OFFCURVE",
"79 -92 OFFCURVE",
"50 -87 CURVE",
"50 -199 LINE",
"83 -206 OFFCURVE",
"107 -210 OFFCURVE",
"150 -210 CURVE SMOOTH",
"292 -210 OFFCURVE",
"343 -124 OFFCURVE",
"385 0 CURVE SMOOTH",
"561 525 LINE",
"414 525 LINE"
);
}
);
};
guideLines = (
{
angle = 90;
position = "{283, 393}";
}
);
layerId = "3F6440D7-FC3E-4965-8B72-FDD88F2A8137";
paths = (
{
closed = 1;
nodes = (
"297 124 LINE",
"291 124 LINE",
"155 525 LINE",
"5 525 LINE",
"200 0 LINE",
"305 0 LINE",
"276 43 LINE",
"240 -59 OFFCURVE",
"209 -95 OFFCURVE",
"137 -95 CURVE SMOOTH",
"113 -95 OFFCURVE",
"79 -92 OFFCURVE",
"50 -87 CURVE",
"50 -199 LINE",
"83 -206 OFFCURVE",
"107 -210 OFFCURVE",
"150 -210 CURVE SMOOTH",
"292 -210 OFFCURVE",
"343 -124 OFFCURVE",
"385 0 CURVE SMOOTH",
"561 525 LINE",
"414 525 LINE"
);
}
);
width = 566;
}
);
leftMetricsKey = v;
rightMetricsKey = v;
unicode = 0079;
userData = {
RMXScaler = {
source = y;
};
};
},
{
glyphname = z;
lastChange = "2017-08-30 09:00:31 +0000";
layers = (
{
anchors = (
{
name = top;
position = "{268, 525}";
}
);
background = {
anchors = (
{
name = top;
position = "{268, 525}";
}
);
paths = (
{
closed = 1;
nodes = (
"227 120 LINE",
"484 415 LINE",
"484 525 LINE",
"68 525 LINE",
"68 410 LINE",
"310 410 LINE",
"310 405 LINE",
"53 110 LINE",
"53 0 LINE",
"479 0 LINE",
"479 115 LINE",
"227 115 LINE"
);
}
);
};
layerId = "3F6440D7-FC3E-4965-8B72-FDD88F2A8137";
paths = (
{
closed = 1;
nodes = (
"227 120 LINE",
"484 415 LINE",
"484 525 LINE",
"68 525 LINE",
"68 410 LINE",
"310 410 LINE",
"310 405 LINE",
"53 110 LINE",
"53 0 LINE",
"479 0 LINE",
"479 115 LINE",
"227 115 LINE"
);
}
);
width = 537;
}
);
unicode = 007A;
userData = {
RMXScaler = {
source = z;
};
};
},
{
color = 4;
glyphname = y.001;
lastChange = "2017-08-30 09:00:31 +0000";
layers = (
{
background = {
paths = (
{
closed = 1;
nodes = (
"277 79 LINE",
"335 120 LINE",
"238 120 LINE",
"297 79 LINE",
"155 525 LINE",
"5 525 LINE",
"194 0 LINE",
"380 0 LINE",
"569 525 LINE",
"419 525 LINE"
);
}
);
};
guideLines = (
{
angle = 90;
position = "{283, 393}";
}
);
layerId = "3F6440D7-FC3E-4965-8B72-FDD88F2A8137";
paths = (
{
closed = 1;
nodes = (
"290 120 LINE",
"284 120 LINE",
"155 525 LINE",
"5 525 LINE",
"194 0 LINE",
"295 0 LINE",
"266 43 LINE",
"169 -195 LINE",
"309 -195 LINE",
"569 525 LINE",
"422 525 LINE"
);
}
);
width = 574;
}
);
leftMetricsKey = "=v";
rightMetricsKey = "=v";
},
{
color = 4;
glyphname = a.ss01;
lastChange = "2017-08-30 09:00:31 +0000";
layers = (
{
anchors = (
{
name = ogonek;
position = "{564, 0}";
},
{
name = top;
position = "{333, 525}";
}
);
layerId = "3F6440D7-FC3E-4965-8B72-FDD88F2A8137";
paths = (
{
closed = 1;
nodes = (
"442 446 LINE",
"437 446 LINE",
"406 508 OFFCURVE",
"350 540 OFFCURVE",
"276 540 CURVE SMOOTH",
"133 540 OFFCURVE",
"47 436 OFFCURVE",
"47 263 CURVE SMOOTH",
"47 90 OFFCURVE",
"133 -14 OFFCURVE",
"276 -14 CURVE SMOOTH",
"350 -14 OFFCURVE",
"406 19 OFFCURVE",
"437 85 CURVE",
"444 85 LINE",
"459 0 LINE",
"582 0 LINE",
"582 525 LINE",
"442 525 LINE"
);
},
{
closed = 1;
nodes = (
"233 106 OFFCURVE",
"192 156 OFFCURVE",
"192 263 CURVE SMOOTH",
"192 370 OFFCURVE",
"233 420 OFFCURVE",
"318 420 CURVE SMOOTH",
"399 420 OFFCURVE",
"442 365 OFFCURVE",
"442 263 CURVE SMOOTH",
"442 161 OFFCURVE",
"399 106 OFFCURVE",
"318 106 CURVE SMOOTH"
);
}
);
width = 662;
}
);
},
{
color = 4;
glyphname = zero;
lastChange = "2017-08-30 09:00:31 +0000";
layers = (
{
background = {
paths = (
{
closed = 1;
nodes = (
"521 -15 OFFCURVE",
"632 89 OFFCURVE",
"632 335 CURVE SMOOTH",
"632 581 OFFCURVE",
"521 685 OFFCURVE",
"345 685 CURVE SMOOTH",
"169 685 OFFCURVE",
"58 581 OFFCURVE",
"58 335 CURVE SMOOTH",
"58 89 OFFCURVE",
"169 -15 OFFCURVE",
"345 -15 CURVE SMOOTH"
);
},
{
closed = 1;
nodes = (
"260 110 OFFCURVE",
"208 164 OFFCURVE",
"208 335 CURVE SMOOTH",
"208 506 OFFCURVE",
"260 560 OFFCURVE",
"345 560 CURVE SMOOTH",
"430 560 OFFCURVE",
"482 506 OFFCURVE",
"482 335 CURVE SMOOTH",
"482 164 OFFCURVE",
"430 110 OFFCURVE",
"345 110 CURVE SMOOTH"
);
}
);
};
layerId = "3F6440D7-FC3E-4965-8B72-FDD88F2A8137";
paths = (
{
closed = 1;
nodes = (
"521 -15 OFFCURVE",
"630 89 OFFCURVE",
"630 355 CURVE SMOOTH",
"630 621 OFFCURVE",
"521 725 OFFCURVE",
"345 725 CURVE SMOOTH",
"169 725 OFFCURVE",
"60 621 OFFCURVE",
"60 355 CURVE SMOOTH",
"60 89 OFFCURVE",
"169 -15 OFFCURVE",
"345 -15 CURVE SMOOTH"
);
},
{
closed = 1;
nodes = (
"255 110 OFFCURVE",
"208 164 OFFCURVE",
"208 355 CURVE SMOOTH",
"208 546 OFFCURVE",
"255 600 OFFCURVE",
"345 600 CURVE SMOOTH",
"435 600 OFFCURVE",
"482 546 OFFCURVE",
"482 355 CURVE SMOOTH",
"482 164 OFFCURVE",
"435 110 OFFCURVE",
"345 110 CURVE SMOOTH"
);
}
);
width = 690;
}
);
unicode = 0030;
},
{
color = 4;
glyphname = one;
lastChange = "2017-08-30 09:00:31 +0000";
layers = (
{
background = {
paths = (
{
closed = 1;
nodes = (
"344 0 LINE",
"344 710 LINE",
"208 710 LINE",
"30 638 LINE",
"30 508 LINE",
"198 565 LINE",
"198 0 LINE"
);
},
{
closed = 1;
nodes = (
"476 0 LINE",
"476 125 LINE",
"10 125 LINE",
"10 0 LINE"
);
}
);
};
layerId = "3F6440D7-FC3E-4965-8B72-FDD88F2A8137";
paths = (
{
closed = 1;
nodes = (
"344 0 LINE",
"344 710 LINE",
"208 710 LINE",
"30 638 LINE",
"30 508 LINE",
"198 565 LINE",
"198 0 LINE"
);
}
);
width = 454;
}
);
unicode = 0031;
},
{
color = 4;
glyphname = two;
lastChange = "2017-08-30 09:00:31 +0000";
layers = (
{
background = {
paths = (
{
closed = 1;
nodes = (
"236 475 LINE",
"246 541 OFFCURVE",
"270 603 OFFCURVE",
"354 603 CURVE SMOOTH",
"425 603 OFFCURVE",
"456 568 OFFCURVE",
"456 506 CURVE SMOOTH",
"456 414 OFFCURVE",
"351 337 OFFCURVE",
"238 244 CURVE SMOOTH",
"88 120 LINE",
"88 0 LINE",
"598 0 LINE",
"598 125 LINE",
"277 125 LINE",
"277 131 LINE",
"368 198 LINE SMOOTH",
"490 288 OFFCURVE",
"603 363 OFFCURVE",
"603 508 CURVE SMOOTH",
"603 645 OFFCURVE",
"517 725 OFFCURVE",
"352 725 CURVE SMOOTH",
"172 725 OFFCURVE",
"103 611 OFFCURVE",
"93 475 CURVE"
);
}
);
};
layerId = "3F6440D7-FC3E-4965-8B72-FDD88F2A8137";
paths = (
{
closed = 1;
nodes = (
"228 475 LINE",
"238 541 OFFCURVE",
"262 603 OFFCURVE",
"354 603 CURVE SMOOTH",
"433 603 OFFCURVE",
"464 568 OFFCURVE",
"464 506 CURVE SMOOTH",
"464 414 OFFCURVE",
"353 335 OFFCURVE",
"238 244 CURVE SMOOTH",
"80 120 LINE",
"80 0 LINE",
"606 0 LINE",
"606 125 LINE",
"269 125 LINE",
"269 131 LINE",
"368 198 LINE SMOOTH",
"500 287 OFFCURVE",
"611 363 OFFCURVE",
"611 508 CURVE SMOOTH",
"611 645 OFFCURVE",
"525 725 OFFCURVE",
"352 725 CURVE SMOOTH",
"164 725 OFFCURVE",
"95 611 OFFCURVE",
"85 475 CURVE"
);
}
);
width = 681;
}
);
unicode = 0032;
},
{
color = 4;
glyphname = three;
lastChange = "2017-08-30 09:00:31 +0000";
layers = (
{
background = {
paths = (
{
closed = 1;
nodes = (
"270 310 LINE",
"320 310 LINE SMOOTH",
"425 310 OFFCURVE",
"481 282 OFFCURVE",
"481 206 CURVE SMOOTH",
"481 138 OFFCURVE",
"433 101 OFFCURVE",
"350 102 CURVE SMOOTH",
"274 103 OFFCURVE",
"235 127 OFFCURVE",
"222 195 CURVE",
"80 195 LINE",
"82 62 OFFCURVE",
"178 -15 OFFCURVE",
"350 -15 CURVE SMOOTH",
"524 -15 OFFCURVE",
"627 55 OFFCURVE",
"627 190 CURVE SMOOTH",
"627 300 OFFCURVE",
"548 343 OFFCURVE",
"468 358 CURVE",
"468 366 LINE",
"528 374 OFFCURVE",
"608 434 OFFCURVE",
"607 534 CURVE SMOOTH",
"606 650 OFFCURVE",
"515 725 OFFCURVE",
"357 725 CURVE SMOOTH",
"181 725 OFFCURVE",
"105 641 OFFCURVE",
"95 515 CURVE",
"237 515 LINE",
"247 578 OFFCURVE",
"284 608 OFFCURVE",
"356 608 CURVE SMOOTH",
"426 608 OFFCURVE",
"465 580 OFFCURVE",
"465 513 CURVE SMOOTH",
"465 442 OFFCURVE",
"410 406 OFFCURVE",
"310 406 CURVE SMOOTH",
"270 406 LINE"
);
}
);
};
layerId = "3F6440D7-FC3E-4965-8B72-FDD88F2A8137";
paths = (
{
closed = 1;
nodes = (
"270 310 LINE",
"320 310 LINE SMOOTH",
"430 310 OFFCURVE",
"486 282 OFFCURVE",
"486 206 CURVE SMOOTH",
"486 138 OFFCURVE",
"438 101 OFFCURVE",
"350 102 CURVE SMOOTH",
"269 103 OFFCURVE",
"225 127 OFFCURVE",
"212 195 CURVE",
"70 195 LINE",
"72 62 OFFCURVE",
"173 -15 OFFCURVE",
"350 -15 CURVE SMOOTH",
"529 -15 OFFCURVE",
"632 55 OFFCURVE",
"632 190 CURVE SMOOTH",
"632 310 OFFCURVE",
"543 348 OFFCURVE",
"473 358 CURVE",
"473 366 LINE",
"533 374 OFFCURVE",
"613 434 OFFCURVE",
"612 534 CURVE SMOOTH",
"611 650 OFFCURVE",
"517 725 OFFCURVE",
"354 725 CURVE SMOOTH",
"173 725 OFFCURVE",
"95 641 OFFCURVE",
"85 515 CURVE",
"227 515 LINE",
"237 578 OFFCURVE",
"276 608 OFFCURVE",
"353 608 CURVE SMOOTH",
"428 608 OFFCURVE",
"470 580 OFFCURVE",
"470 513 CURVE SMOOTH",
"470 442 OFFCURVE",
"410 406 OFFCURVE",
"310 406 CURVE SMOOTH",
"270 406 LINE"
);
}
);
width = 697;
}
);
unicode = 0033;
},
{
color = 4;
glyphname = four;
lastChange = "2017-08-30 09:00:31 +0000";
layers = (
{
background = {
paths = (
{
closed = 1;
nodes = (
"321 710 LINE",
"30 246 LINE",
"30 136 LINE",
"397 136 LINE",
"397 0 LINE",
"538 0 LINE",
"538 136 LINE",
"618 136 LINE",
"618 251 LINE",
"538 251 LINE",
"538 710 LINE"
);
},
{
closed = 1;
nodes = (
"179 251 LINE",
"179 258 LINE",
"388 599 LINE",
"397 599 LINE",
"397 251 LINE"
);
}
);
};
layerId = "3F6440D7-FC3E-4965-8B72-FDD88F2A8137";
paths = (
{
closed = 1;
nodes = (
"321 710 LINE",
"20 246 LINE",
"20 136 LINE",
"398 136 LINE",
"398 0 LINE",
"538 0 LINE",
"538 136 LINE",
"618 136 LINE",
"618 251 LINE",
"538 251 LINE",
"538 710 LINE"
);
},
{
closed = 1;
nodes = (
"169 251 LINE",
"169 258 LINE",
"389 599 LINE",
"398 599 LINE",
"398 251 LINE"
);
}
);
width = 678;
}
);
unicode = 0034;
},
{
color = 4;
glyphname = five;
lastChange = "2017-08-30 09:00:31 +0000";
layers = (
{
background = {
paths = (
{
closed = 1;
nodes = (
"80 180 LINE",
"83 55 OFFCURVE",
"171 -15 OFFCURVE",
"337 -15 CURVE SMOOTH",
"505 -15 OFFCURVE",
"602 67 OFFCURVE",
"602 230 CURVE SMOOTH",
"602 393 OFFCURVE",
"524 473 OFFCURVE",
"387 473 CURVE SMOOTH",
"304 473 OFFCURVE",
"263 442 OFFCURVE",
"226 393 CURVE",
"219 393 LINE",
"238 585 LINE",
"567 585 LINE",
"567 710 LINE",
"127 710 LINE",
"90 294 LINE",
"212 294 LINE",
"243 328 OFFCURVE",
"279 361 OFFCURVE",
"339 361 CURVE SMOOTH",
"422 361 OFFCURVE",
"459 327 OFFCURVE",
"459 226 CURVE SMOOTH",
"459 142 OFFCURVE",
"419 102 OFFCURVE",
"339 102 CURVE SMOOTH",
"266 102 OFFCURVE",
"236 123 OFFCURVE",
"222 180 CURVE"
);
}
);
};
layerId = "3F6440D7-FC3E-4965-8B72-FDD88F2A8137";
paths = (
{
closed = 1;
nodes = (
"80 180 LINE",
"83 55 OFFCURVE",
"176 -15 OFFCURVE",
"342 -15 CURVE SMOOTH",
"515 -15 OFFCURVE",
"627 67 OFFCURVE",
"627 230 CURVE SMOOTH",
"627 393 OFFCURVE",
"534 473 OFFCURVE",
"392 473 CURVE SMOOTH",
"309 473 OFFCURVE",
"263 442 OFFCURVE",
"226 393 CURVE",
"219 393 LINE",
"238 585 LINE",
"577 585 LINE",
"577 710 LINE",
"127 710 LINE",
"90 294 LINE",
"212 294 LINE",
"243 328 OFFCURVE",
"289 361 OFFCURVE",
"349 361 CURVE SMOOTH",
"437 361 OFFCURVE",
"484 327 OFFCURVE",
"484 226 CURVE SMOOTH",
"484 142 OFFCURVE",
"424 102 OFFCURVE",
"344 102 CURVE SMOOTH",
"271 102 OFFCURVE",
"236 123 OFFCURVE",
"222 180 CURVE"
);
}
);
width = 682;
}
);
unicode = 0035;
},
{
color = 4;
glyphname = six;
lastChange = "2017-08-30 09:00:31 +0000";
layers = (
{
background = {
paths = (
{
closed = 1;
nodes = (
"598 533 LINE",
"583 639 OFFCURVE",
"506 725 OFFCURVE",
"347 725 CURVE SMOOTH",
"158 725 OFFCURVE",
"60 602 OFFCURVE",
"60 342 CURVE SMOOTH",
"60 111 OFFCURVE",
"152 -15 OFFCURVE",
"339 -15 CURVE SMOOTH",
"494 -15 OFFCURVE",
"604 77 OFFCURVE",
"604 233 CURVE SMOOTH",
"604 386 OFFCURVE",
"511 464 OFFCURVE",
"377 464 CURVE SMOOTH",
"291 464 OFFCURVE",
"232 423 OFFCURVE",
"201 356 CURVE",
"192 356 LINE",
"202 517 OFFCURVE",
"240 605 OFFCURVE",
"339 605 CURVE SMOOTH",
"408 605 OFFCURVE",
"443 569 OFFCURVE",
"453 533 CURVE"
);
},
{
closed = 1;
nodes = (
"223 307 OFFCURVE",
"271 354 OFFCURVE",
"344 354 CURVE SMOOTH",
"417 354 OFFCURVE",
"466 307 OFFCURVE",
"466 227 CURVE SMOOTH",
"466 147 OFFCURVE",
"417 102 OFFCURVE",
"344 102 CURVE SMOOTH",
"271 102 OFFCURVE",
"223 147 OFFCURVE",
"223 227 CURVE SMOOTH"
);
}
);
};
layerId = "3F6440D7-FC3E-4965-8B72-FDD88F2A8137";
paths = (
{
closed = 1;
nodes = (
"595 533 LINE",
"590 639 OFFCURVE",
"506 725 OFFCURVE",
"347 725 CURVE SMOOTH",
"158 725 OFFCURVE",
"60 602 OFFCURVE",
"60 342 CURVE SMOOTH",
"60 106 OFFCURVE",
"157 -15 OFFCURVE",
"344 -15 CURVE SMOOTH",
"519 -15 OFFCURVE",
"615 77 OFFCURVE",
"615 228 CURVE SMOOTH",
"615 376 OFFCURVE",
"524 454 OFFCURVE",
"385 454 CURVE SMOOTH",
"299 454 OFFCURVE",
"234 413 OFFCURVE",
"201 351 CURVE",
"192 351 LINE",
"192 507 OFFCURVE",
"235 608 OFFCURVE",
"344 608 CURVE SMOOTH",
"413 608 OFFCURVE",
"443 579 OFFCURVE",
"453 533 CURVE"
);
},
{
closed = 1;
nodes = (
"221 302 OFFCURVE",
"274 351 OFFCURVE",
"347 351 CURVE SMOOTH",
"425 351 OFFCURVE",
"477 302 OFFCURVE",
"477 222 CURVE SMOOTH",
"477 142 OFFCURVE",
"425 97 OFFCURVE",
"347 97 CURVE SMOOTH",
"274 97 OFFCURVE",
"221 142 OFFCURVE",
"221 222 CURVE SMOOTH"
);
}
);
width = 670;
}
);
unicode = 0036;
},
{
color = 4;
glyphname = seven;
lastChange = "2017-08-30 09:00:31 +0000";
layers = (
{
background = {
paths = (
{
closed = 1;
nodes = (
"40 709 LINE",
"40 584 LINE",
"375 584 LINE",
"375 578 LINE",
"82 0 LINE",
"244 0 LINE",
"529 594 LINE",
"529 709 LINE"
);
}
);
};
layerId = "3F6440D7-FC3E-4965-8B72-FDD88F2A8137";
paths = (
{
closed = 1;
nodes = (
"40 709 LINE",
"40 584 LINE",
"385 584 LINE",
"385 578 LINE",
"92 0 LINE",
"254 0 LINE",
"539 594 LINE",
"539 709 LINE"
);
}
);
width = 559;
}
);
unicode = 0037;
},
{
color = 4;
glyphname = eight;
lastChange = "2017-08-30 09:00:31 +0000";
layers = (
{
background = {
paths = (
{
closed = 1;
nodes = (
"250 95 OFFCURVE",
"196 130 OFFCURVE",
"196 205 CURVE SMOOTH",
"196 280 OFFCURVE",
"250 321 OFFCURVE",
"348 321 CURVE SMOOTH",
"445 321 OFFCURVE",
"500 280 OFFCURVE",
"500 205 CURVE SMOOTH",
"500 130 OFFCURVE",
"445 95 OFFCURVE",
"348 95 CURVE SMOOTH"
);
},
{
closed = 1;
nodes = (
"264 411 OFFCURVE",
"217 451 OFFCURVE",
"217 517 CURVE SMOOTH",
"217 584 OFFCURVE",
"264 615 OFFCURVE",
"348 615 CURVE SMOOTH",
"432 615 OFFCURVE",
"479 583 OFFCURVE",
"479 517 CURVE SMOOTH",
"479 451 OFFCURVE",
"432 411 OFFCURVE",
"348 411 CURVE SMOOTH"
);
},
{
closed = 1;
nodes = (
"539 -15 OFFCURVE",
"646 61 OFFCURVE",
"646 187 CURVE SMOOTH",
"646 297 OFFCURVE",
"561 350 OFFCURVE",
"491 367 CURVE",
"491 375 LINE",
"550 392 OFFCURVE",
"621 433 OFFCURVE",
"621 535 CURVE SMOOTH",
"621 650 OFFCURVE",
"521 725 OFFCURVE",
"348 725 CURVE SMOOTH",
"175 725 OFFCURVE",
"75 651 OFFCURVE",
"75 535 CURVE SMOOTH",
"75 434 OFFCURVE",
"146 393 OFFCURVE",
"203 375 CURVE",
"203 367 LINE",
"138 350 OFFCURVE",
"50 300 OFFCURVE",
"50 187 CURVE SMOOTH",
"50 61 OFFCURVE",
"157 -15 OFFCURVE",
"348 -15 CURVE SMOOTH"
);
}
);
};
layerId = "3F6440D7-FC3E-4965-8B72-FDD88F2A8137";
paths = (
{
closed = 1;
nodes = (
"250 95 OFFCURVE",
"196 130 OFFCURVE",
"196 205 CURVE SMOOTH",
"196 280 OFFCURVE",
"250 316 OFFCURVE",
"348 316 CURVE SMOOTH",
"445 316 OFFCURVE",
"500 280 OFFCURVE",
"500 205 CURVE SMOOTH",
"500 130 OFFCURVE",
"445 95 OFFCURVE",
"348 95 CURVE SMOOTH"
);
},
{
closed = 1;
nodes = (
"264 416 OFFCURVE",
"217 451 OFFCURVE",
"217 517 CURVE SMOOTH",
"217 584 OFFCURVE",
"264 615 OFFCURVE",
"348 615 CURVE SMOOTH",
"432 615 OFFCURVE",
"479 583 OFFCURVE",
"479 517 CURVE SMOOTH",
"479 451 OFFCURVE",
"432 416 OFFCURVE",
"348 416 CURVE SMOOTH"
);
},
{
closed = 1;
nodes = (
"539 -15 OFFCURVE",
"646 61 OFFCURVE",
"646 187 CURVE SMOOTH",
"646 297 OFFCURVE",
"561 350 OFFCURVE",
"491 367 CURVE",
"491 375 LINE",
"550 392 OFFCURVE",
"621 433 OFFCURVE",
"621 535 CURVE SMOOTH",
"621 650 OFFCURVE",
"521 725 OFFCURVE",
"348 725 CURVE SMOOTH",
"175 725 OFFCURVE",
"75 651 OFFCURVE",
"75 535 CURVE SMOOTH",
"75 434 OFFCURVE",
"146 393 OFFCURVE",
"203 375 CURVE",
"203 367 LINE",
"138 350 OFFCURVE",
"50 300 OFFCURVE",
"50 187 CURVE SMOOTH",
"50 61 OFFCURVE",
"157 -15 OFFCURVE",
"348 -15 CURVE SMOOTH"
);
}
);
width = 696;
}
);
unicode = 0038;
},
{
color = 4;
glyphname = asterisk;
lastChange = "2017-08-30 09:00:31 +0000";
layers = (
{
background = {
paths = (
{
closed = 1;
nodes = (
"371 765 LINE",
"254 729 LINE",
"257 850 LINE",
"168 850 LINE",
"171 729 LINE",
"54 765 LINE",
"30 680 LINE",
"138 649 LINE",
"51 563 LINE",
"123 499 LINE",
"212 601 LINE",
"302 499 LINE",
"374 563 LINE",
"287 649 LINE",
"396 680 LINE"
);
}
);
};
layerId = "3F6440D7-FC3E-4965-8B72-FDD88F2A8137";
paths = (
{
closed = 1;
nodes = (
"371 765 LINE",
"254 729 LINE",
"257 850 LINE",
"168 850 LINE",
"171 729 LINE",
"54 765 LINE",
"30 680 LINE",
"143 649 LINE",
"51 563 LINE",
"123 499 LINE",
"212 591 LINE",
"302 499 LINE",
"374 563 LINE",
"282 649 LINE",
"396 680 LINE"
);
}
);
width = 426;
}
);
unicode = 002A;
},
{
color = 4;
glyphname = backslash;
lastChange = "2017-08-30 09:00:31 +0000";
layers = (
{
layerId = "3F6440D7-FC3E-4965-8B72-FDD88F2A8137";
paths = (
{
closed = 1;
nodes = (
"145 810 LINE",
"10 810 LINE",
"260 -100 LINE",
"395 -100 LINE"
);
}
);
width = 405;
}
);
unicode = 005C;
},
{
glyphname = colon;
lastChange = "2017-08-30 09:00:31 +0000";
layers = (
{
background = {
paths = (
{
closed = 1;
nodes = (
"160 -10 OFFCURVE",
"192 14 OFFCURVE",
"192 66 CURVE SMOOTH",
"192 117 OFFCURVE",
"160 141 OFFCURVE",
"111 141 CURVE SMOOTH",
"62 141 OFFCURVE",
"30 117 OFFCURVE",
"30 66 CURVE SMOOTH",
"30 14 OFFCURVE",
"62 -10 OFFCURVE",
"111 -10 CURVE SMOOTH"
);
},
{
closed = 1;
nodes = (
"160 384 OFFCURVE",
"192 408 OFFCURVE",
"192 459 CURVE SMOOTH",
"192 511 OFFCURVE",
"160 535 OFFCURVE",
"111 535 CURVE SMOOTH",
"62 535 OFFCURVE",
"30 511 OFFCURVE",
"30 459 CURVE SMOOTH",
"30 408 OFFCURVE",
"62 384 OFFCURVE",
"111 384 CURVE SMOOTH"
);
}
);
};
components = (
{
name = period;
},
{
name = period;
transform = "{1, 0, 0, 1, 0, 399}";
}
);
layerId = "3F6440D7-FC3E-4965-8B72-FDD88F2A8137";
width = 222;
}
);
leftMetricsKey = period;
rightMetricsKey = period;
unicode = 003A;
},
{
color = 4;
glyphname = comma;
lastChange = "2017-08-30 09:00:31 +0000";
layers = (
{
background = {
paths = (
{
closed = 1;
nodes = (
"62 141 OFFCURVE",
"30 117 OFFCURVE",
"30 66 CURVE SMOOTH",
"30 14 OFFCURVE",
"62 -10 OFFCURVE",
"111 -10 CURVE",
"99 19 LINE",
"98 -34 OFFCURVE",
"58 -111 OFFCURVE",
"26 -165 CURVE",
"118 -165 LINE",
"148 -124 OFFCURVE",
"192 -45 OFFCURVE",
"192 46 CURVE SMOOTH",
"192 97 OFFCURVE",
"170 141 OFFCURVE",
"111 141 CURVE SMOOTH"
);
}
);
};
layerId = "3F6440D7-FC3E-4965-8B72-FDD88F2A8137";
paths = (
{
closed = 1;
nodes = (
"57 141 OFFCURVE",
"23 114 OFFCURVE",
"23 63 CURVE SMOOTH",
"23 11 OFFCURVE",
"62 -10 OFFCURVE",
"111 -10 CURVE",
"99 19 LINE",
"98 -34 OFFCURVE",
"58 -111 OFFCURVE",
"26 -165 CURVE",
"108 -165 LINE",
"138 -124 OFFCURVE",
"192 -38 OFFCURVE",
"192 48 CURVE SMOOTH",
"192 103 OFFCURVE",
"163 141 OFFCURVE",
"106 141 CURVE SMOOTH"
);
}
);
width = 222;
}
);
unicode = 002C;
},
{
color = 4;
glyphname = exclam;
lastChange = "2017-08-30 09:00:31 +0000";
layers = (
{
components = (
{
name = period;
}
);
layerId = "3F6440D7-FC3E-4965-8B72-FDD88F2A8137";
paths = (
{
closed = 1;
nodes = (
"171 190 LINE",
"181 450 LINE",
"181 730 LINE",
"41 730 LINE",
"41 450 LINE",
"51 190 LINE"
);
}
);
width = 222;
}
);
unicode = 0021;
},
{
color = 4;
glyphname = numbersign;
lastChange = "2017-08-30 09:00:31 +0000";
layers = (
{
background = {
paths = (
{
closed = 1;
nodes = (
"237 0 LINE",
"437 710 LINE",
"317 710 LINE",
"117 0 LINE"
);
},
{
closed = 1;
nodes = (
"545 0 LINE",
"745 710 LINE",
"625 710 LINE",
"425 0 LINE"
);
},
{
closed = 1;
nodes = (
"752 150 LINE",
"752 255 LINE",
"50 255 LINE",
"50 150 LINE"
);
},
{
closed = 1;
nodes = (
"812 455 LINE",
"812 560 LINE",
"110 560 LINE",
"110 455 LINE"
);
}
);
};
layerId = "3F6440D7-FC3E-4965-8B72-FDD88F2A8137";
paths = (
{
closed = 1;
nodes = (
"237 0 LINE",
"407 710 LINE",
"287 710 LINE",
"117 0 LINE"
);
},
{
closed = 1;
nodes = (
"515 0 LINE",
"685 710 LINE",
"565 710 LINE",
"395 0 LINE"
);
},
{
closed = 1;
nodes = (
"702 150 LINE",
"702 255 LINE",
"50 255 LINE",
"50 150 LINE"
);
},
{
closed = 1;
nodes = (
"752 455 LINE",
"752 560 LINE",
"100 560 LINE",
"100 455 LINE"
);
}
);
width = 802;
}
);
unicode = 0023;
},
{
color = 4;
glyphname = period;
lastChange = "2017-08-30 09:00:31 +0000";
layers = (
{
layerId = "3F6440D7-FC3E-4965-8B72-FDD88F2A8137";
paths = (
{
closed = 1;
nodes = (
"160 -10 OFFCURVE",
"192 14 OFFCURVE",
"192 66 CURVE SMOOTH",
"192 117 OFFCURVE",
"160 141 OFFCURVE",
"111 141 CURVE SMOOTH",
"62 141 OFFCURVE",
"30 117 OFFCURVE",
"30 66 CURVE SMOOTH",
"30 14 OFFCURVE",
"62 -10 OFFCURVE",
"111 -10 CURVE SMOOTH"
);
}
);
width = 222;
}
);
unicode = 002E;
},
{
color = 4;
glyphname = question;
lastChange = "2017-08-30 09:00:31 +0000";
layers = (
{
components = (
{
name = period;
transform = "{1, 0, 0, 1, 154, 0}";
}
);
layerId = "3F6440D7-FC3E-4965-8B72-FDD88F2A8137";
paths = (
{
closed = 1;
nodes = (
"145 518 LINE",
"154 591 OFFCURVE",
"199 630 OFFCURVE",
"274 630 CURVE SMOOTH",
"359 630 OFFCURVE",
"397 600 OFFCURVE",
"397 542 CURVE SMOOTH",
"397 411 OFFCURVE",
"202 419 OFFCURVE",
"202 224 CURVE SMOOTH",
"202 190 LINE",
"329 190 LINE",
"329 214 LINE SMOOTH",
"329 371 OFFCURVE",
"537 341 OFFCURVE",
"537 548 CURVE SMOOTH",
"537 675 OFFCURVE",
"435 745 OFFCURVE",
"288 745 CURVE SMOOTH",
"123 745 OFFCURVE",
"30 683 OFFCURVE",
"10 518 CURVE"
);
}
);
width = 547;
}
);
unicode = 003F;
},
{
color = 4;
glyphname = quotesingle;
lastChange = "2017-08-30 09:00:31 +0000";
layers = (
{
layerId = "3F6440D7-FC3E-4965-8B72-FDD88F2A8137";
paths = (
{
closed = 1;
nodes = (
"60 520 LINE",
"159 520 LINE",
"190 760 LINE",
"60 760 LINE"
);
}
);
width = 240;
}
);
unicode = 0027;
},
{
glyphname = semicolon;
lastChange = "2017-08-30 09:00:31 +0000";
layers = (
{
background = {
paths = (
{
closed = 1;
nodes = (
"160 384 OFFCURVE",
"192 408 OFFCURVE",
"192 459 CURVE SMOOTH",
"192 511 OFFCURVE",
"160 535 OFFCURVE",
"111 535 CURVE SMOOTH",
"62 535 OFFCURVE",
"30 511 OFFCURVE",
"30 459 CURVE SMOOTH",
"30 408 OFFCURVE",
"62 384 OFFCURVE",
"111 384 CURVE SMOOTH"
);
},
{
closed = 1;
nodes = (
"62 141 OFFCURVE",
"30 117 OFFCURVE",
"30 66 CURVE SMOOTH",
"30 14 OFFCURVE",
"62 -10 OFFCURVE",
"111 -10 CURVE",
"92 19 LINE",
"91 -34 OFFCURVE",
"58 -110 OFFCURVE",
"26 -164 CURVE",
"108 -164 LINE",
"138 -123 OFFCURVE",
"192 -45 OFFCURVE",
"192 46 CURVE SMOOTH",
"192 97 OFFCURVE",
"170 141 OFFCURVE",
"111 141 CURVE SMOOTH"
);
}
);
};
components = (
{
name = comma;
},
{
name = period;
transform = "{1, 0, 0, 1, 0, 399}";
}
);
layerId = "3F6440D7-FC3E-4965-8B72-FDD88F2A8137";
width = 222;
}
);
unicode = 003B;
},
{
color = 4;
glyphname = slash;
lastChange = "2017-08-30 09:00:31 +0000";
layers = (
{
layerId = "3F6440D7-FC3E-4965-8B72-FDD88F2A8137";
paths = (
{
closed = 1;
nodes = (
"145 -100 LINE",
"395 810 LINE",
"260 810 LINE",
"10 -100 LINE"
);
}
);
width = 405;
}
);
unicode = 002F;
},
{
color = 4;
glyphname = underscore;
lastChange = "2017-08-30 09:00:31 +0000";
layers = (
{
layerId = "3F6440D7-FC3E-4965-8B72-FDD88F2A8137";
paths = (
{
closed = 1;
nodes = (
"80 -120 LINE",
"540 -120 LINE",
"540 0 LINE",
"80 0 LINE"
);
}
);
width = 620;
}
);
leftMetricsKey = hyphen;
rightMetricsKey = hyphen;
unicode = 005F;
},
{
color = 4;
glyphname = periodcentered.CAT;
lastChange = "2017-08-30 09:00:31 +0000";
layers = (
{
anchors = (
{
name = _periodcentered;
position = "{0, 370}";
}
);
layerId = "3F6440D7-FC3E-4965-8B72-FDD88F2A8137";
paths = (
{
closed = 1;
nodes = (
"74 300 OFFCURVE",
"103 324 OFFCURVE",
"103 376 CURVE SMOOTH",
"103 427 OFFCURVE",
"74 451 OFFCURVE",
"32 451 CURVE SMOOTH",
"-10 451 OFFCURVE",
"-39 427 OFFCURVE",
"-39 376 CURVE SMOOTH",
"-39 324 OFFCURVE",
"-10 300 OFFCURVE",
"32 300 CURVE SMOOTH"
);
}
);
width = 0;
}
);
},
{
color = 4;
glyphname = periodcentered.CAT.case;
lastChange = "2017-08-30 09:00:31 +0000";
layers = (
{
anchors = (
{
name = _periodcentered;
position = "{0, 370}";
}
);
layerId = "3F6440D7-FC3E-4965-8B72-FDD88F2A8137";
paths = (
{
closed = 1;
nodes = (
"74 340 OFFCURVE",
"103 364 OFFCURVE",
"103 416 CURVE SMOOTH",
"103 467 OFFCURVE",
"74 491 OFFCURVE",
"32 491 CURVE SMOOTH",
"-10 491 OFFCURVE",
"-39 467 OFFCURVE",
"-39 416 CURVE SMOOTH",
"-39 364 OFFCURVE",
"-10 340 OFFCURVE",
"32 340 CURVE SMOOTH"
);
}
);
width = 0;
}
);
},
{
color = 4;
glyphname = braceleft;
lastChange = "2017-08-30 09:00:31 +0000";
layers = (
{
background = {
paths = (
{
closed = 1;
nodes = (
"20 292 LINE",
"93 275 OFFCURVE",
"121 227 OFFCURVE",
"121 156 CURVE SMOOTH",
"121 93 OFFCURVE",
"95 5 OFFCURVE",
"95 -45 CURVE SMOOTH",
"95 -191 OFFCURVE",
"163 -210 OFFCURVE",
"311 -210 CURVE",
"318 -135 LINE",
"253 -135 OFFCURVE",
"229 -123 OFFCURVE",
"229 -46 CURVE SMOOTH",
"229 13 OFFCURVE",
"245 101 OFFCURVE",
"245 156 CURVE SMOOTH",
"245 242 OFFCURVE",
"204 306 OFFCURVE",
"116 324 CURVE",
"116 317 LINE",
"204 335 OFFCURVE",
"245 399 OFFCURVE",
"245 485 CURVE SMOOTH",
"245 541 OFFCURVE",
"230 622 OFFCURVE",
"229 681 CURVE SMOOTH",
"228 758 OFFCURVE",
"253 770 OFFCURVE",
"318 770 CURVE",
"311 845 LINE",
"163 845 OFFCURVE",
"95 836 OFFCURVE",
"95 690 CURVE SMOOTH",
"95 639 OFFCURVE",
"121 549 OFFCURVE",
"121 485 CURVE SMOOTH",
"121 414 OFFCURVE",
"93 367 OFFCURVE",
"20 350 CURVE"
);
}
);
};
layerId = "3F6440D7-FC3E-4965-8B72-FDD88F2A8137";
paths = (
{
closed = 1;
nodes = (
"20 289 LINE",
"93 272 OFFCURVE",
"121 244 OFFCURVE",
"121 173 CURVE SMOOTH",
"121 110 OFFCURVE",
"95 5 OFFCURVE",
"95 -65 CURVE SMOOTH",
"95 -191 OFFCURVE",
"170 -210 OFFCURVE",
"318 -210 CURVE",
"318 -135 LINE",
"259 -135 OFFCURVE",
"235 -123 OFFCURVE",
"235 -46 CURVE SMOOTH",
"235 13 OFFCURVE",
"256 108 OFFCURVE",
"256 173 CURVE SMOOTH",
"256 259 OFFCURVE",
"210 303 OFFCURVE",
"116 321 CURVE",
"116 314 LINE",
"210 332 OFFCURVE",
"256 376 OFFCURVE",
"256 462 CURVE SMOOTH",
"256 518 OFFCURVE",
"236 622 OFFCURVE",
"235 681 CURVE SMOOTH",
"234 758 OFFCURVE",
"259 770 OFFCURVE",
"318 770 CURVE",
"318 845 LINE",
"170 845 OFFCURVE",
"95 836 OFFCURVE",
"95 710 CURVE SMOOTH",
"95 639 OFFCURVE",
"121 526 OFFCURVE",
"121 462 CURVE SMOOTH",
"121 391 OFFCURVE",
"93 364 OFFCURVE",
"20 347 CURVE"
);
}
);
width = 348;
}
);
unicode = 007B;
},
{
glyphname = braceright;
lastChange = "2017-08-30 09:00:31 +0000";
layers = (
{
background = {
paths = (
{
closed = 1;
nodes = (
"255 364 OFFCURVE",
"227 391 OFFCURVE",
"227 462 CURVE SMOOTH",
"227 526 OFFCURVE",
"253 639 OFFCURVE",
"253 710 CURVE SMOOTH",
"253 836 OFFCURVE",
"178 845 OFFCURVE",
"30 845 CURVE",
"30 770 LINE",
"89 770 OFFCURVE",
"114 758 OFFCURVE",
"113 681 CURVE SMOOTH",
"112 622 OFFCURVE",
"92 518 OFFCURVE",
"92 462 CURVE SMOOTH",
"92 376 OFFCURVE",
"138 332 OFFCURVE",
"232 314 CURVE",
"232 321 LINE",
"138 303 OFFCURVE",
"92 259 OFFCURVE",
"92 173 CURVE SMOOTH",
"92 108 OFFCURVE",
"113 13 OFFCURVE",
"113 -46 CURVE SMOOTH",
"113 -123 OFFCURVE",
"89 -135 OFFCURVE",
"30 -135 CURVE",
"30 -210 LINE",
"178 -210 OFFCURVE",
"253 -191 OFFCURVE",
"253 -65 CURVE SMOOTH",
"253 5 OFFCURVE",
"227 110 OFFCURVE",
"227 173 CURVE SMOOTH",
"227 244 OFFCURVE",
"255 272 OFFCURVE",
"328 289 CURVE",
"328 347 LINE"
);
}
);
};
components = (
{
name = braceleft;
transform = "{-1, 0, 0, 1, 348, 0}";
}
);
layerId = "3F6440D7-FC3E-4965-8B72-FDD88F2A8137";
width = 348;
}
);
unicode = 007D;
},
{
color = 4;
glyphname = bracketleft;
lastChange = "2017-08-30 09:00:31 +0000";
layers = (
{
layerId = "3F6440D7-FC3E-4965-8B72-FDD88F2A8137";
paths = (
{
closed = 1;
nodes = (
"50 830 LINE",
"50 -195 LINE",
"190 -195 LINE",
"190 830 LINE"
);
},
{
closed = 1;
nodes = (
"50 -195 LINE",
"303 -195 LINE",
"303 -105 LINE",
"50 -105 LINE"
);
},
{
closed = 1;
nodes = (
"50 830 LINE",
"50 740 LINE",
"303 740 LINE",
"303 830 LINE"
);
}
);
width = 313;
}
);
unicode = 005B;
},
{
glyphname = bracketright;
lastChange = "2017-08-30 09:00:31 +0000";
layers = (
{
background = {
paths = (
{
closed = 1;
nodes = (
"123 -195 LINE",
"263 -195 LINE",
"263 830 LINE",
"123 830 LINE"
);
},
{
closed = 1;
nodes = (
"10 -105 LINE",
"10 -195 LINE",
"263 -195 LINE",
"263 -105 LINE"
);
},
{
closed = 1;
nodes = (
"10 740 LINE",
"263 740 LINE",
"263 830 LINE",
"10 830 LINE"
);
}
);
};
components = (
{
name = bracketleft;
transform = "{-1, 0, 0, 1, 313, 0}";
}
);
layerId = "3F6440D7-FC3E-4965-8B72-FDD88F2A8137";
width = 313;
}
);
unicode = 005D;
},
{
color = 4;
glyphname = parenleft;
lastChange = "2017-08-30 09:00:31 +0000";
layers = (
{
background = {
paths = (
{
closed = 1;
nodes = (
"50 830 LINE",
"50 -195 LINE",
"190 -195 LINE",
"190 830 LINE"
);
},
{
closed = 1;
nodes = (
"50 -195 LINE",
"303 -195 LINE",
"303 -105 LINE",
"50 -105 LINE"
);
},
{
closed = 1;
nodes = (
"50 830 LINE",
"50 740 LINE",
"303 740 LINE",
"303 830 LINE"
);
},
{
closed = 1;
nodes = (
"105 705 OFFCURVE",
"50 509 OFFCURVE",
"50 317 CURVE SMOOTH",
"50 125 OFFCURVE",
"105 -72 OFFCURVE",
"218 -222 CURVE",
"312 -169 LINE",
"245 -43 OFFCURVE",
"200 130 OFFCURVE",
"198 317 CURVE SMOOTH",
"196 504 OFFCURVE",
"245 677 OFFCURVE",
"312 802 CURVE",
"218 855 LINE"
);
}
);
};
layerId = "3F6440D7-FC3E-4965-8B72-FDD88F2A8137";
paths = (
{
closed = 1;
nodes = (
"110 680 OFFCURVE",
"50 519 OFFCURVE",
"50 317 CURVE SMOOTH",
"50 115 OFFCURVE",
"110 -45 OFFCURVE",
"198 -195 CURVE",
"332 -195 LINE",
"265 -69 OFFCURVE",
"200 100 OFFCURVE",
"198 317 CURVE SMOOTH",
"196 534 OFFCURVE",
"265 705 OFFCURVE",
"332 830 CURVE",
"198 830 LINE"
);
}
);
width = 322;
}
);
unicode = 0028;
},
{
glyphname = parenright;
lastChange = "2017-08-30 09:00:31 +0000";
layers = (
{
background = {
paths = (
{
closed = 1;
nodes = (
"217 705 OFFCURVE",
"104 855 CURVE",
"10 802 LINE",
"77 677 OFFCURVE",
"126 504 OFFCURVE",
"124 317 CURVE SMOOTH",
"122 130 OFFCURVE",
"77 -43 OFFCURVE",
"10 -169 CURVE",
"104 -222 LINE",
"217 -72 OFFCURVE",
"272 125 OFFCURVE",
"272 317 CURVE SMOOTH",
"272 509 OFFCURVE"
);
}
);
};
components = (
{
name = parenleft;
transform = "{-1, 0, 0, 1, 322, 0}";
}
);
layerId = "3F6440D7-FC3E-4965-8B72-FDD88F2A8137";
width = 322;
}
);
unicode = 0029;
},
{
color = 4;
glyphname = emdash;
lastChange = "2017-08-30 09:00:31 +0000";
layers = (
{
layerId = "3F6440D7-FC3E-4965-8B72-FDD88F2A8137";
paths = (
{
closed = 1;
nodes = (
"80 204 LINE",
"900 204 LINE",
"900 324 LINE",
"80 324 LINE"
);
}
);
width = 980;
}
);
leftMetricsKey = hyphen;
rightMetricsKey = hyphen;
unicode = 2014;
},
{
color = 4;
glyphname = endash;
lastChange = "2017-08-30 09:00:31 +0000";
layers = (
{
layerId = "3F6440D7-FC3E-4965-8B72-FDD88F2A8137";
paths = (
{
closed = 1;
nodes = (
"80 204 LINE",
"570 204 LINE",
"570 324 LINE",
"80 324 LINE"
);
}
);
width = 650;
}
);
leftMetricsKey = hyphen;
rightMetricsKey = hyphen;
unicode = 2013;
},
{
color = 4;
glyphname = hyphen;
lastChange = "2017-08-30 09:00:31 +0000";
layers = (
{
layerId = "3F6440D7-FC3E-4965-8B72-FDD88F2A8137";
paths = (
{
closed = 1;
nodes = (
"80 204 LINE",
"440 204 LINE",
"440 324 LINE",
"80 324 LINE"
);
}
);
width = 520;
}
);
unicode = 002D;
},
{
color = 4;
glyphname = guillemetleft;
lastChange = "2017-08-30 09:00:31 +0000";
layers = (
{
background = {
paths = (
{
closed = 1;
nodes = (
"221 257 LINE",
"221 267 LINE",
"409 392 LINE",
"409 532 LINE",
"70 325 LINE",
"70 200 LINE",
"409 -7 LINE",
"409 133 LINE"
);
},
{
closed = 1;
nodes = (
"571 257 LINE",
"571 267 LINE",
"759 392 LINE",
"759 532 LINE",
"420 325 LINE",
"420 200 LINE",
"759 -7 LINE",
"759 133 LINE"
);
}
);
};
layerId = "3F6440D7-FC3E-4965-8B72-FDD88F2A8137";
paths = (
{
closed = 1;
nodes = (
"221 257 LINE",
"221 267 LINE",
"399 402 LINE",
"399 542 LINE",
"70 325 LINE",
"70 200 LINE",
"399 -17 LINE",
"399 123 LINE"
);
},
{
closed = 1;
nodes = (
"551 257 LINE",
"551 267 LINE",
"699 372 LINE",
"699 502 LINE",
"400 315 LINE",
"400 210 LINE",
"699 23 LINE",
"699 153 LINE"
);
}
);
width = 779;
}
);
leftMetricsKey = guilsinglleft;
rightMetricsKey = guilsinglleft;
unicode = 00AB;
},
{
color = 4;
glyphname = guilsinglleft;
lastChange = "2017-08-30 09:00:31 +0000";
layers = (
{
background = {
paths = (
{
closed = 1;
nodes = (
"211 263 LINE",
"211 273 LINE",
"399 393 LINE",
"399 538 LINE",
"60 341 LINE",
"60 196 LINE",
"399 -1 LINE",
"399 144 LINE"
);
}
);
};
layerId = "3F6440D7-FC3E-4965-8B72-FDD88F2A8137";
paths = (
{
closed = 1;
nodes = (
"221 257 LINE",
"221 267 LINE",
"409 392 LINE",
"409 532 LINE",
"70 325 LINE",
"70 200 LINE",
"409 -7 LINE",
"409 133 LINE"
);
}
);
width = 489;
}
);
unicode = 2039;
},
{
color = 4;
glyphname = quoteright;
lastChange = "2017-08-30 09:00:31 +0000";
layers = (
{
background = {
paths = (
{
closed = 1;
nodes = (
"62 770 OFFCURVE",
"30 746 OFFCURVE",
"30 695 CURVE SMOOTH",
"30 643 OFFCURVE",
"62 619 OFFCURVE",
"111 619 CURVE",
"99 648 LINE",
"98 595 OFFCURVE",
"58 518 OFFCURVE",
"26 464 CURVE",
"108 464 LINE",
"138 505 OFFCURVE",
"192 589 OFFCURVE",
"192 675 CURVE SMOOTH",
"192 726 OFFCURVE",
"170 770 OFFCURVE",
"111 770 CURVE SMOOTH"
);
}
);
};
layerId = "3F6440D7-FC3E-4965-8B72-FDD88F2A8137";
paths = (
{
closed = 1;
nodes = (
"56 770 OFFCURVE",
"20 743 OFFCURVE",
"20 692 CURVE SMOOTH",
"20 640 OFFCURVE",
"59 619 OFFCURVE",
"108 619 CURVE",
"96 648 LINE",
"85 605 OFFCURVE",
"55 548 OFFCURVE",
"23 504 CURVE",
"105 504 LINE",
"145 545 OFFCURVE",
"189 612 OFFCURVE",
"189 678 CURVE SMOOTH",
"189 732 OFFCURVE",
"161 770 OFFCURVE",
"102 770 CURVE SMOOTH"
);
}
);
width = 219;
}
);
unicode = 2019;
},
{
color = 4;
glyphname = bullet;
lastChange = "2017-08-30 09:00:31 +0000";
layers = (
{
layerId = "3F6440D7-FC3E-4965-8B72-FDD88F2A8137";
paths = (
{
closed = 1;
nodes = (
"223 146 OFFCURVE",
"271 189 OFFCURVE",
"271 258 CURVE SMOOTH",
"271 327 OFFCURVE",
"223 370 OFFCURVE",
"150 370 CURVE SMOOTH",
"77 370 OFFCURVE",
"30 327 OFFCURVE",
"30 258 CURVE SMOOTH",
"30 189 OFFCURVE",
"77 146 OFFCURVE",
"150 146 CURVE SMOOTH"
);
}
);
width = 301;
}
);
leftMetricsKey = period;
rightMetricsKey = period;
unicode = 2022;
},
{
color = 4;
glyphname = dollar;
lastChange = "2017-08-30 09:00:31 +0000";
layers = (
{
background = {
paths = (
{
closed = 1;
nodes = (
"408 670 LINE",
"408 830 LINE",
"270 830 LINE",
"270 670 LINE"
);
},
{
closed = 1;
nodes = (
"408 -120 LINE",
"408 40 LINE",
"270 40 LINE",
"270 -120 LINE"
);
},
{
closed = 1;
nodes = (
"508 -15 OFFCURVE",
"627 47 OFFCURVE",
"627 194 CURVE SMOOTH",
"627 322 OFFCURVE",
"554 377 OFFCURVE",
"409 406 CURVE SMOOTH",
"328 422 LINE SMOOTH",
"245 438 OFFCURVE",
"206 466 OFFCURVE",
"206 523 CURVE SMOOTH",
"206 578 OFFCURVE",
"246 608 OFFCURVE",
"330 608 CURVE SMOOTH",
"424 608 OFFCURVE",
"461 563 OFFCURVE",
"473 507 CURVE SMOOTH",
"475 498 LINE",
"621 498 LINE",
"619 518 LINE SMOOTH",
"607 636 OFFCURVE",
"522 725 OFFCURVE",
"340 725 CURVE SMOOTH",
"166 725 OFFCURVE",
"60 657 OFFCURVE",
"60 523 CURVE SMOOTH",
"60 394 OFFCURVE",
"140 332 OFFCURVE",
"278 304 CURVE SMOOTH",
"358 288 LINE SMOOTH",
"450 270 OFFCURVE",
"482 244 OFFCURVE",
"482 189 CURVE SMOOTH",
"482 133 OFFCURVE",
"442 103 OFFCURVE",
"352 103 CURVE SMOOTH",
"267 103 OFFCURVE",
"211 125 OFFCURVE",
"200 186 CURVE SMOOTH",
"198 197 LINE",
"50 197 LINE",
"51 179 LINE SMOOTH",
"59 43 OFFCURVE",
"174 -15 OFFCURVE",
"340 -15 CURVE SMOOTH"
);
}
);
};
layerId = "3F6440D7-FC3E-4965-8B72-FDD88F2A8137";
paths = (
{
closed = 1;
nodes = (
"521 -15 OFFCURVE",
"624 65 OFFCURVE",
"624 198 CURVE SMOOTH",
"624 316 OFFCURVE",
"562 378 OFFCURVE",
"413 408 CURVE SMOOTH",
"328 425 LINE SMOOTH",
"252 440 OFFCURVE",
"217 466 OFFCURVE",
"217 520 CURVE SMOOTH",
"217 575 OFFCURVE",
"266 608 OFFCURVE",
"334 608 CURVE SMOOTH",
"422 608 OFFCURVE",
"461 585 OFFCURVE",
"473 508 CURVE",
"618 508 LINE",
"605 659 OFFCURVE",
"514 725 OFFCURVE",
"337 725 CURVE SMOOTH",
"173 725 OFFCURVE",
"71 642 OFFCURVE",
"71 514 CURVE SMOOTH",
"71 397 OFFCURVE",
"139 331 OFFCURVE",
"279 303 CURVE SMOOTH",
"364 286 LINE SMOOTH",
"447 269 OFFCURVE",
"478 243 OFFCURVE",
"478 189 CURVE SMOOTH",
"478 130 OFFCURVE",
"422 102 OFFCURVE",
"353 102 CURVE SMOOTH",
"255 102 OFFCURVE",
"216 134 OFFCURVE",
"201 200 CURVE",
"55 200 LINE",
"65 62 OFFCURVE",
"162 -15 OFFCURVE",
"348 -15 CURVE SMOOTH"
);
},
{
closed = 1;
nodes = (
"408 670 LINE",
"408 830 LINE",
"270 830 LINE",
"270 670 LINE"
);
},
{
closed = 1;
nodes = (
"408 -120 LINE",
"408 40 LINE",
"270 40 LINE",
"270 -120 LINE"
);
}
);
width = 677;
}
);
unicode = 0024;
},
{
color = 4;
glyphname = plus;
lastChange = "2017-08-30 09:00:31 +0000";
layers = (
{
background = {
paths = (
{
closed = 1;
nodes = (
"70 304 LINE",
"580 304 LINE",
"580 424 LINE",
"70 424 LINE"
);
},
{
closed = 1;
nodes = (
"265 629 LINE",
"265 99 LINE",
"385 99 LINE",
"385 629 LINE"
);
}
);
};
layerId = "3F6440D7-FC3E-4965-8B72-FDD88F2A8137";
paths = (
{
closed = 1;
nodes = (
"70 302 LINE",
"580 302 LINE",
"580 417 LINE",
"70 417 LINE"
);
},
{
closed = 1;
nodes = (
"265 622 LINE",
"265 97 LINE",
"385 97 LINE",
"385 622 LINE"
);
}
);
width = 650;
}
);
unicode = 002B;
},
{
color = 4;
glyphname = minus;
lastChange = "2017-08-30 09:00:31 +0000";
layers = (
{
layerId = "3F6440D7-FC3E-4965-8B72-FDD88F2A8137";
paths = (
{
closed = 1;
nodes = (
"70 302 LINE",
"560 302 LINE",
"560 417 LINE",
"70 417 LINE"
);
}
);
width = 630;
}
);
unicode = 2212;
},
{
color = 4;
glyphname = equal;
lastChange = "2017-08-30 09:00:31 +0000";
layers = (
{
layerId = "3F6440D7-FC3E-4965-8B72-FDD88F2A8137";
paths = (
{
closed = 1;
nodes = (
"80 199 LINE",
"590 199 LINE",
"590 319 LINE",
"80 319 LINE"
);
},
{
closed = 1;
nodes = (
"80 404 LINE",
"590 404 LINE",
"590 524 LINE",
"80 524 LINE"
);
}
);
width = 670;
}
);
unicode = 003D;
},
{
color = 4;
glyphname = less;
lastChange = "2017-08-30 09:00:31 +0000";
layers = (
{
layerId = "3F6440D7-FC3E-4965-8B72-FDD88F2A8137";
paths = (
{
closed = 1;
nodes = (
"241 353 LINE",
"241 363 LINE",
"509 518 LINE",
"509 668 LINE",
"70 421 LINE",
"70 296 LINE",
"509 49 LINE",
"509 199 LINE"
);
}
);
width = 579;
}
);
unicode = 003C;
},
{
color = 4;
glyphname = asciitilde;
lastChange = "2017-08-30 09:00:31 +0000";
layers = (
{
background = {
paths = (
{
closed = 1;
nodes = (
"70 302 LINE",
"560 302 LINE",
"560 417 LINE",
"70 417 LINE"
);
}
);
};
layerId = "3F6440D7-FC3E-4965-8B72-FDD88F2A8137";
paths = (
{
closed = 1;
nodes = (
"554 265 OFFCURVE",
"603 344 OFFCURVE",
"603 444 CURVE",
"501 444 LINE",
"496 410 OFFCURVE",
"484 378 OFFCURVE",
"447 378 CURVE SMOOTH",
"381 378 OFFCURVE",
"341 455 OFFCURVE",
"225 455 CURVE SMOOTH",
"119 455 OFFCURVE",
"70 376 OFFCURVE",
"70 275 CURVE",
"172 275 LINE",
"177 311 OFFCURVE",
"190 342 OFFCURVE",
"226 342 CURVE SMOOTH",
"293 342 OFFCURVE",
"336 265 OFFCURVE",
"449 265 CURVE SMOOTH"
);
}
);
width = 673;
}
);
unicode = 007E;
},
{
color = 4;
glyphname = percent;
lastChange = "2017-08-30 09:00:31 +0000";
layers = (
{
background = {
paths = (
{
closed = 1;
nodes = (
"149 614 OFFCURVE",
"169 639 OFFCURVE",
"209 639 CURVE SMOOTH",
"249 639 OFFCURVE",
"269 614 OFFCURVE",
"269 535 CURVE SMOOTH",
"269 463 OFFCURVE",
"249 431 OFFCURVE",
"209 431 CURVE SMOOTH",
"169 431 OFFCURVE",
"149 462 OFFCURVE",
"149 535 CURVE SMOOTH"
);
},
{
closed = 1;
nodes = (
"114 725 OFFCURVE",
"57 665 OFFCURVE",
"57 535 CURVE SMOOTH",
"57 405 OFFCURVE",
"114 345 OFFCURVE",
"209 345 CURVE SMOOTH",
"304 345 OFFCURVE",
"361 405 OFFCURVE",
"361 535 CURVE SMOOTH",
"361 665 OFFCURVE",
"304 725 OFFCURVE",
"209 725 CURVE SMOOTH"
);
},
{
closed = 1;
nodes = (
"200 0 LINE",
"734 710 LINE",
"630 710 LINE",
"97 0 LINE"
);
},
{
closed = 1;
nodes = (
"562 254 OFFCURVE",
"582 279 OFFCURVE",
"622 279 CURVE SMOOTH",
"662 279 OFFCURVE",
"682 254 OFFCURVE",
"682 175 CURVE SMOOTH",
"682 103 OFFCURVE",
"662 71 OFFCURVE",
"622 71 CURVE SMOOTH",
"582 71 OFFCURVE",
"562 102 OFFCURVE",
"562 175 CURVE SMOOTH"
);
},
{
closed = 1;
nodes = (
"470 175 CURVE SMOOTH",
"470 45 OFFCURVE",
"527 -15 OFFCURVE",
"622 -15 CURVE SMOOTH",
"717 -15 OFFCURVE",
"774 45 OFFCURVE",
"774 175 CURVE SMOOTH",
"774 305 OFFCURVE",
"717 365 OFFCURVE",
"622 365 CURVE SMOOTH",
"527 365 OFFCURVE",
"470 305 OFFCURVE"
);
}
);
};
layerId = "3F6440D7-FC3E-4965-8B72-FDD88F2A8137";
paths = (
{
closed = 1;
nodes = (
"109 725 OFFCURVE",
"50 665 OFFCURVE",
"50 535 CURVE SMOOTH",
"50 405 OFFCURVE",
"109 345 OFFCURVE",
"209 345 CURVE SMOOTH",
"309 345 OFFCURVE",
"368 405 OFFCURVE",
"368 535 CURVE SMOOTH",
"368 665 OFFCURVE",
"309 725 OFFCURVE",
"209 725 CURVE SMOOTH"
);
},
{
closed = 1;
nodes = (
"149 615 OFFCURVE",
"169 640 OFFCURVE",
"209 640 CURVE SMOOTH",
"249 640 OFFCURVE",
"269 615 OFFCURVE",
"269 535 CURVE SMOOTH",
"269 462 OFFCURVE",
"249 430 OFFCURVE",
"209 430 CURVE SMOOTH",
"169 430 OFFCURVE",
"149 461 OFFCURVE",
"149 535 CURVE SMOOTH"
);
},
{
closed = 1;
nodes = (
"200 0 LINE",
"734 710 LINE",
"630 710 LINE",
"97 0 LINE"
);
},
{
closed = 1;
nodes = (
"522 365 OFFCURVE",
"463 305 OFFCURVE",
"463 175 CURVE SMOOTH",
"463 45 OFFCURVE",
"522 -15 OFFCURVE",
"622 -15 CURVE SMOOTH",
"722 -15 OFFCURVE",
"781 45 OFFCURVE",
"781 175 CURVE SMOOTH",
"781 305 OFFCURVE",
"722 365 OFFCURVE",
"622 365 CURVE SMOOTH"
);
},
{
closed = 1;
nodes = (
"562 255 OFFCURVE",
"582 280 OFFCURVE",
"622 280 CURVE SMOOTH",
"662 280 OFFCURVE",
"682 255 OFFCURVE",
"682 175 CURVE SMOOTH",
"682 102 OFFCURVE",
"662 70 OFFCURVE",
"622 70 CURVE SMOOTH",
"582 70 OFFCURVE",
"562 101 OFFCURVE",
"562 175 CURVE SMOOTH"
);
}
);
width = 831;
}
);
unicode = 0025;
},
{
color = 4;
glyphname = at;
lastChange = "2017-08-30 09:00:31 +0000";
layers = (
{
layerId = "3F6440D7-FC3E-4965-8B72-FDD88F2A8137";
paths = (
{
closed = 1;
nodes = (
"764 80 OFFCURVE",
"831 154 OFFCURVE",
"831 325 CURVE SMOOTH",
"831 543 OFFCURVE",
"686 676 OFFCURVE",
"455 676 CURVE SMOOTH",
"213 676 OFFCURVE",
"50 522 OFFCURVE",
"50 270 CURVE SMOOTH",
"50 8 OFFCURVE",
"211 -125 OFFCURVE",
"457 -125 CURVE SMOOTH",
"532 -125 OFFCURVE",
"588 -110 OFFCURVE",
"617 -98 CURVE",
"617 -19 LINE",
"579 -35 OFFCURVE",
"527 -45 OFFCURVE",
"457 -45 CURVE SMOOTH",
"277 -45 OFFCURVE",
"145 50 OFFCURVE",
"145 270 CURVE SMOOTH",
"145 480 OFFCURVE",
"263 596 OFFCURVE",
"455 596 CURVE SMOOTH",
"646 596 OFFCURVE",
"743 497 OFFCURVE",
"743 325 CURVE SMOOTH",
"743 203 OFFCURVE",
"717 160 OFFCURVE",
"664 160 CURVE SMOOTH",
"637 160 OFFCURVE",
"619 180 OFFCURVE",
"619 233 CURVE SMOOTH",
"619 452 LINE",
"525 452 LINE",
"525 390 LINE",
"521 390 LINE",
"507 426 OFFCURVE",
"469 459 OFFCURVE",
"416 459 CURVE SMOOTH",
"326 459 OFFCURVE",
"268 400 OFFCURVE",
"268 270 CURVE SMOOTH",
"268 140 OFFCURVE",
"336 80 OFFCURVE",
"421 80 CURVE SMOOTH",
"483 80 OFFCURVE",
"511 122 OFFCURVE",
"527 161 CURVE",
"533 161 LINE",
"544 120 OFFCURVE",
"579 80 OFFCURVE",
"655 80 CURVE SMOOTH"
);
},
{
closed = 1;
nodes = (
"398 163 OFFCURVE",
"370 195 OFFCURVE",
"370 270 CURVE SMOOTH",
"370 348 OFFCURVE",
"398 381 OFFCURVE",
"444 381 CURVE SMOOTH",
"498 381 OFFCURVE",
"525 353 OFFCURVE",
"525 273 CURVE SMOOTH",
"525 193 OFFCURVE",
"490 163 OFFCURVE",
"445 163 CURVE SMOOTH"
);
}
);
width = 881;
}
);
unicode = 0040;
},
{
color = 4;
glyphname = ampersand;
lastChange = "2017-08-30 09:00:31 +0000";
layers = (
{
background = {
paths = (
{
closed = 1;
nodes = (
"40 405 OFFCURVE",
"40 174 CURVE SMOOTH",
"40 41 OFFCURVE",
"156 -14 OFFCURVE",
"313 -14 CURVE SMOOTH",
"565 -14 OFFCURVE",
"692 189 OFFCURVE",
"692 400 CURVE",
"565 400 LINE",
"565 231 OFFCURVE",
"480 101 OFFCURVE",
"310 101 CURVE SMOOTH",
"219 101 OFFCURVE",
"182 138 OFFCURVE",
"182 190 CURVE SMOOTH",
"182 332 OFFCURVE",
"548 335 OFFCURVE",
"548 571 CURVE SMOOTH",
"548 670 OFFCURVE",
"471 725 OFFCURVE",
"321 725 CURVE SMOOTH",
"168 725 OFFCURVE",
"92 665 OFFCURVE",
"92 562 CURVE SMOOTH",
"92 487 OFFCURVE",
"160 413 OFFCURVE",
"205 368 CURVE SMOOTH",
"581 0 LINE",
"736 0 LINE",
"342 399 LINE SMOOTH",
"285 456 OFFCURVE",
"227 506 OFFCURVE",
"227 553 CURVE SMOOTH",
"227 595 OFFCURVE",
"255 620 OFFCURVE",
"322 620 CURVE SMOOTH",
"387 620 OFFCURVE",
"423 602 OFFCURVE",
"423 559 CURVE SMOOTH",
"423 413 OFFCURVE"
);
}
);
};
layerId = "3F6440D7-FC3E-4965-8B72-FDD88F2A8137";
paths = (
{
closed = 1;
nodes = (
"40 425 OFFCURVE",
"40 174 CURVE SMOOTH",
"40 41 OFFCURVE",
"156 -14 OFFCURVE",
"313 -14 CURVE SMOOTH",
"565 -14 OFFCURVE",
"692 189 OFFCURVE",
"692 400 CURVE",
"565 400 LINE",
"565 231 OFFCURVE",
"480 101 OFFCURVE",
"310 101 CURVE SMOOTH",
"219 101 OFFCURVE",
"182 138 OFFCURVE",
"182 190 CURVE SMOOTH",
"182 352 OFFCURVE",
"529 355 OFFCURVE",
"529 571 CURVE SMOOTH",
"529 670 OFFCURVE",
"452 725 OFFCURVE",
"326 725 CURVE SMOOTH",
"183 725 OFFCURVE",
"117 662 OFFCURVE",
"117 572 CURVE SMOOTH",
"117 497 OFFCURVE",
"166 434 OFFCURVE",
"210 388 CURVE SMOOTH",
"581 0 LINE",
"736 0 LINE",
"342 419 LINE SMOOTH",
"287 478 OFFCURVE",
"247 516 OFFCURVE",
"247 563 CURVE SMOOTH",
"247 595 OFFCURVE",
"270 620 OFFCURVE",
"327 620 CURVE SMOOTH",
"372 620 OFFCURVE",
"404 602 OFFCURVE",
"404 559 CURVE SMOOTH",
"404 433 OFFCURVE"
);
}
);
width = 746;
}
);
unicode = 0026;
},
{
color = 4;
glyphname = bar;
lastChange = "2017-08-30 09:00:31 +0000";
layers = (
{
background = {
paths = (
{
closed = 1;
nodes = (
"268 -100 LINE",
"268 810 LINE",
"130 810 LINE",
"130 -100 LINE"
);
}
);
};
layerId = "3F6440D7-FC3E-4965-8B72-FDD88F2A8137";
paths = (
{
closed = 1;
nodes = (
"268 -150 LINE",
"268 860 LINE",
"130 860 LINE",
"130 -150 LINE"
);
}
);
width = 398;
}
);
unicode = 007C;
},
{
color = 4;
glyphname = asciicircum;
lastChange = "2017-08-30 09:00:31 +0000";
layers = (
{
background = {
paths = (
{
closed = 1;
nodes = (
"459 480 LINE",
"312 750 LINE",
"167 750 LINE",
"20 480 LINE",
"145 480 LINE",
"235 629 LINE",
"245 629 LINE",
"334 480 LINE"
);
}
);
};
layerId = "3F6440D7-FC3E-4965-8B72-FDD88F2A8137";
paths = (
{
closed = 1;
nodes = (
"459 480 LINE",
"312 750 LINE",
"167 750 LINE",
"20 480 LINE",
"145 480 LINE",
"235 629 LINE",
"245 629 LINE",
"334 480 LINE"
);
}
);
width = 479;
}
);
unicode = 005E;
},
{
color = 4;
glyphname = dieresiscomb;
lastChange = "2017-08-30 09:00:31 +0000";
layers = (
{
anchors = (
{
name = _top;
position = "{0, 524}";
}
);
background = {
paths = (
{
closed = 1;
nodes = (
"65 713 OFFCURVE",
"51 684 OFFCURVE",
"1 684 CURVE SMOOTH",
"-49 684 OFFCURVE",
"-63 713 OFFCURVE",
"-68 763 CURVE",
"-174 763 LINE",
"-174 653 OFFCURVE",
"-117 589 OFFCURVE",
"1 589 CURVE SMOOTH",
"116 589 OFFCURVE",
"176 653 OFFCURVE",
"176 763 CURVE",
"70 763 LINE"
);
}
);
};
layerId = "3F6440D7-FC3E-4965-8B72-FDD88F2A8137";
paths = (
{
closed = 1;
nodes = (
"-65 605 OFFCURVE",
"-29 627 OFFCURVE",
"-29 678 CURVE SMOOTH",
"-29 729 OFFCURVE",
"-65 751 OFFCURVE",
"-109 751 CURVE SMOOTH",
"-153 751 OFFCURVE",
"-189 729 OFFCURVE",
"-189 678 CURVE SMOOTH",
"-189 627 OFFCURVE",
"-153 605 OFFCURVE",
"-109 605 CURVE SMOOTH"
);
},
{
closed = 1;
nodes = (
"153 605 OFFCURVE",
"189 627 OFFCURVE",
"189 678 CURVE SMOOTH",
"189 729 OFFCURVE",
"153 751 OFFCURVE",
"109 751 CURVE SMOOTH",
"65 751 OFFCURVE",
"29 729 OFFCURVE",
"29 678 CURVE SMOOTH",
"29 627 OFFCURVE",
"65 605 OFFCURVE",
"109 605 CURVE SMOOTH"
);
}
);
width = 0;
}
);
unicode = 0308;
},
{
color = 4;
glyphname = dotaccentcomb;
lastChange = "2017-08-30 09:00:31 +0000";
layers = (
{
anchors = (
{
name = _top;
position = "{0, 505}";
},
{
name = top;
position = "{0, 745}";
}
);
associatedMasterId = "0A1AFE58-107D-4787-BDA0-D82FB635C3A6";
layerId = "7B99921F-A039-442D-B9C0-B0BA1B017383";
paths = (
{
closed = 1;
nodes = (
"-116 661 CURVE SMOOTH",
"-116 607 OFFCURVE",
"-73 563 OFFCURVE",
"-1 563 CURVE SMOOTH",
"80 563 OFFCURVE",
"127 610 OFFCURVE",
"127 673 CURVE SMOOTH",
"127 728 OFFCURVE",
"86 771 OFFCURVE",
"14 771 CURVE SMOOTH",
"-67 771 OFFCURVE",
"-116 727 OFFCURVE"
);
}
);
width = 0;
},
{
anchors = (
{
name = _top;
position = "{0, 474}";
},
{
name = top;
position = "{0, 664}";
}
);
associatedMasterId = "0A1AFE58-107D-4787-BDA0-D82FB635C3A6";
layerId = "0784270B-128F-47CD-B9CD-1A7CF23A33A2";
paths = (
{
closed = 1;
nodes = (
"-72 625 CURVE SMOOTH",
"-72 586 OFFCURVE",
"-45 561 OFFCURVE",
"-3 561 CURVE SMOOTH",
"42 561 OFFCURVE",
"72 590 OFFCURVE",
"72 632 CURVE SMOOTH",
"72 671 OFFCURVE",
"45 698 OFFCURVE",
"4 698 CURVE SMOOTH",
"-41 698 OFFCURVE",
"-72 668 OFFCURVE"
);
}
);
width = 0;
},
{
anchors = (
{
name = _top;
position = "{0, 456}";
},
{
name = top;
position = "{0, 596}";
}
);
associatedMasterId = "0A1AFE58-107D-4787-BDA0-D82FB635C3A6";
layerId = "F7700227-3129-48D1-BD84-546BE00F4B40";
paths = (
{
closed = 1;
nodes = (
"-37 593 CURVE SMOOTH",
"-37 574 OFFCURVE",
"-22 561 OFFCURVE",
"-1 561 CURVE SMOOTH",
"22 561 OFFCURVE",
"37 576 OFFCURVE",
"37 597 CURVE SMOOTH",
"37 617 OFFCURVE",
"23 630 OFFCURVE",
"2 630 CURVE SMOOTH",
"-21 630 OFFCURVE",
"-37 615 OFFCURVE"
);
}
);
width = 0;
},
{
anchors = (
{
name = _top;
position = "{0, 524}";
}
);
background = {
paths = (
{
closed = 1;
nodes = (
"65 713 OFFCURVE",
"51 684 OFFCURVE",
"1 684 CURVE SMOOTH",
"-49 684 OFFCURVE",
"-63 713 OFFCURVE",
"-68 763 CURVE",
"-174 763 LINE",
"-174 653 OFFCURVE",
"-117 589 OFFCURVE",
"1 589 CURVE SMOOTH",
"116 589 OFFCURVE",
"176 653 OFFCURVE",
"176 763 CURVE",
"70 763 LINE"
);
}
);
};
layerId = "3F6440D7-FC3E-4965-8B72-FDD88F2A8137";
paths = (
{
closed = 1;
nodes = (
"49 605 OFFCURVE",
"83 627 OFFCURVE",
"83 681 CURVE SMOOTH",
"83 735 OFFCURVE",
"49 757 OFFCURVE",
"0 757 CURVE SMOOTH",
"-49 757 OFFCURVE",
"-83 735 OFFCURVE",
"-83 681 CURVE SMOOTH",
"-83 627 OFFCURVE",
"-49 605 OFFCURVE",
"0 605 CURVE SMOOTH"
);
}
);
width = 0;
}
);
unicode = 0307;
userData = {
public.markColor = "0.98,0.36,0.67,1";
};
},
{
color = 4;
glyphname = gravecomb;
lastChange = "2017-08-30 09:00:31 +0000";
layers = (
{
anchors = (
{
name = _top;
position = "{0, 456}";
}
);
associatedMasterId = "0A1AFE58-107D-4787-BDA0-D82FB635C3A6";
layerId = "207\\\\\\\\\\\\\\\\\\\\\\\\\\\"\\\\\\\\\\\\\\\\\\\\\\\\\\\"";
name = "Light Extended";
paths = (
{
closed = 1;
nodes = (
"-104 679 LINE",
"-104 675 LINE",
"63 530 LINE",
"81 549 LINE",
"-80 702 LINE"
);
}
);
width = 0;
},
{
anchors = (
{
name = _top;
position = "{0, 505}";
}
);
associatedMasterId = "0A1AFE58-107D-4787-BDA0-D82FB635C3A6";
layerId = "FB1C89AD-B37A-407E-A578-81A652CD14FD";
name = "Bold Extended";
paths = (
{
closed = 1;
nodes = (
"-189 713 LINE",
"-189 695 LINE",
"57 555 LINE",
"136 656 LINE",
"-92 842 LINE"
);
}
);
width = 0;
},
{
anchors = (
{
name = _top;
position = "{0, 474}";
}
);
associatedMasterId = "0A1AFE58-107D-4787-BDA0-D82FB635C3A6";
layerId = "3\\\\\\\\\\\\\\\\\\\\\\\\\\\"\\\\\\\\\\\\\\\\\\\\\\\\\\\"";
name = Extended;
paths = (
{
closed = 1;
nodes = (
"-138 664 LINE",
"-138 658 LINE",
"65 535 LINE",
"111 598 LINE",
"-76 747 LINE"
);
}
);
width = 0;
},
{
anchors = (
{
name = _top;
position = "{0, 525}";
}
);
background = {
paths = (
{
closed = 1;
nodes = (
"-157 764 LINE",
"-43 595 LINE",
"62 595 LINE",
"-5 764 LINE"
);
}
);
};
layerId = "3F6440D7-FC3E-4965-8B72-FDD88F2A8137";
paths = (
{
closed = 1;
nodes = (
"-157 774 LINE",
"-43 595 LINE",
"62 595 LINE",
"-5 774 LINE"
);
}
);
width = 0;
}
);
leftKerningGroup = gravecomb;
rightKerningGroup = gravecomb;
unicode = 0300;
userData = {
public.markColor = "0.98,0.36,0.67,1";
};
},
{
color = 4;
glyphname = acutecomb;
lastChange = "2017-08-30 09:00:31 +0000";
layers = (
{
anchors = (
{
name = _top;
position = "{0, 505}";
}
);
associatedMasterId = "0A1AFE58-107D-4787-BDA0-D82FB635C3A6";
layerId = "7B99921F-A039-442D-B9C0-B0BA1B017383";
paths = (
{
closed = 1;
nodes = (
"-122 656 LINE",
"-43 555 LINE",
"203 695 LINE",
"203 713 LINE",
"106 842 LINE"
);
}
);
width = 0;
},
{
anchors = (
{
name = _top;
position = "{0, 474}";
}
);
associatedMasterId = "0A1AFE58-107D-4787-BDA0-D82FB635C3A6";
layerId = "0784270B-128F-47CD-B9CD-1A7CF23A33A2";
paths = (
{
closed = 1;
nodes = (
"-94 598 LINE",
"-48 535 LINE",
"155 658 LINE",
"155 664 LINE",
"93 747 LINE"
);
}
);
width = 0;
},
{
anchors = (
{
name = _top;
position = "{0, 456}";
}
);
associatedMasterId = "0A1AFE58-107D-4787-BDA0-D82FB635C3A6";
layerId = "F7700227-3129-48D1-BD84-546BE00F4B40";
paths = (
{
closed = 1;
nodes = (
"-55 549 LINE",
"-37 530 LINE",
"130 675 LINE",
"130 679 LINE",
"106 702 LINE"
);
}
);
width = 0;
},
{
anchors = (
{
name = _top;
position = "{0, 525}";
}
);
background = {
paths = (
{
closed = 1;
nodes = (
"-69 595 LINE",
"36 595 LINE",
"165 764 LINE",
"8 764 LINE"
);
}
);
};
layerId = "3F6440D7-FC3E-4965-8B72-FDD88F2A8137";
paths = (
{
closed = 1;
nodes = (
"-69 595 LINE",
"36 595 LINE",
"165 774 LINE",
"8 774 LINE"
);
}
);
width = 0;
}
);
unicode = 0301;
userData = {
public.markColor = "0.98,0.36,0.67,1";
};
},
{
color = 4;
glyphname = hungarumlautcomb;
lastChange = "2017-08-30 09:00:31 +0000";
layers = (
{
anchors = (
{
name = _top;
position = "{0, 456}";
}
);
associatedMasterId = "0A1AFE58-107D-4787-BDA0-D82FB635C3A6";
layerId = "207\\\\\\\\\\\\\\\\\\\\\\\\\\\"\\\\\\\\\\\\\\\\\\\\\\\\\\\"";
name = "Light Extended";
paths = (
{
closed = 1;
nodes = (
"-95 542 LINE",
"-73 530 LINE",
"17 681 LINE",
"17 686 LINE",
"-11 701 LINE"
);
},
{
closed = 1;
nodes = (
"46 542 LINE",
"68 530 LINE",
"157 681 LINE",
"157 686 LINE",
"129 701 LINE"
);
}
);
width = 0;
},
{
anchors = (
{
name = _top;
position = "{0, 505}";
}
);
associatedMasterId = "0A1AFE58-107D-4787-BDA0-D82FB635C3A6";
layerId = "FB1C89AD-B37A-407E-A578-81A652CD14FD";
name = "Bold Extended";
paths = (
{
closed = 1;
nodes = (
"-200 611 LINE",
"-85 555 LINE",
"44 746 LINE",
"44 764 LINE",
"-111 833 LINE"
);
},
{
closed = 1;
nodes = (
"35 611 LINE",
"152 555 LINE",
"281 746 LINE",
"281 764 LINE",
"126 833 LINE"
);
}
);
width = 0;
},
{
anchors = (
{
name = _top;
position = "{0, 474}";
}
);
associatedMasterId = "0A1AFE58-107D-4787-BDA0-D82FB635C3A6";
layerId = "3\\\\\\\\\\\\\\\\\\\\\\\\\\\"\\\\\\\\\\\\\\\\\\\\\\\\\\\"";
name = Extended;
paths = (
{
closed = 1;
nodes = (
"-149 576 LINE",
"-88 536 LINE",
"43 688 LINE",
"43 694 LINE",
"-37 751 LINE"
);
},
{
closed = 1;
nodes = (
"28 576 LINE",
"90 536 LINE",
"221 688 LINE",
"221 694 LINE",
"139 747 LINE"
);
}
);
width = 0;
},
{
anchors = (
{
name = _top;
position = "{0, 525}";
}
);
background = {
paths = (
{
closed = 1;
nodes = (
"-149 594 LINE",
"-44 594 LINE",
"85 763 LINE",
"-72 763 LINE"
);
},
{
closed = 1;
nodes = (
"51 594 LINE",
"156 594 LINE",
"285 763 LINE",
"128 763 LINE"
);
}
);
};
layerId = "3F6440D7-FC3E-4965-8B72-FDD88F2A8137";
paths = (
{
closed = 1;
nodes = (
"-159 594 LINE",
"-59 594 LINE",
"45 763 LINE",
"-102 763 LINE"
);
},
{
closed = 1;
nodes = (
"41 594 LINE",
"141 594 LINE",
"245 763 LINE",
"98 763 LINE"
);
}
);
width = 0;
}
);
leftKerningGroup = hungarumlautcomb;
rightKerningGroup = hungarumlautcomb;
unicode = 030B;
userData = {
public.markColor = "0.98,0.36,0.67,1";
};
},
{
color = 4;
glyphname = circumflexcomb;
lastChange = "2017-08-30 09:00:31 +0000";
layers = (
{
anchors = (
{
name = _top;
position = "{0, 505}";
}
);
associatedMasterId = "0A1AFE58-107D-4787-BDA0-D82FB635C3A6";
layerId = "7B99921F-A039-442D-B9C0-B0BA1B017383";
paths = (
{
closed = 1;
nodes = (
"-77 808 LINE",
"-227 634 LINE",
"-140 554 LINE",
"47 703 LINE",
"-49 703 LINE",
"140 554 LINE",
"230 634 LINE",
"77 812 LINE"
);
}
);
width = 0;
},
{
anchors = (
{
name = _top;
position = "{0, 474}";
}
);
associatedMasterId = "0A1AFE58-107D-4787-BDA0-D82FB635C3A6";
layerId = "0784270B-128F-47CD-B9CD-1A7CF23A33A2";
paths = (
{
closed = 1;
nodes = (
"-43 741 LINE",
"-176 597 LINE",
"-124 540 LINE",
"24 672 LINE",
"-24 672 LINE",
"121 540 LINE",
"176 596 LINE",
"43 744 LINE"
);
}
);
width = 0;
},
{
anchors = (
{
name = _top;
position = "{0, 456}";
}
);
associatedMasterId = "0A1AFE58-107D-4787-BDA0-D82FB635C3A6";
layerId = "F7700227-3129-48D1-BD84-546BE00F4B40";
paths = (
{
closed = 1;
nodes = (
"-15 695 LINE",
"-141 549 LINE",
"-120 531 LINE",
"7 669 LINE",
"-6 669 LINE",
"115 532 LINE",
"136 551 LINE",
"13 699 LINE"
);
}
);
width = 0;
},
{
anchors = (
{
name = _top;
position = "{0, 525}";
}
);
background = {
paths = (
{
closed = 1;
nodes = (
"189 594 LINE",
"72 763 LINE",
"-73 763 LINE",
"-190 594 LINE",
"-75 594 LINE",
"-5 677 LINE",
"5 677 LINE",
"74 594 LINE"
);
}
);
};
layerId = "3F6440D7-FC3E-4965-8B72-FDD88F2A8137";
paths = (
{
closed = 1;
nodes = (
"209 594 LINE",
"72 763 LINE",
"-73 763 LINE",
"-210 594 LINE",
"-85 594 LINE",
"-5 672 LINE",
"5 672 LINE",
"84 594 LINE"
);
}
);
width = 0;
}
);
unicode = 0302;
userData = {
public.markColor = "0.98,0.36,0.67,1";
};
},
{
color = 4;
glyphname = caroncomb;
lastChange = "2017-08-30 09:00:31 +0000";
layers = (
{
anchors = (
{
name = _top;
position = "{0, 505}";
}
);
associatedMasterId = "0A1AFE58-107D-4787-BDA0-D82FB635C3A6";
layerId = "7B99921F-A039-442D-B9C0-B0BA1B017383";
paths = (
{
closed = 1;
nodes = (
"-47 678 LINE",
"49 678 LINE",
"-140 827 LINE",
"-230 747 LINE",
"-77 569 LINE",
"77 573 LINE",
"227 747 LINE",
"140 827 LINE"
);
}
);
width = 0;
},
{
anchors = (
{
name = _top;
position = "{0, 474}";
}
);
associatedMasterId = "0A1AFE58-107D-4787-BDA0-D82FB635C3A6";
layerId = "0784270B-128F-47CD-B9CD-1A7CF23A33A2";
paths = (
{
closed = 1;
nodes = (
"-20 619 LINE",
"28 619 LINE",
"-117 751 LINE",
"-172 695 LINE",
"-39 547 LINE",
"47 550 LINE",
"180 694 LINE",
"128 751 LINE"
);
}
);
width = 0;
},
{
anchors = (
{
name = _top;
position = "{0, 456}";
}
);
associatedMasterId = "0A1AFE58-107D-4787-BDA0-D82FB635C3A6";
layerId = "F7700227-3129-48D1-BD84-546BE00F4B40";
paths = (
{
closed = 1;
nodes = (
"-9 566 LINE",
"4 566 LINE",
"-117 703 LINE",
"-138 684 LINE",
"-15 536 LINE",
"13 540 LINE",
"139 686 LINE",
"118 704 LINE"
);
}
);
width = 0;
},
{
anchors = (
{
name = _top;
position = "{0, 525}";
}
);
background = {
paths = (
{
closed = 1;
nodes = (
"-1 670 LINE",
"-65 753 LINE",
"-180 753 LINE",
"-73 594 LINE",
"72 594 LINE",
"179 753 LINE",
"64 753 LINE"
);
}
);
};
layerId = "3F6440D7-FC3E-4965-8B72-FDD88F2A8137";
paths = (
{
closed = 1;
nodes = (
"5 685 LINE",
"-5 685 LINE",
"-85 763 LINE",
"-210 763 LINE",
"-73 594 LINE",
"72 594 LINE",
"209 763 LINE",
"84 763 LINE"
);
}
);
width = 0;
}
);
unicode = 030C;
userData = {
public.markColor = "0.98,0.36,0.67,1";
};
},
{
color = 4;
glyphname = brevecomb;
lastChange = "2017-08-30 09:00:31 +0000";
layers = (
{
anchors = (
{
name = _top;
position = "{0, 505}";
}
);
associatedMasterId = "0A1AFE58-107D-4787-BDA0-D82FB635C3A6";
layerId = "7B99921F-A039-442D-B9C0-B0BA1B017383";
paths = (
{
closed = 1;
nodes = (
"80 747 OFFCURVE",
"52 708 OFFCURVE",
"1 708 CURVE SMOOTH",
"-50 708 OFFCURVE",
"-75 746 OFFCURVE",
"-82 805 CURVE",
"-218 780 LINE",
"-206 643 OFFCURVE",
"-122 566 OFFCURVE",
"-2 566 CURVE SMOOTH",
"116 566 OFFCURVE",
"206 640 OFFCURVE",
"218 783 CURVE",
"85 805 LINE"
);
}
);
width = 0;
},
{
anchors = (
{
name = _top;
position = "{0, 474}";
}
);
associatedMasterId = "0A1AFE58-107D-4787-BDA0-D82FB635C3A6";
layerId = "0784270B-128F-47CD-B9CD-1A7CF23A33A2";
paths = (
{
closed = 1;
nodes = (
"81 672 OFFCURVE",
"47 637 OFFCURVE",
"2 637 CURVE SMOOTH",
"-45 637 OFFCURVE",
"-76 671 OFFCURVE",
"-82 731 CURVE",
"-159 721 LINE",
"-149 613 OFFCURVE",
"-107 546 OFFCURVE",
"-4 545 CURVE SMOOTH",
"101 544 OFFCURVE",
"157 613 OFFCURVE",
"162 721 CURVE",
"88 731 LINE"
);
}
);
width = 0;
},
{
anchors = (
{
name = _top;
position = "{0, 456}";
}
);
associatedMasterId = "0A1AFE58-107D-4787-BDA0-D82FB635C3A6";
layerId = "F7700227-3129-48D1-BD84-546BE00F4B40";
paths = (
{
closed = 1;
nodes = (
"90 594 OFFCURVE",
"49 576 OFFCURVE",
"2 576 CURVE SMOOTH",
"-45 576 OFFCURVE",
"-85 595 OFFCURVE",
"-101 675 CURVE",
"-128 670 LINE",
"-112 574 OFFCURVE",
"-66 542 OFFCURVE",
"0 542 CURVE SMOOTH",
"67 542 OFFCURVE",
"117 574 OFFCURVE",
"132 670 CURVE",
"106 675 LINE"
);
}
);
width = 0;
},
{
anchors = (
{
name = _top;
position = "{0, 525}";
}
);
background = {
paths = (
{
closed = 1;
nodes = (
"5 685 LINE",
"-5 685 LINE",
"-85 763 LINE",
"-210 763 LINE",
"-73 594 LINE",
"72 594 LINE",
"209 763 LINE",
"84 763 LINE"
);
}
);
};
layerId = "3F6440D7-FC3E-4965-8B72-FDD88F2A8137";
paths = (
{
closed = 1;
nodes = (
"65 713 OFFCURVE",
"51 684 OFFCURVE",
"1 684 CURVE SMOOTH",
"-49 684 OFFCURVE",
"-63 713 OFFCURVE",
"-68 763 CURVE",
"-174 763 LINE",
"-174 653 OFFCURVE",
"-117 589 OFFCURVE",
"1 589 CURVE SMOOTH",
"116 589 OFFCURVE",
"176 653 OFFCURVE",
"176 763 CURVE",
"70 763 LINE"
);
}
);
width = 0;
}
);
unicode = 0306;
},
{
color = 4;
glyphname = ringcomb;
lastChange = "2017-08-30 09:00:31 +0000";
layers = (
{
anchors = (
{
name = _top;
position = "{0, 456}";
},
{
name = top;
position = "{1, 668}";
}
);
associatedMasterId = "0A1AFE58-107D-4787-BDA0-D82FB635C3A6";
layerId = "207\\\\\\\\\\\\\\\\\\\\\\\\\\\"\\\\\\\\\\\\\\\\\\\\\\\\\\\"";
name = "Light Extended";
paths = (
{
closed = 1;
nodes = (
"-99 614 CURVE SMOOTH",
"-99 561 OFFCURVE",
"-62 526 OFFCURVE",
"-3 526 CURVE SMOOTH",
"59 526 OFFCURVE",
"99 564 OFFCURVE",
"99 623 CURVE SMOOTH",
"99 677 OFFCURVE",
"61 711 OFFCURVE",
"4 711 CURVE SMOOTH",
"-60 711 OFFCURVE",
"-99 674 OFFCURVE"
);
},
{
closed = 1;
nodes = (
"69 622 CURVE SMOOTH",
"69 579 OFFCURVE",
"40 553 OFFCURVE",
"-3 553 CURVE SMOOTH",
"-44 553 OFFCURVE",
"-69 576 OFFCURVE",
"-69 614 CURVE SMOOTH",
"-69 658 OFFCURVE",
"-42 684 OFFCURVE",
"4 684 CURVE SMOOTH",
"42 684 OFFCURVE",
"69 661 OFFCURVE"
);
}
);
width = 0;
},
{
anchors = (
{
name = _top;
position = "{0, 505}";
},
{
name = top;
position = "{0, 799}";
}
);
associatedMasterId = "0A1AFE58-107D-4787-BDA0-D82FB635C3A6";
layerId = "FB1C89AD-B37A-407E-A578-81A652CD14FD";
name = "Bold Extended";
paths = (
{
closed = 1;
nodes = (
"-176 688 CURVE SMOOTH",
"-176 607 OFFCURVE",
"-104 555 OFFCURVE",
"-11 555 CURVE SMOOTH",
"95 555 OFFCURVE",
"176 611 OFFCURVE",
"176 704 CURVE SMOOTH",
"176 784 OFFCURVE",
"103 834 OFFCURVE",
"9 834 CURVE SMOOTH",
"-96 834 OFFCURVE",
"-176 779 OFFCURVE"
);
},
{
closed = 1;
nodes = (
"52 696 CURVE SMOOTH",
"52 668 OFFCURVE",
"30 650 OFFCURVE",
"-2 650 CURVE SMOOTH",
"-32 650 OFFCURVE",
"-51 668 OFFCURVE",
"-51 696 CURVE SMOOTH",
"-51 725 OFFCURVE",
"-29 742 OFFCURVE",
"3 741 CURVE SMOOTH",
"33 742 OFFCURVE",
"52 723 OFFCURVE"
);
}
);
width = 0;
},
{
anchors = (
{
name = _top;
position = "{0, 474}";
},
{
name = top;
position = "{0, 709}";
}
);
associatedMasterId = "0A1AFE58-107D-4787-BDA0-D82FB635C3A6";
layerId = "3\\\\\\\\\\\\\\\\\\\\\\\\\\\"\\\\\\\\\\\\\\\\\\\\\\\\\\\"";
name = Extended;
paths = (
{
closed = 1;
nodes = (
"-131 637 CURVE SMOOTH",
"-131 572 OFFCURVE",
"-79 528 OFFCURVE",
"-6 528 CURVE SMOOTH",
"73 528 OFFCURVE",
"131 576 OFFCURVE",
"131 649 CURVE SMOOTH",
"131 715 OFFCURVE",
"79 758 OFFCURVE",
"8 758 CURVE SMOOTH",
"-73 758 OFFCURVE",
"-131 711 OFFCURVE"
);
},
{
closed = 1;
nodes = (
"51 644 CURVE SMOOTH",
"51 611 OFFCURVE",
"32 594 OFFCURVE",
"-2 594 CURVE SMOOTH",
"-35 594 OFFCURVE",
"-52 612 OFFCURVE",
"-52 640 CURVE SMOOTH",
"-52 673 OFFCURVE",
"-31 692 OFFCURVE",
"3 692 CURVE SMOOTH",
"35 692 OFFCURVE",
"51 673 OFFCURVE"
);
}
);
width = 0;
},
{
anchors = (
{
name = _top;
position = "{0, 525}";
}
);
background = {
paths = (
{
closed = 1;
nodes = (
"-76 808 OFFCURVE",
"-128 772 OFFCURVE",
"-128 696 CURVE SMOOTH",
"-128 620 OFFCURVE",
"-76 585 OFFCURVE",
"0 585 CURVE SMOOTH",
"76 585 OFFCURVE",
"127 620 OFFCURVE",
"127 696 CURVE SMOOTH",
"127 772 OFFCURVE",
"76 808 OFFCURVE",
"0 808 CURVE SMOOTH"
);
},
{
closed = 1;
nodes = (
"28 739 OFFCURVE",
"46 725 OFFCURVE",
"46 696 CURVE SMOOTH",
"46 666 OFFCURVE",
"28 654 OFFCURVE",
"0 654 CURVE SMOOTH",
"-28 654 OFFCURVE",
"-46 666 OFFCURVE",
"-46 696 CURVE SMOOTH",
"-46 725 OFFCURVE",
"-28 739 OFFCURVE",
"0 739 CURVE SMOOTH"
);
}
);
};
layerId = "3F6440D7-FC3E-4965-8B72-FDD88F2A8137";
paths = (
{
closed = 1;
nodes = (
"-82 820 OFFCURVE",
"-134 780 OFFCURVE",
"-134 702 CURVE SMOOTH",
"-134 624 OFFCURVE",
"-82 585 OFFCURVE",
"0 585 CURVE SMOOTH",
"82 585 OFFCURVE",
"133 624 OFFCURVE",
"133 702 CURVE SMOOTH",
"133 780 OFFCURVE",
"82 820 OFFCURVE",
"0 820 CURVE SMOOTH"
);
},
{
closed = 1;
nodes = (
"31 748 OFFCURVE",
"49 731 OFFCURVE",
"49 702 CURVE SMOOTH",
"49 672 OFFCURVE",
"31 657 OFFCURVE",
"0 657 CURVE SMOOTH",
"-31 657 OFFCURVE",
"-49 672 OFFCURVE",
"-49 702 CURVE SMOOTH",
"-49 731 OFFCURVE",
"-31 748 OFFCURVE",
"0 748 CURVE SMOOTH"
);
}
);
width = 0;
}
);
leftKerningGroup = ringcomb;
rightKerningGroup = ringcomb;
unicode = 030A;
userData = {
public.markColor = "0.98,0.36,0.67,1";
};
},
{
color = 4;
glyphname = tildecomb;
lastChange = "2017-08-30 09:00:31 +0000";
layers = (
{
anchors = (
{
name = _top;
position = "{0, 456}";
}
);
associatedMasterId = "0A1AFE58-107D-4787-BDA0-D82FB635C3A6";
layerId = "207\\\\\\\\\\\\\\\\\\\\\\\\\\\"\\\\\\\\\\\\\\\\\\\\\\\\\\\"";
name = "Light Extended";
paths = (
{
closed = 1;
nodes = (
"64 571 CURVE SMOOTH",
"16 571 OFFCURVE",
"-2 647 OFFCURVE",
"-61 647 CURVE SMOOTH",
"-103 647 OFFCURVE",
"-137 609 OFFCURVE",
"-164 556 CURVE",
"-140 543 LINE",
"-114 586 OFFCURVE",
"-92 617 OFFCURVE",
"-64 617 CURVE SMOOTH",
"-17 617 OFFCURVE",
"3 541 OFFCURVE",
"61 541 CURVE SMOOTH",
"103 541 OFFCURVE",
"136 579 OFFCURVE",
"163 632 CURVE",
"139 645 LINE",
"117 604 OFFCURVE",
"92 571 OFFCURVE"
);
}
);
width = 0;
},
{
anchors = (
{
name = _top;
position = "{0, 505}";
}
);
associatedMasterId = "0A1AFE58-107D-4787-BDA0-D82FB635C3A6";
layerId = "FB1C89AD-B37A-407E-A578-81A652CD14FD";
name = "Bold Extended";
paths = (
{
closed = 1;
nodes = (
"81 727 CURVE SMOOTH",
"52 727 OFFCURVE",
"16 800 OFFCURVE",
"-69 800 CURVE SMOOTH",
"-162 800 OFFCURVE",
"-214 732 OFFCURVE",
"-245 615 CURVE",
"-137 570 LINE",
"-113 613 OFFCURVE",
"-96 640 OFFCURVE",
"-73 640 CURVE SMOOTH",
"-44 640 OFFCURVE",
"-7 567 OFFCURVE",
"78 567 CURVE SMOOTH",
"171 567 OFFCURVE",
"233 649 OFFCURVE",
"254 756 CURVE",
"146 803 LINE",
"128 770 OFFCURVE",
"104 727 OFFCURVE"
);
}
);
width = 0;
},
{
anchors = (
{
name = _top;
position = "{0, 474}";
}
);
associatedMasterId = "0A1AFE58-107D-4787-BDA0-D82FB635C3A6";
layerId = "3\\\\\\\\\\\\\\\\\\\\\\\\\\\"\\\\\\\\\\\\\\\\\\\\\\\\\\\"";
name = Extended;
paths = (
{
closed = 1;
nodes = (
"64 643 CURVE SMOOTH",
"24 643 OFFCURVE",
"5 703 OFFCURVE",
"-63 703 CURVE SMOOTH",
"-118 703 OFFCURVE",
"-163 661 OFFCURVE",
"-197 589 CURVE",
"-133 548 LINE",
"-108 584 OFFCURVE",
"-88 609 OFFCURVE",
"-66 609 CURVE SMOOTH",
"-23 609 OFFCURVE",
"-9 549 OFFCURVE",
"63 549 CURVE SMOOTH",
"117 549 OFFCURVE",
"163 592 OFFCURVE",
"196 670 CURVE",
"131 706 LINE",
"109 669 OFFCURVE",
"87 643 OFFCURVE"
);
}
);
width = 0;
},
{
anchors = (
{
name = _top;
position = "{0, 525}";
}
);
background = {
paths = (
{
closed = 1;
nodes = (
"95 729 OFFCURVE",
"88 705 OFFCURVE",
"62 705 CURVE SMOOTH",
"28 705 OFFCURVE",
"-2 768 OFFCURVE",
"-81 768 CURVE SMOOTH",
"-162 768 OFFCURVE",
"-194 690 OFFCURVE",
"-201 604 CURVE",
"-105 604 LINE",
"-98 635 OFFCURVE",
"-91 662 OFFCURVE",
"-63 662 CURVE SMOOTH",
"-30 662 OFFCURVE",
"-1 599 OFFCURVE",
"78 599 CURVE SMOOTH",
"157 599 OFFCURVE",
"193 677 OFFCURVE",
"198 763 CURVE",
"102 763 LINE"
);
}
);
};
layerId = "3F6440D7-FC3E-4965-8B72-FDD88F2A8137";
paths = (
{
closed = 1;
nodes = (
"95 729 OFFCURVE",
"90 705 OFFCURVE",
"65 705 CURVE SMOOTH",
"31 705 OFFCURVE",
"-7 768 OFFCURVE",
"-86 768 CURVE SMOOTH",
"-167 768 OFFCURVE",
"-199 690 OFFCURVE",
"-206 604 CURVE",
"-105 604 LINE",
"-98 635 OFFCURVE",
"-91 662 OFFCURVE",
"-66 662 CURVE SMOOTH",
"-33 662 OFFCURVE",
"4 599 OFFCURVE",
"83 599 CURVE SMOOTH",
"162 599 OFFCURVE",
"198 677 OFFCURVE",
"203 763 CURVE",
"102 763 LINE"
);
}
);
width = 0;
}
);
leftKerningGroup = tildecomb;
rightKerningGroup = tildecomb;
unicode = 0303;
userData = {
public.markColor = "0.98,0.36,0.67,1";
};
},
{
color = 4;
glyphname = macroncomb;
lastChange = "2017-08-30 09:00:31 +0000";
layers = (
{
anchors = (
{
name = _top;
position = "{0, 505}";
},
{
name = top;
position = "{0, 705}";
}
);
associatedMasterId = "0A1AFE58-107D-4787-BDA0-D82FB635C3A6";
layerId = "7B99921F-A039-442D-B9C0-B0BA1B017383";
paths = (
{
closed = 1;
nodes = (
"-193 714 LINE",
"-193 577 LINE",
"193 577 LINE",
"193 714 LINE"
);
}
);
width = 0;
},
{
anchors = (
{
name = _top;
position = "{0, 474}";
},
{
name = top;
position = "{0, 634}";
}
);
associatedMasterId = "0A1AFE58-107D-4787-BDA0-D82FB635C3A6";
layerId = "0784270B-128F-47CD-B9CD-1A7CF23A33A2";
paths = (
{
closed = 1;
nodes = (
"-152 649 LINE",
"-152 561 LINE",
"151 561 LINE",
"151 649 LINE"
);
}
);
width = 0;
},
{
anchors = (
{
name = _top;
position = "{0, 456}";
},
{
name = top;
position = "{0, 566}";
}
);
associatedMasterId = "0A1AFE58-107D-4787-BDA0-D82FB635C3A6";
layerId = "F7700227-3129-48D1-BD84-546BE00F4B40";
paths = (
{
closed = 1;
nodes = (
"-126 590 LINE",
"-126 560 LINE",
"126 560 LINE",
"126 590 LINE"
);
}
);
width = 0;
},
{
anchors = (
{
name = _top;
position = "{0, 525}";
}
);
background = {
paths = (
{
closed = 1;
nodes = (
"65 713 OFFCURVE",
"51 684 OFFCURVE",
"1 684 CURVE SMOOTH",
"-49 684 OFFCURVE",
"-63 713 OFFCURVE",
"-68 763 CURVE",
"-174 763 LINE",
"-174 653 OFFCURVE",
"-117 589 OFFCURVE",
"1 589 CURVE SMOOTH",
"116 589 OFFCURVE",
"176 653 OFFCURVE",
"176 763 CURVE",
"70 763 LINE"
);
}
);
};
layerId = "3F6440D7-FC3E-4965-8B72-FDD88F2A8137";
paths = (
{
closed = 1;
nodes = (
"-154 709 LINE",
"-154 609 LINE",
"155 609 LINE",
"155 709 LINE"
);
}
);
width = 0;
}
);
unicode = 0304;
},
{
color = 4;
glyphname = commaaccentturnedabovecomb;
lastChange = "2017-08-30 09:00:31 +0000";
layers = (
{
anchors = (
{
name = _top;
position = "{0, 525}";
}
);
background = {
paths = (
{
closed = 1;
nodes = (
"37 589 OFFCURVE",
"64 609 OFFCURVE",
"64 648 CURVE SMOOTH",
"64 687 OFFCURVE",
"35 703 OFFCURVE",
"-2 703 CURVE",
"17 681 LINE",
"26 709 OFFCURVE",
"48 741 OFFCURVE",
"62 759 CURVE",
"-5 759 LINE",
"-27 738 OFFCURVE",
"-63 696 OFFCURVE",
"-63 653 CURVE SMOOTH",
"-63 613 OFFCURVE",
"-42 589 OFFCURVE",
"2 589 CURVE SMOOTH"
);
}
);
};
layerId = "3F6440D7-FC3E-4965-8B72-FDD88F2A8137";
paths = (
{
closed = 1;
nodes = (
"45 589 OFFCURVE",
"79 613 OFFCURVE",
"79 659 CURVE SMOOTH",
"79 706 OFFCURVE",
"42 726 OFFCURVE",
"-2 726 CURVE",
"21 700 LINE",
"32 733 OFFCURVE",
"65 772 OFFCURVE",
"81 793 CURVE",
"-7 793 LINE",
"-35 768 OFFCURVE",
"-79 717 OFFCURVE",
"-79 666 CURVE SMOOTH",
"-79 617 OFFCURVE",
"-51 589 OFFCURVE",
"2 589 CURVE SMOOTH"
);
}
);
width = 0;
}
);
leftKerningGroup = commaaccentturnedabovecomb;
rightKerningGroup = commaaccentturnedabovecomb;
unicode = 0312;
},
{
color = 4;
glyphname = cedillacomb;
lastChange = "2017-08-30 09:00:31 +0000";
layers = (
{
anchors = (
{
name = _bottom;
position = "{0, 0}";
}
);
associatedMasterId = "0A1AFE58-107D-4787-BDA0-D82FB635C3A6";
layerId = "207\\\\\\\\\\\\\\\\\\\\\\\\\\\"\\\\\\\\\\\\\\\\\\\\\\\\\\\"";
name = "Light Extended";
paths = (
{
closed = 1;
nodes = (
"-48 -84 LINE",
"-36 -100 LINE",
"-28 -98 OFFCURVE",
"-14 -96 OFFCURVE",
"5 -96 CURVE SMOOTH",
"43 -96 OFFCURVE",
"74 -104 OFFCURVE",
"74 -138 CURVE SMOOTH",
"74 -179 OFFCURVE",
"31 -203 OFFCURVE",
"-60 -224 CURVE",
"-52 -250 LINE",
"50 -228 OFFCURVE",
"107 -191 OFFCURVE",
"107 -136 CURVE SMOOTH",
"107 -86 OFFCURVE",
"60 -69 OFFCURVE",
"11 -69 CURVE SMOOTH",
"-1 -69 OFFCURVE",
"-13 -70 OFFCURVE",
"-22 -72 CURVE",
"-18 -79 LINE",
"13 4 LINE",
"-12 13 LINE"
);
}
);
width = 0;
},
{
anchors = (
{
name = _bottom;
position = "{0, 0}";
}
);
associatedMasterId = "0A1AFE58-107D-4787-BDA0-D82FB635C3A6";
layerId = "FB1C89AD-B37A-407E-A578-81A652CD14FD";
name = "Bold Extended";
paths = (
{
closed = 1;
nodes = (
"-99 -85 LINE SMOOTH",
"-63 -137 LINE",
"-50 -135 OFFCURVE",
"-15 -131 OFFCURVE",
"0 -131 CURVE",
"18 -131 OFFCURVE",
"30 -134 OFFCURVE",
"30 -147 CURVE",
"30 -169 OFFCURVE",
"-24 -188 OFFCURVE",
"-92 -203 CURVE",
"-80 -299 LINE",
"90 -293 OFFCURVE",
"199 -241 OFFCURVE",
"199 -150 CURVE",
"199 -78 OFFCURVE",
"142 -45 OFFCURVE",
"69 -45 CURVE",
"56 -45 OFFCURVE",
"19 -46 OFFCURVE",
"4 -49 CURVE",
"35 -84 LINE SMOOTH",
"75 10 LINE SMOOTH",
"-43 40 LINE SMOOTH"
);
}
);
width = 0;
},
{
anchors = (
{
name = _bottom;
position = "{0, 0}";
}
);
associatedMasterId = "0A1AFE58-107D-4787-BDA0-D82FB635C3A6";
layerId = "3\\\\\\\\\\\\\\\\\\\\\\\\\\\"\\\\\\\\\\\\\\\\\\\\\\\\\\\"";
name = Extended;
paths = (
{
closed = 1;
nodes = (
"-85 -77 LINE",
"-59 -115 LINE",
"-53 -114 OFFCURVE",
"-38 -113 OFFCURVE",
"-28 -113 CURVE SMOOTH",
"-4 -113 OFFCURVE",
"19 -119 OFFCURVE",
"19 -142 CURVE SMOOTH",
"19 -171 OFFCURVE",
"-20 -193 OFFCURVE",
"-83 -201 CURVE",
"-73 -273 LINE",
"64 -260 OFFCURVE",
"136 -209 OFFCURVE",
"136 -138 CURVE SMOOTH",
"136 -66 OFFCURVE",
"64 -49 OFFCURVE",
"17 -49 CURVE SMOOTH",
"6 -49 OFFCURVE",
"-8 -50 OFFCURVE",
"-19 -53 CURVE",
"7 -77 LINE",
"48 8 LINE",
"-30 31 LINE"
);
}
);
width = 0;
},
{
anchors = (
{
name = _bottom;
position = "{0, 0}";
}
);
background = {
paths = (
{
closed = 1;
nodes = (
"-66 -77 LINE",
"-5 -82 OFFCURVE",
"24 -91 OFFCURVE",
"24 -110 CURVE SMOOTH",
"24 -125 OFFCURVE",
"12 -130 OFFCURVE",
"-9 -130 CURVE SMOOTH",
"-29 -130 OFFCURVE",
"-58 -127 OFFCURVE",
"-81 -123 CURVE",
"-81 -203 LINE",
"-61 -210 OFFCURVE",
"-23 -215 OFFCURVE",
"10 -215 CURVE SMOOTH",
"76 -215 OFFCURVE",
"134 -192 OFFCURVE",
"134 -119 CURVE SMOOTH",
"134 -51 OFFCURVE",
"69 -33 OFFCURVE",
"-4 -28 CURVE",
"19 -54 LINE",
"34 18 LINE",
"-40 18 LINE"
);
}
);
};
layerId = "3F6440D7-FC3E-4965-8B72-FDD88F2A8137";
paths = (
{
closed = 1;
nodes = (
"-66 -77 LINE",
"-5 -82 OFFCURVE",
"19 -91 OFFCURVE",
"19 -120 CURVE SMOOTH",
"19 -140 OFFCURVE",
"5 -150 OFFCURVE",
"-19 -150 CURVE SMOOTH",
"-39 -150 OFFCURVE",
"-63 -147 OFFCURVE",
"-86 -143 CURVE",
"-86 -223 LINE",
"-66 -230 OFFCURVE",
"-23 -235 OFFCURVE",
"10 -235 CURVE SMOOTH",
"76 -235 OFFCURVE",
"134 -212 OFFCURVE",
"134 -129 CURVE SMOOTH",
"134 -61 OFFCURVE",
"69 -33 OFFCURVE",
"-4 -28 CURVE",
"24 -54 LINE",
"39 18 LINE",
"-40 18 LINE"
);
}
);
width = 0;
}
);
leftKerningGroup = cedillacomb;
rightKerningGroup = cedillacomb;
unicode = 0327;
userData = {
public.markColor = "0.98,0.36,0.67,1";
};
},
{
color = 4;
glyphname = ogonekcomb;
lastChange = "2017-08-30 09:00:31 +0000";
layers = (
{
anchors = (
{
name = _ogonek;
position = "{27, 2}";
}
);
associatedMasterId = "0A1AFE58-107D-4787-BDA0-D82FB635C3A6";
layerId = "207\\\\\\\\\\\\\\\\\\\\\\\\\\\"\\\\\\\\\\\\\\\\\\\\\\\\\\\"";
name = "Light Extended";
paths = (
{
closed = 1;
nodes = (
"-144 -132 CURVE SMOOTH",
"-144 -186 OFFCURVE",
"-99 -221 OFFCURVE",
"-43 -221 CURVE SMOOTH",
"-16 -221 OFFCURVE",
"21 -213 OFFCURVE",
"56 -197 CURVE",
"45 -167 LINE",
"18 -178 OFFCURVE",
"-10 -189 OFFCURVE",
"-40 -189 CURVE SMOOTH",
"-86 -189 OFFCURVE",
"-109 -161 OFFCURVE",
"-109 -130 CURVE SMOOTH",
"-109 -87 OFFCURVE",
"-67 -48 OFFCURVE",
"27 2 CURVE",
"11 26 LINE",
"-86 -25 OFFCURVE",
"-144 -70 OFFCURVE"
);
}
);
width = 0;
},
{
anchors = (
{
name = _ogonek;
position = "{122, 19}";
}
);
associatedMasterId = "0A1AFE58-107D-4787-BDA0-D82FB635C3A6";
layerId = "FB1C89AD-B37A-407E-A578-81A652CD14FD";
name = "Bold Extended";
paths = (
{
closed = 1;
nodes = (
"-167 -121 CURVE SMOOTH",
"-167 -201 OFFCURVE",
"-97 -241 OFFCURVE",
"-11 -241 CURVE SMOOTH",
"47 -241 OFFCURVE",
"105 -227 OFFCURVE",
"154 -208 CURVE",
"123 -80 LINE",
"107 -82 OFFCURVE",
"81 -84 OFFCURVE",
"69 -84 CURVE SMOOTH",
"37 -84 OFFCURVE",
"24 -70 OFFCURVE",
"24 -50 CURVE SMOOTH",
"24 -21 OFFCURVE",
"62 0 OFFCURVE",
"122 19 CURVE",
"86 85 LINE",
"-62 33 OFFCURVE",
"-167 -29 OFFCURVE"
);
}
);
width = 0;
},
{
anchors = (
{
name = _ogonek;
position = "{59, 7}";
}
);
associatedMasterId = "0A1AFE58-107D-4787-BDA0-D82FB635C3A6";
layerId = "3\\\\\\\\\\\\\\\\\\\\\\\\\\\"\\\\\\\\\\\\\\\\\\\\\\\\\\\"";
name = Extended;
paths = (
{
closed = 1;
nodes = (
"-156 -125 CURVE SMOOTH",
"-156 -195 OFFCURVE",
"-104 -230 OFFCURVE",
"-29 -230 CURVE SMOOTH",
"15 -230 OFFCURVE",
"60 -218 OFFCURVE",
"94 -202 CURVE",
"70 -126 LINE",
"43 -135 OFFCURVE",
"25 -138 OFFCURVE",
"9 -138 CURVE SMOOTH",
"-25 -138 OFFCURVE",
"-42 -125 OFFCURVE",
"-42 -98 CURVE SMOOTH",
"-42 -57 OFFCURVE",
"-4 -21 OFFCURVE",
"59 7 CURVE",
"27 63 LINE",
"-74 17 OFFCURVE",
"-156 -42 OFFCURVE"
);
}
);
width = 0;
},
{
anchors = (
{
name = _ogonek;
position = "{5, 0}";
}
);
background = {
paths = (
{
closed = 1;
nodes = (
"-64 34 OFFCURVE",
"-181 -9 OFFCURVE",
"-181 -106 CURVE SMOOTH",
"-181 -179 OFFCURVE",
"-117 -205 OFFCURVE",
"-53 -205 CURVE SMOOTH",
"-24 -205 OFFCURVE",
"11 -200 OFFCURVE",
"33 -191 CURVE",
"33 -107 LINE",
"17 -111 OFFCURVE",
"-9 -115 OFFCURVE",
"-23 -115 CURVE SMOOTH",
"-49 -115 OFFCURVE",
"-63 -105 OFFCURVE",
"-63 -84 CURVE SMOOTH",
"-63 -48 OFFCURVE",
"-21 -23 OFFCURVE",
"23 0 CURVE",
"-25 55 LINE"
);
}
);
};
layerId = "3F6440D7-FC3E-4965-8B72-FDD88F2A8137";
paths = (
{
closed = 1;
nodes = (
"-59 34 OFFCURVE",
"-181 -29 OFFCURVE",
"-181 -126 CURVE SMOOTH",
"-181 -199 OFFCURVE",
"-117 -225 OFFCURVE",
"-53 -225 CURVE SMOOTH",
"-24 -225 OFFCURVE",
"11 -220 OFFCURVE",
"33 -211 CURVE",
"33 -127 LINE",
"17 -131 OFFCURVE",
"-9 -135 OFFCURVE",
"-23 -135 CURVE SMOOTH",
"-49 -135 OFFCURVE",
"-63 -124 OFFCURVE",
"-63 -101 CURVE SMOOTH",
"-63 -65 OFFCURVE",
"-21 -23 OFFCURVE",
"23 0 CURVE",
"-15 55 LINE"
);
}
);
width = 0;
}
);
leftKerningGroup = ogonekcomb;
rightKerningGroup = ogonekcomb;
unicode = 0328;
userData = {
public.markColor = "0.98,0.36,0.67,1";
};
},
{
color = 4;
glyphname = caroncomb.calt;
lastChange = "2017-08-30 09:00:31 +0000";
layers = (
{
anchors = (
{
name = _topright;
position = "{0, 456}";
}
);
associatedMasterId = "0A1AFE58-107D-4787-BDA0-D82FB635C3A6";
layerId = "207\\\\\\\\\\\\\\\\\\\\\\\\\\"\\\\\\\\\\\\\\\\\\\\\\\\\\"";
name = "Light Extended";
paths = (
{
closed = 1;
nodes = (
"80 749 LINE",
"80 548 LINE",
"107 548 LINE",
"118 748 LINE",
"116 751 LINE"
);
}
);
width = 0;
},
{
anchors = (
{
name = _topright;
position = "{0, 505}";
}
);
associatedMasterId = "0A1AFE58-107D-4787-BDA0-D82FB635C3A6";
layerId = "FB1C89AD-B37A-407E-A578-81A652CD14FD";
name = "Bold Extended";
paths = (
{
closed = 1;
nodes = (
"36 813 LINE",
"36 555 LINE",
"167 555 LINE",
"214 810 LINE",
"208 817 LINE"
);
}
);
width = 0;
},
{
anchors = (
{
name = _topright;
position = "{0, 474}";
}
);
associatedMasterId = "0A1AFE58-107D-4787-BDA0-D82FB635C3A6";
layerId = "3\\\\\\\\\\\\\\\\\\\\\\\\\\"\\\\\\\\\\\\\\\\\\\\\\\\\\"";
name = Extended;
paths = (
{
closed = 1;
nodes = (
"62 757 LINE",
"62 543 LINE",
"147 543 LINE",
"168 756 LINE",
"164 760 LINE"
);
}
);
width = 0;
},
{
anchors = (
{
name = _topright;
position = "{0, 525}";
}
);
background = {
paths = (
{
closed = 1;
nodes = (
"-36 790 OFFCURVE",
"-63 772 OFFCURVE",
"-63 733 CURVE SMOOTH",
"-63 694 OFFCURVE",
"-34 676 OFFCURVE",
"3 676 CURVE",
"-16 698 LINE",
"-22 660 OFFCURVE",
"-47 600 OFFCURVE",
"-61 580 CURVE",
"6 580 LINE",
"28 601 OFFCURVE",
"64 668 OFFCURVE",
"64 721 CURVE SMOOTH",
"64 766 OFFCURVE",
"43 790 OFFCURVE",
"-1 790 CURVE SMOOTH"
);
}
);
};
layerId = "3F6440D7-FC3E-4965-8B72-FDD88F2A8137";
paths = (
{
closed = 1;
nodes = (
"-33 790 OFFCURVE",
"-63 767 OFFCURVE",
"-63 728 CURVE SMOOTH",
"-63 684 OFFCURVE",
"-34 666 OFFCURVE",
"3 666 CURVE",
"-11 698 LINE",
"-17 660 OFFCURVE",
"-45 599 OFFCURVE",
"-61 570 CURVE",
"16 570 LINE",
"35 598 OFFCURVE",
"79 663 OFFCURVE",
"79 716 CURVE SMOOTH",
"79 761 OFFCURVE",
"56 790 OFFCURVE",
"7 790 CURVE SMOOTH"
);
}
);
width = 0;
}
);
leftKerningGroup = caroncomb.calt;
rightKerningGroup = caroncomb.calt;
userData = {
public.markColor = "0.98,0.36,0.67,1";
};
},
{
color = 4;
glyphname = dieresiscomb.case;
lastChange = "2017-08-30 09:00:31 +0000";
layers = (
{
anchors = (
{
name = _top;
position = "{0, 670}";
}
);
associatedMasterId = "0A1AFE58-107D-4787-BDA0-D82FB635C3A6";
layerId = "207\\\\\\\\\\\\\\\\\\\\\\\\\\"\\\\\\\\\\\\\\\\\\\\\\\\\\"";
name = "Light Extended";
paths = (
{
closed = 1;
nodes = (
"57 793 CURVE SMOOTH",
"57 776 OFFCURVE",
"69 765 OFFCURVE",
"89 765 CURVE SMOOTH",
"110 765 OFFCURVE",
"122 780 OFFCURVE",
"122 797 CURVE SMOOTH",
"122 815 OFFCURVE",
"110 826 OFFCURVE",
"91 826 CURVE SMOOTH",
"71 826 OFFCURVE",
"57 811 OFFCURVE"
);
},
{
closed = 1;
nodes = (
"-122 793 CURVE SMOOTH",
"-122 776 OFFCURVE",
"-110 765 OFFCURVE",
"-91 765 CURVE SMOOTH",
"-69 765 OFFCURVE",
"-57 780 OFFCURVE",
"-57 797 CURVE SMOOTH",
"-57 815 OFFCURVE",
"-69 826 OFFCURVE",
"-88 826 CURVE SMOOTH",
"-108 826 OFFCURVE",
"-122 811 OFFCURVE"
);
}
);
width = 0;
},
{
anchors = (
{
name = _top;
position = "{0, 670}";
}
);
associatedMasterId = "0A1AFE58-107D-4787-BDA0-D82FB635C3A6";
layerId = "FB1C89AD-B37A-407E-A578-81A652CD14FD";
name = "Bold Extended";
paths = (
{
closed = 1;
nodes = (
"35 831 CURVE SMOOTH",
"35 778 OFFCURVE",
"79 745 OFFCURVE",
"138 745 CURVE SMOOTH",
"203 745 OFFCURVE",
"251 784 OFFCURVE",
"251 846 CURVE SMOOTH",
"251 899 OFFCURVE",
"207 932 OFFCURVE",
"149 932 CURVE SMOOTH",
"83 932 OFFCURVE",
"35 893 OFFCURVE"
);
},
{
closed = 1;
nodes = (
"-251 831 CURVE SMOOTH",
"-251 778 OFFCURVE",
"-208 745 OFFCURVE",
"-150 745 CURVE SMOOTH",
"-84 745 OFFCURVE",
"-35 784 OFFCURVE",
"-35 846 CURVE SMOOTH",
"-35 899 OFFCURVE",
"-80 932 OFFCURVE",
"-139 932 CURVE SMOOTH",
"-204 932 OFFCURVE",
"-251 893 OFFCURVE"
);
}
);
width = 0;
},
{
anchors = (
{
name = _top;
position = "{0, 670}";
}
);
associatedMasterId = "0A1AFE58-107D-4787-BDA0-D82FB635C3A6";
layerId = "3\\\\\\\\\\\\\\\\\\\\\\\\\\"\\\\\\\\\\\\\\\\\\\\\\\\\\"";
name = Extended;
paths = (
{
closed = 1;
nodes = (
"42 815 CURVE SMOOTH",
"42 778 OFFCURVE",
"71 754 OFFCURVE",
"110 754 CURVE SMOOTH",
"153 754 OFFCURVE",
"184 780 OFFCURVE",
"184 822 CURVE SMOOTH",
"184 859 OFFCURVE",
"156 884 OFFCURVE",
"117 884 CURVE SMOOTH",
"74 884 OFFCURVE",
"42 857 OFFCURVE"
);
},
{
closed = 1;
nodes = (
"-185 815 CURVE SMOOTH",
"-185 778 OFFCURVE",
"-155 754 OFFCURVE",
"-115 754 CURVE SMOOTH",
"-73 754 OFFCURVE",
"-42 780 OFFCURVE",
"-42 822 CURVE SMOOTH",
"-42 859 OFFCURVE",
"-70 884 OFFCURVE",
"-109 884 CURVE SMOOTH",
"-153 884 OFFCURVE",
"-185 857 OFFCURVE"
);
}
);
width = 0;
},
{
anchors = (
{
name = _top;
position = "{0, 710}";
}
);
background = {
paths = (
{
closed = 1;
nodes = (
"-65 770 OFFCURVE",
"-29 792 OFFCURVE",
"-29 843 CURVE SMOOTH",
"-29 894 OFFCURVE",
"-65 916 OFFCURVE",
"-109 916 CURVE SMOOTH",
"-153 916 OFFCURVE",
"-189 894 OFFCURVE",
"-189 843 CURVE SMOOTH",
"-189 792 OFFCURVE",
"-153 770 OFFCURVE",
"-109 770 CURVE SMOOTH"
);
},
{
closed = 1;
nodes = (
"153 770 OFFCURVE",
"189 792 OFFCURVE",
"189 843 CURVE SMOOTH",
"189 894 OFFCURVE",
"153 916 OFFCURVE",
"109 916 CURVE SMOOTH",
"65 916 OFFCURVE",
"29 894 OFFCURVE",
"29 843 CURVE SMOOTH",
"29 792 OFFCURVE",
"65 770 OFFCURVE",
"109 770 CURVE SMOOTH"
);
}
);
};
layerId = "3F6440D7-FC3E-4965-8B72-FDD88F2A8137";
paths = (
{
closed = 1;
nodes = (
"-67 780 OFFCURVE",
"-31 802 OFFCURVE",
"-31 853 CURVE SMOOTH",
"-31 904 OFFCURVE",
"-67 926 OFFCURVE",
"-109 926 CURVE SMOOTH",
"-151 926 OFFCURVE",
"-187 904 OFFCURVE",
"-187 853 CURVE SMOOTH",
"-187 802 OFFCURVE",
"-151 780 OFFCURVE",
"-109 780 CURVE SMOOTH"
);
},
{
closed = 1;
nodes = (
"151 780 OFFCURVE",
"187 802 OFFCURVE",
"187 853 CURVE SMOOTH",
"187 904 OFFCURVE",
"151 926 OFFCURVE",
"109 926 CURVE SMOOTH",
"67 926 OFFCURVE",
"31 904 OFFCURVE",
"31 853 CURVE SMOOTH",
"31 802 OFFCURVE",
"67 780 OFFCURVE",
"109 780 CURVE SMOOTH"
);
}
);
width = 0;
}
);
leftKerningGroup = dieresiscomb.case;
rightKerningGroup = dieresiscomb.case;
userData = {
public.markColor = "0.98,0.36,0.67,1";
};
},
